<?xml version="1.0" standalone="no"?>
<!DOCTYPE svg PUBLIC "-//W3C//DTD SVG 1.1//EN" "http://www.w3.org/Graphics/SVG/1.1/DTD/svg11.dtd" >
<svg xmlns="http://www.w3.org/2000/svg" xmlns:xlink="http://www.w3.org/1999/xlink" version="1.1">
<metadata>
Created by FontForge 20161013 at Tue Nov 24 21:40:59 1992
 By ,,,
Copyright 1990-1993 Bitstream Inc.  All rights reserved.
</metadata>
<defs>
<font id="FuturaBT-BoldCondensed" horiz-adv-x="901" >
  <font-face 
    font-family="Futura BdCn BT"
    font-weight="400"
    font-stretch="condensed"
    units-per-em="2048"
    panose-1="2 11 7 6 2 2 4 2 2 4"
    ascent="1638"
    descent="-410"
    x-height="981"
    cap-height="1460"
    bbox="-342 -483 2286 1972"
    underline-thickness="248"
    underline-position="-593"
    unicode-range="U+0020-F002"
  />
<missing-glyph horiz-adv-x="1229" 
d="M102 -362v1806h1024v-1806h-1024zM217 -248h795v1577h-795v-1577z" />
    <glyph glyph-name=".notdef" horiz-adv-x="1229" 
d="M102 -362v1806h1024v-1806h-1024zM217 -248h795v1577h-795v-1577z" />
    <glyph glyph-name=".null" horiz-adv-x="0" 
 />
    <glyph glyph-name="nonmarkingreturn" horiz-adv-x="451" 
 />
    <glyph glyph-name="space" unicode=" " horiz-adv-x="451" 
 />
    <glyph glyph-name="exclam" unicode="!" horiz-adv-x="563" 
d="M145 428v1032h275v-1032h-275zM459 158q0 -76 -50.5 -126t-125.5 -50t-126 50t-51 126q0 75 51.5 125.5t125.5 50.5t125 -50.5t51 -125.5z" />
    <glyph glyph-name="quotedbl" unicode="&#x22;" horiz-adv-x="643" 
d="M395 1436h164v-557h-164v557zM86 1436h164v-557h-164v557z" />
    <glyph glyph-name="numbersign" unicode="#" horiz-adv-x="1575" 
d="M709 852l-91 -254h256l91 254h-256zM735 1460h191l-154 -436h250l156 436h190l-154 -436h291l-59 -172h-293l-90 -252h309l-61 -172h-307l-156 -434h-191l156 434h-252l-158 -434h-190l156 434h-299l61 172h297l90 252h-315l61 172h316z" />
    <glyph glyph-name="dollar" unicode="$" 
d="M37 172l117 203q60 -65 124.5 -99t127.5 -34q82 0 133 48t51 124q0 111 -187 211q-48 26 -73 41q-153 87 -219 180.5t-66 218.5q0 138 65 233.5t187 137.5v184h86v-168q2 0 6 1q34 3 53 3q9 0 20 -1t25 -3v168h86v-178q76 -18 133.5 -52t100.5 -87l-137 -197
q-57 52 -114 78t-114 26q-60 0 -99.5 -37t-39.5 -94q0 -99 192 -196q17 -8 25 -13q192 -96 260 -190t68 -246q0 -151 -74 -261.5t-201 -147.5v-207h-86v192q-15 -4 -32.5 -6t-36.5 -2q-15 0 -21.5 0.5t-13.5 1.5v-186h-86v200q-70 7 -135 45t-125 109z" />
    <glyph glyph-name="percent" unicode="%" horiz-adv-x="1677" 
d="M385 -18l725 1497h162l-721 -1497h-166zM1212 418q0 -151 19 -202.5t67 -51.5q49 0 68.5 54.5t19.5 199.5q0 150 -19.5 204t-68.5 54q-47 0 -66.5 -54t-19.5 -204zM1589 420q0 -214 -74.5 -326t-216.5 -112q-140 0 -215 112.5t-75 325.5q0 214 74.5 327t215.5 113
q142 0 216.5 -112.5t74.5 -327.5zM276 1042q0 -148 20 -201t69 -53q47 0 66.5 53.5t19.5 200.5q0 153 -19 204.5t-67 51.5q-49 0 -69 -54.5t-20 -201.5zM655 1038q0 -214 -74.5 -326t-215.5 -112t-216 112.5t-75 325.5q0 214 74.5 327.5t216.5 113.5q141 0 215.5 -113.5
t74.5 -327.5z" />
    <glyph glyph-name="ampersand" unicode="&#x26;" horiz-adv-x="1116" 
d="M614 295l-182 289q-57 -36 -81.5 -72.5t-24.5 -83.5q0 -75 45.5 -125.5t111.5 -50.5q28 0 60.5 10.5t70.5 32.5zM489 940l31 27q37 32 57.5 72t20.5 79q0 44 -22.5 71.5t-57.5 27.5q-45 0 -72.5 -30t-27.5 -77q0 -25 7.5 -52t20.5 -48zM735 102q-58 -56 -125 -84
t-145 -28q-170 0 -284.5 124.5t-114.5 305.5q0 111 58 209t171 176q-63 105 -88 174.5t-25 132.5q0 146 94 233t252 87q140 0 229 -84.5t89 -217.5q0 -103 -60 -201t-174 -179l185 -293l145 155l148 -206l-166 -150l163 -256h-288z" />
    <glyph glyph-name="quotesingle" unicode="'" horiz-adv-x="334" 
d="M86 1436h164v-557h-164v557z" />
    <glyph glyph-name="parenleft" unicode="(" horiz-adv-x="567" 
d="M532 -383l-223 -61q-116 247 -172.5 494t-56.5 505q0 264 57 514t172 487l223 -61q-105 -217 -156.5 -449.5t-51.5 -490.5q0 -247 51.5 -479.5t156.5 -458.5z" />
    <glyph glyph-name="parenright" unicode=")" horiz-adv-x="567" 
d="M33 -383q105 222 157 455.5t52 482.5q0 260 -52 492t-157 448l225 61q114 -237 170.5 -486.5t56.5 -514.5q0 -260 -56 -507t-171 -492z" />
    <glyph glyph-name="asterisk" unicode="*" 
d="M178 872l-67 115l227 119l-227 119l65 114l219 -135l-10 256h131l-10 -256l217 135l68 -114l-230 -119l227 -119l-65 -115l-217 138l10 -258h-131l10 258z" />
    <glyph glyph-name="plus" unicode="+" horiz-adv-x="1706" 
d="M768 1221h170v-527h514v-166h-514v-528h-170v528h-514v166h514v527z" />
    <glyph glyph-name="comma" unicode="," horiz-adv-x="451" 
d="M0 -281l162 607h289l-248 -607h-203z" />
    <glyph glyph-name="hyphen" unicode="-" horiz-adv-x="668" 
d="M76 332v317h516v-317h-516z" />
    <glyph glyph-name="period" unicode="." horiz-adv-x="451" 
d="M401 166q0 -76 -50.5 -127t-125.5 -51q-74 0 -125 51t-51 127q0 75 51 125.5t125 50.5t125 -50.5t51 -125.5z" />
    <glyph glyph-name="slash" unicode="/" horiz-adv-x="627" 
d="M451 1479h176l-451 -1669h-176z" />
    <glyph glyph-name="zero" unicode="0" 
d="M330 727q0 -278 27 -379.5t94 -101.5q65 0 91.5 100t26.5 381q0 286 -26.5 386.5t-91.5 100.5q-67 0 -94 -102.5t-27 -384.5zM848 729q0 -363 -102.5 -555t-294.5 -192q-193 0 -295.5 192t-102.5 555q0 366 102 558t296 192q193 0 295 -192t102 -558z" />
    <glyph glyph-name="one" unicode="1" 
d="M336 0v1219h-139v241h419v-1460h-280z" />
    <glyph glyph-name="two" unicode="2" 
d="M63 0l359 698q66 128 101.5 237t35.5 179q0 69 -27.5 106t-78.5 37q-74 0 -101.5 -59.5t-27.5 -234.5h-238q-1 10 -1.5 22.5t-0.5 36.5q0 224 98 340.5t287 116.5q162 0 257 -97.5t95 -263.5q0 -113 -49 -249.5t-190 -391.5l-125 -225h327v-252h-721z" />
    <glyph glyph-name="three" unicode="3" 
d="M49 418h244v-17q0 -85 29.5 -129.5t85.5 -44.5q62 0 95.5 55t33.5 156q0 116 -43 165.5t-142 49.5q-6 0 -17 -1t-18 -1v240h19q118 0 169.5 43t51.5 141q0 75 -30 117.5t-83 42.5q-55 0 -83.5 -42t-28.5 -124v-16h-236v34q0 191 93 291.5t270 100.5q164 0 252 -103
t88 -295q0 -132 -56 -210.5t-161 -92.5v-18q132 -26 197 -111t65 -231q0 -204 -113.5 -321t-310.5 -117q-178 0 -275.5 104t-97.5 295q0 6 1 18.5t1 20.5z" />
    <glyph glyph-name="four" unicode="4" 
d="M246 582h243v413q0 19 2 56.5t9 138.5q-25 -85 -50 -156.5t-49 -122.5zM479 0v362h-420v220l383 878h281v-878h119v-220h-119v-362h-244z" />
    <glyph glyph-name="five" unicode="5" 
d="M57 39l37 264q54 -32 108 -48.5t103 -16.5q109 0 168 61t59 174q0 131 -91 200.5t-263 69.5q-19 0 -59 -3q-9 0 -15 -1l101 721h569v-248h-366l-37 -266h10q206 0 322 -118.5t116 -327.5q0 -239 -128.5 -378.5t-350.5 -139.5q-83 0 -152 14t-131 43z" />
    <glyph glyph-name="six" unicode="6" 
d="M455 238q55 0 83.5 57t28.5 168q0 118 -25 173.5t-79 55.5q-59 0 -86 -59t-27 -187q0 -104 26 -156t79 -52zM377 866q50 36 94.5 53t87.5 17q137 0 215 -111t78 -309q0 -254 -104.5 -395t-290.5 -141q-195 0 -299.5 131.5t-104.5 375.5q0 238 189 629l16 33l150 311h280
l-233 -459q-22 -42 -41.5 -76t-36.5 -59z" />
    <glyph glyph-name="seven" unicode="7" 
d="M90 0l461 1219h-440v241h798l-530 -1460h-289z" />
    <glyph glyph-name="eight" unicode="8" 
d="M285 793v12q-90 22 -137.5 101.5t-47.5 207.5q0 175 91 270t260 95q168 0 259 -95t91 -270q0 -127 -48 -207t-137 -102v-12q109 -30 167.5 -129t58.5 -254q0 -201 -104 -314.5t-287 -113.5q-184 0 -288 113.5t-104 314.5q0 155 58 254t168 129zM449 1251q-50 0 -73.5 -36
t-23.5 -113q0 -92 23 -131t76 -39q51 0 74.5 37.5t23.5 122.5q0 82 -24.5 120.5t-75.5 38.5zM451 651q-60 0 -89.5 -50t-29.5 -150q0 -109 29 -161t90 -52q60 0 89 50.5t29 155.5t-29 156t-89 51z" />
    <glyph glyph-name="nine" unicode="9" 
d="M440 1221q-55 0 -81.5 -56t-26.5 -172t26.5 -172.5t81.5 -56.5q56 0 82.5 55.5t26.5 173.5q0 115 -27 171.5t-82 56.5zM528 592q-48 -38 -93.5 -56t-92.5 -18q-137 0 -215 115.5t-78 318.5q0 255 104 391t300 136q185 0 288 -134.5t103 -375.5t-178 -630l-13 -28
l-141 -311h-283l226 457q1 2 4 9q31 65 69 126z" />
    <glyph glyph-name="colon" unicode=":" horiz-adv-x="563" 
d="M459 754q0 -75 -51 -127t-125 -52q-75 0 -126 51.5t-51 127.5q0 75 51.5 125.5t125.5 50.5t125 -50.5t51 -125.5zM459 166q0 -76 -51 -127t-125 -51q-75 0 -126 51t-51 127q0 75 51.5 125.5t125.5 50.5t125 -50.5t51 -125.5z" />
    <glyph glyph-name="semicolon" unicode=";" horiz-adv-x="563" 
d="M-29 -281l164 607h289l-248 -607h-205zM459 754q0 -75 -51 -127t-125 -52q-75 0 -126 51.5t-51 127.5q0 75 51.5 125.5t125.5 50.5t125 -50.5t51 -125.5z" />
    <glyph glyph-name="less" unicode="&#x3c;" horiz-adv-x="1706" 
d="M1442 1176v-185l-934 -381l934 -381v-182l-1178 483v160z" />
    <glyph glyph-name="equal" unicode="=" horiz-adv-x="1706" 
d="M254 487h1198v-165h-1198v165zM254 901h1198v-168h-1198v168z" />
    <glyph glyph-name="greater" unicode="&#x3e;" horiz-adv-x="1706" 
d="M264 1176l1178 -486v-160l-1178 -483v182l934 381l-934 381v185z" />
    <glyph glyph-name="question" unicode="?" horiz-adv-x="883" 
d="M289 461v340q112 5 162.5 59t50.5 170q0 95 -24 139.5t-75 44.5q-43 0 -65.5 -38t-22.5 -113v-10h-270v34q0 193 94.5 292.5t278.5 99.5q187 0 286 -115t99 -334q0 -165 -59 -257t-181 -118v-194h-274zM602 158q0 -76 -50.5 -126t-125.5 -50t-125.5 50t-50.5 126
q0 75 51 125.5t125 50.5t125 -50.5t51 -125.5z" />
    <glyph glyph-name="at" unicode="@" horiz-adv-x="2048" 
d="M1174 283q-55 -87 -128 -127.5t-176 -40.5q-152 0 -232.5 86.5t-80.5 249.5q0 233 138 395t333 162q89 0 149 -34.5t99 -107.5l55 107h154l-148 -586q-1 -5 -2 -12q-6 -28 -6 -37q0 -38 26.5 -61t69.5 -23q51 0 107.5 30.5t105.5 84.5q72 76 110 177.5t38 215.5
q0 253 -187 411t-489 158q-138 0 -256 -31t-215 -94q-181 -113 -279 -291t-98 -395q0 -312 209.5 -499t558.5 -187q166 0 323.5 49t291.5 142l67 -99q-149 -113 -318.5 -170t-355.5 -57q-192 0 -351 48t-281 142q-155 118 -231.5 275.5t-76.5 357.5q0 165 52 313.5
t153 272.5q147 179 353.5 272t459.5 93q166 0 315 -45.5t255 -127.5q132 -102 198 -235.5t66 -300.5q0 -162 -65 -302t-185 -237q-69 -55 -150 -83.5t-168 -28.5q-106 0 -157 40.5t-51 125.5v4zM1233 707q-14 84 -61.5 130t-122.5 46q-127 0 -217.5 -128.5t-90.5 -310.5
q0 -98 45.5 -151t128.5 -53q90 0 163.5 66.5t99.5 172.5z" />
    <glyph glyph-name="A" unicode="A" horiz-adv-x="952" 
d="M381 483h194q-30 153 -54 320.5t-42 353.5q-22 -164 -46.5 -332.5t-51.5 -341.5zM-8 0l340 1460h305l324 -1460h-291l-49 256h-293l-45 -256h-291z" />
    <glyph glyph-name="B" unicode="B" horiz-adv-x="999" 
d="M397 854h31q112 0 164.5 44t52.5 136q0 97 -53.5 143t-165.5 46h-29v-369zM397 260q7 0 20.5 -1t20.5 -1q112 0 162.5 45t50.5 143q0 105 -51 150t-168 45h-35v-381zM115 0v1460h284q286 0 404.5 -89.5t118.5 -299.5q0 -119 -45 -196t-140 -123q106 -38 156.5 -119.5
t50.5 -214.5q0 -99 -33 -179.5t-96 -136.5q-63 -55 -151.5 -78.5t-278.5 -23.5h-270z" />
    <glyph glyph-name="C" unicode="C" horiz-adv-x="932" 
d="M866 16q-42 -17 -84.5 -25.5t-85.5 -8.5q-279 0 -453.5 203t-174.5 532q0 342 170.5 552t445.5 210q51 0 96 -8.5t86 -26.5v-273q-42 17 -81.5 25t-77.5 8q-146 0 -237 -129t-91 -342q0 -205 93.5 -332t240.5 -127q37 0 75.5 9t77.5 26v-293z" />
    <glyph glyph-name="D" unicode="D" horiz-adv-x="1102" 
d="M403 270h23q155 0 237 116.5t82 338.5q0 238 -79.5 353.5t-243.5 115.5h-19v-924zM115 0v1460h250q338 0 504.5 -181t166.5 -550q0 -222 -61 -372t-191 -248q-77 -59 -174.5 -84t-275.5 -25h-219z" />
    <glyph glyph-name="E" unicode="E" horiz-adv-x="811" 
d="M115 0v1460h614v-270h-332v-295h301v-268h-301v-342h332v-285h-614z" />
    <glyph glyph-name="F" unicode="F" horiz-adv-x="799" 
d="M115 0v1460h630v-270h-348v-303h318v-269h-318v-618h-282z" />
    <glyph glyph-name="G" unicode="G" horiz-adv-x="1139" 
d="M528 825h543q0 -11 1 -33.5t1 -33.5q0 -366 -134.5 -571t-371.5 -205q-231 0 -366 200.5t-135 546.5q0 349 140 549.5t382 200.5q164 0 278.5 -96t167.5 -279l-262 -121q-17 109 -64.5 163t-125.5 54q-117 0 -171.5 -113.5t-54.5 -357.5q0 -233 57.5 -353t168.5 -120
q97 0 151.5 81.5t54.5 229.5h-260v258z" />
    <glyph glyph-name="H" unicode="H" horiz-adv-x="1133" 
d="M115 0v1460h288v-540h326v540h291v-1460h-291v635h-326v-635h-288z" />
    <glyph glyph-name="I" unicode="I" horiz-adv-x="553" 
d="M127 0v1460h297v-1460h-297z" />
    <glyph glyph-name="J" unicode="J" horiz-adv-x="645" 
d="M6 14v265q34 -18 61.5 -26.5t49.5 -8.5q73 0 100 53.5t27 275.5v887h295v-1018q0 -149 -16 -217.5t-54 -118.5q-49 -62 -121 -94t-164 -32q-52 0 -97 8.5t-81 25.5z" />
    <glyph glyph-name="K" unicode="K" horiz-adv-x="975" 
d="M115 2v1458h282v-637l285 637h303l-301 -665l311 -793h-311l-287 711v-711h-282z" />
    <glyph glyph-name="L" unicode="L" horiz-adv-x="735" 
d="M115 0v1460h288v-1175h332v-285h-620z" />
    <glyph glyph-name="M" unicode="M" horiz-adv-x="1366" 
d="M43 0l143 1460h375l76 -557q17 -127 28.5 -243.5t18.5 -226.5q18 193 30.5 304.5t20.5 165.5l94 557h371l123 -1460h-295l-31 678l-3 72q-13 266 -13 436l-190 -1186h-211l-179 1194q0 -149 -18 -426q-4 -63 -6 -94l-45 -674h-289z" />
    <glyph glyph-name="N" unicode="N" horiz-adv-x="1135" 
d="M115 0v1460h295l295 -786q13 -38 36.5 -116.5t53.5 -184.5q-23 155 -34 284.5t-11 241.5v561h270v-1460h-270l-320 817q-8 18 -42 149q-16 60 -25 94q10 -85 15 -191.5t5 -254.5v-614h-268z" />
    <glyph glyph-name="O" unicode="O" horiz-adv-x="1157" 
d="M578 260q112 0 167.5 117t55.5 352q0 237 -55.5 354t-167.5 117t-167 -116.5t-55 -354.5q0 -237 55 -353t167 -116zM1092 709q0 -334 -140 -530.5t-374 -196.5q-242 0 -377 197.5t-135 549.5q0 351 136.5 550.5t375.5 199.5q240 0 377 -204t137 -566z" />
    <glyph glyph-name="P" unicode="P" horiz-adv-x="932" 
d="M397 827q5 0 15.5 -1t15.5 -1q93 0 141.5 53.5t48.5 153.5q0 104 -46 153.5t-144 49.5q-5 0 -15.5 -1t-15.5 -1v-406zM115 0v1460h303q241 0 358 -104.5t117 -319.5q0 -205 -113 -318.5t-317 -113.5q-26 0 -39.5 0.5t-25.5 1.5l-1 -606h-282z" />
    <glyph glyph-name="Q" unicode="Q" horiz-adv-x="1157" 
d="M625 559l137 -151q20 61 29.5 137.5t9.5 181.5q0 236 -56.5 355.5t-166.5 119.5q-114 0 -169 -122.5t-55 -377.5q0 -219 56.5 -333.5t164.5 -114.5q9 0 20 1t25 3l-153 170zM1104 31l-158 -137l-137 151q-46 -30 -102.5 -44.5t-128.5 -14.5q-243 0 -377.5 201t-134.5 565
q0 338 137 532.5t375 194.5q245 0 379.5 -200.5t134.5 -567.5q0 -180 -34 -307.5t-104 -208.5z" />
    <glyph glyph-name="R" unicode="R" horiz-adv-x="940" 
d="M397 827q5 0 16.5 -1t16.5 -1q95 0 143 53t48 156q0 105 -44 153t-141 48q-15 0 -23 -0.5t-15 -1.5zM115 0v1460h303q250 0 362.5 -98t112.5 -313q0 -156 -57.5 -250.5t-173.5 -132.5l280 -666h-307l-238 604v-604h-282z" />
    <glyph glyph-name="S" unicode="S" horiz-adv-x="786" 
d="M70 51v303q55 -48 108 -72t107 -24q74 0 116.5 39t42.5 106q0 83 -115 180q-32 27 -48 42q-134 120 -184 215.5t-50 216.5q0 189 106.5 305.5t278.5 116.5q61 0 120.5 -17.5t125.5 -54.5v-258q-77 37 -119.5 51t-75.5 14q-63 0 -103 -39.5t-40 -103.5q0 -56 30 -104.5
t140 -143.5q147 -126 189 -209.5t42 -201.5q0 -199 -112.5 -314.5t-306.5 -115.5q-74 0 -136.5 17t-115.5 52z" />
    <glyph glyph-name="T" unicode="T" horiz-adv-x="797" 
d="M252 0v1190h-223v270h739v-270h-223v-1190h-293z" />
    <glyph glyph-name="U" unicode="U" horiz-adv-x="1124" 
d="M1018 1460v-917q0 -168 -10 -238.5t-33 -116.5q-53 -105 -153.5 -155.5t-258.5 -50.5t-259.5 50.5t-153.5 155.5q-24 47 -34 118t-10 237v43v874h291v-940q0 -179 36.5 -230.5t129.5 -51.5q95 0 130.5 52.5t35.5 229.5v940h289z" />
    <glyph glyph-name="V" unicode="V" horiz-adv-x="995" 
d="M377 0l-416 1460h295l172 -661q25 -97 42.5 -207t27.5 -231q7 112 23.5 220.5t41.5 211.5l168 667h303l-413 -1460h-244z" />
    <glyph glyph-name="W" unicode="W" horiz-adv-x="1497" 
d="M2 1460h295l104 -659q15 -89 26 -199.5t19 -245.5l191 1104h242l190 -1104q0 97 8 198.5t25 205.5l108 700h287l-293 -1460h-256l-155 805q-12 60 -20.5 144t-12.5 184q-10 -109 -20 -194t-19 -132l-162 -807h-262z" />
    <glyph glyph-name="X" unicode="X" horiz-adv-x="864" 
d="M602 0l-115 297q-17 46 -31.5 100.5t-25.5 114.5q-11 -61 -24 -115.5t-27 -99.5l-100 -297h-332l338 739l-308 721h306l110 -307q9 -25 20 -67t25 -109q12 57 24 102t24 75l108 306h301l-307 -721l330 -739h-316z" />
    <glyph glyph-name="Y" unicode="Y" horiz-adv-x="801" 
d="M254 0v686l-338 774h307l96 -264q27 -71 49 -141.5t42 -143.5q18 81 39 151t43 126l106 272h285l-340 -774v-686h-289z" />
    <glyph glyph-name="Z" unicode="Z" horiz-adv-x="877" 
d="M-16 0l471 1192h-402v268h795l-465 -1175h424v-285h-823z" />
    <glyph glyph-name="bracketleft" unicode="[" horiz-adv-x="567" 
d="M66 -397v1904h464v-207h-188v-1490h188v-207h-464z" />
    <glyph glyph-name="backslash" unicode="\" horiz-adv-x="627" 
d="M451 -190l-451 1669h176l451 -1669h-176z" />
    <glyph glyph-name="bracketright" unicode="]" horiz-adv-x="567" 
d="M500 -397h-465v207h190v1490h-190v207h465v-1904z" />
    <glyph glyph-name="asciicircum" unicode="^" horiz-adv-x="2048" 
d="M915 1460h218l495 -561h-207l-397 397l-399 -397h-207z" />
    <glyph glyph-name="underscore" unicode="_" horiz-adv-x="1024" 
d="M0 -311h1024v-172h-1024v172z" />
    <glyph glyph-name="grave" unicode="`" horiz-adv-x="1024" 
d="M229 1485h246l187 -371h-134z" />
    <glyph glyph-name="a" unicode="a" horiz-adv-x="928" 
d="M571 506q0 134 -31.5 199t-97.5 65q-59 0 -85.5 -62.5t-26.5 -203.5q0 -140 29.5 -209.5t89.5 -69.5q64 0 93 67t29 214zM825 0h-254v145q-43 -81 -98.5 -122t-122.5 -41q-140 0 -214.5 130t-74.5 377q0 240 76.5 371t214.5 131q65 0 118.5 -39t100.5 -121v150h254v-981z
" />
    <glyph glyph-name="b" unicode="b" horiz-adv-x="928" 
d="M483 772q-64 0 -93.5 -63.5t-29.5 -202.5q0 -151 28 -217t91 -66q60 0 88.5 69.5t28.5 217.5q0 138 -27 200t-86 62zM102 0v1550h260v-708q44 75 96.5 112t116.5 37q142 0 215.5 -133t73.5 -389q0 -230 -75.5 -359.5t-206.5 -129.5q-72 0 -127.5 41.5t-92.5 121.5v-143
h-260z" />
    <glyph glyph-name="c" unicode="c" horiz-adv-x="651" 
d="M614 702q-32 24 -62 35t-60 11q-78 0 -124 -67.5t-46 -182.5q0 -121 46.5 -186.5t131.5 -65.5q32 0 60 12.5t54 38.5v-258q-42 -29 -88.5 -43t-97.5 -14q-172 0 -273.5 137t-101.5 373q0 233 102 370t273 137q49 0 95 -9.5t91 -28.5v-259z" />
    <glyph glyph-name="d" unicode="d" horiz-adv-x="928" 
d="M563 506q0 141 -28.5 203.5t-92.5 62.5q-59 0 -85.5 -63t-26.5 -205q0 -141 29.5 -211t89.5 -70q61 0 87.5 64.5t26.5 218.5zM825 0h-262v143q-39 -82 -93.5 -122.5t-125.5 -40.5q-135 0 -209 132.5t-74 376.5q0 241 76 371.5t215 130.5q63 0 115.5 -37t95.5 -112v708
h262v-1550z" />
    <glyph glyph-name="e" unicode="e" horiz-adv-x="877" 
d="M600 574q-3 107 -38.5 158.5t-106.5 51.5q-70 0 -107 -54t-37 -157zM311 418v-8q0 -110 39 -169t111 -59q46 0 78.5 28t52.5 85h233q-32 -147 -132.5 -230t-246.5 -83q-183 0 -291 137t-108 370q0 236 108 373t291 137q194 0 293 -135t99 -399v-47h-527z" />
    <glyph glyph-name="f" unicode="f" horiz-adv-x="530" 
d="M512 1558v-230q-6 0 -13 0.5t-18 0.5q-51 0 -69.5 -28t-18.5 -154v-166h119v-207h-119v-774h-270v774h-98v207h98v260q0 99 12 147.5t41 86.5q37 46 95.5 70t136.5 24q19 0 44.5 -2.5t59.5 -8.5z" />
    <glyph glyph-name="g" unicode="g" horiz-adv-x="928" 
d="M563 981h262v-907q0 -315 -83.5 -421t-301.5 -106q-172 0 -267 89.5t-95 250.5v15h229q0 -71 32.5 -106.5t96.5 -35.5q70 0 98.5 36.5t28.5 129.5v203q-47 -69 -100.5 -104t-112.5 -35q-140 0 -214.5 129t-74.5 373q0 239 76 369t215 130q66 0 118.5 -39.5t92.5 -120.5
v150zM563 506q0 143 -28 204.5t-93 61.5q-59 0 -85.5 -63t-26.5 -205q0 -141 29.5 -211t89.5 -70q61 0 87.5 64.5t26.5 218.5z" />
    <glyph glyph-name="h" unicode="h" horiz-adv-x="915" 
d="M553 0v594q0 84 -20 115.5t-68 31.5q-52 0 -75 -37t-23 -122v-582h-271v1550h271v-688q55 66 116.5 97.5t134.5 31.5q115 0 160 -64t45 -257v-670h-270z" />
    <glyph glyph-name="i" unicode="i" horiz-adv-x="483" 
d="M86 1243q0 67 44.5 112.5t111.5 45.5q64 0 109.5 -46t45.5 -112q0 -64 -45 -108.5t-110 -44.5q-67 0 -111.5 43.5t-44.5 109.5zM106 0v981h271v-981h-271z" />
    <glyph glyph-name="j" unicode="j" horiz-adv-x="483" 
d="M86 1243q0 67 44.5 112.5t111.5 45.5q64 0 109.5 -46t45.5 -112q0 -64 -45 -108.5t-110 -44.5q-67 0 -111.5 43.5t-44.5 109.5zM106 -395v1376h271v-1376h-271z" />
    <glyph glyph-name="k" unicode="k" horiz-adv-x="858" 
d="M371 578q10 27 45 100l12 24l139 279h305l-245 -408l264 -573h-301l-219 535v-535h-271v1550h271v-972z" />
    <glyph glyph-name="l" unicode="l" horiz-adv-x="483" 
d="M106 0v1550h271v-1550h-271z" />
    <glyph glyph-name="m" unicode="m" horiz-adv-x="1343" 
d="M98 0v981h250v-152q51 82 115 122t143 40q80 0 130 -41t67 -121q57 83 120 122.5t136 39.5q107 0 149.5 -74t42.5 -305v-612h-266v594q0 83 -18 115t-62 32q-53 0 -75.5 -35t-22.5 -124v-582h-264v594q0 81 -18.5 115t-61.5 34q-54 0 -77.5 -37t-23.5 -124v-582h-264z
" />
    <glyph glyph-name="n" unicode="n" horiz-adv-x="915" 
d="M553 0v594q0 84 -20 115.5t-68 31.5q-52 0 -75 -37t-23 -122v-582h-271v981h252v-152q53 82 119.5 122t150.5 40q115 0 160 -65t45 -256v-670h-270z" />
    <glyph glyph-name="o" unicode="o" horiz-adv-x="909" 
d="M455 219q72 0 111.5 71.5t39.5 203.5q0 131 -39.5 202.5t-111.5 71.5t-111 -71t-39 -203q0 -133 39 -204t111 -71zM864 492q0 -234 -111.5 -372t-297.5 -138q-187 0 -297.5 137.5t-110.5 372.5q0 233 110.5 370t297.5 137t298 -137.5t111 -369.5z" />
    <glyph glyph-name="p" unicode="p" horiz-adv-x="928" 
d="M483 770q-63 0 -92 -62t-29 -202q0 -153 27.5 -218t89.5 -65q60 0 88.5 69.5t28.5 217.5q0 137 -27 198.5t-86 61.5zM102 -395v1376h254v-150q47 82 101 121t118 39q139 0 214 -131t75 -375q0 -242 -74 -375t-208 -133q-71 0 -127 42.5t-93 123.5v-538h-260z" />
    <glyph glyph-name="q" unicode="q" horiz-adv-x="928" 
d="M563 506q0 140 -28.5 202t-92.5 62q-59 0 -85.5 -63t-26.5 -205q0 -140 29.5 -209.5t89.5 -69.5q61 0 87.5 64.5t26.5 218.5zM825 -395h-262v538q-39 -83 -93.5 -124.5t-125.5 -41.5q-134 0 -208.5 133t-74.5 375q0 244 76 375t215 131q65 0 118.5 -39t100.5 -121v150
h254v-1376z" />
    <glyph glyph-name="r" unicode="r" horiz-adv-x="588" 
d="M100 0v981h252v-174q33 96 88 143.5t133 48.5v-258h-18q-107 0 -145.5 -50.5t-38.5 -229.5v-461h-271z" />
    <glyph glyph-name="s" unicode="s" horiz-adv-x="686" 
d="M27 84l112 199q50 -33 87 -48.5t67 -15.5q31 0 51.5 20t20.5 50q0 52 -100 114q-26 16 -40 25q-96 65 -135 126.5t-39 145.5q0 138 86 218.5t232 80.5q73 0 139.5 -20.5t128.5 -63.5l-115 -194q-39 33 -72.5 49t-62.5 16q-33 0 -53.5 -18t-20.5 -47q0 -43 93 -100
q29 -18 45 -29q104 -72 145 -136.5t41 -152.5q0 -143 -94 -232t-246 -89q-74 0 -141 25t-129 77z" />
    <glyph glyph-name="t" unicode="t" horiz-adv-x="526" 
d="M127 0v770h-107v211h107v283h270v-283h107v-211h-107v-770h-270z" />
    <glyph glyph-name="u" unicode="u" horiz-adv-x="903" 
d="M811 981v-508q0 -294 -77.5 -392.5t-280.5 -98.5q-204 0 -282.5 98t-78.5 393v508h264v-631q0 -77 21 -104t74 -27t74.5 28t21.5 103v631h264z" />
    <glyph glyph-name="v" unicode="v" horiz-adv-x="772" 
d="M254 0l-252 981h262l84 -442q9 -47 18.5 -120t18.5 -169q9 93 18.5 165.5t18.5 123.5l86 442h262l-252 -981h-264z" />
    <glyph glyph-name="w" unicode="w" horiz-adv-x="1186" 
d="M698 981l80 -421q7 -43 16 -118t19 -171q11 90 21.5 169.5t17.5 122.5l76 418h262l-258 -981h-234l-71 407q-5 26 -14.5 113t-20.5 215l-5 -48q-24 -255 -28 -280l-72 -407h-233l-258 981h262l74 -418q3 -19 25 -184q8 -68 14 -108q7 84 16.5 158.5t20.5 129.5l77 422
h213z" />
    <glyph glyph-name="x" unicode="x" horiz-adv-x="758" 
d="M-12 0l250 526l-234 455h260l82 -164q16 -33 24 -59.5t11 -52.5q4 27 13 55.5t24 58.5l76 162h268l-248 -451l256 -530h-270l-88 223q-10 27 -17.5 60t-13.5 73q-6 -38 -14.5 -71t-20.5 -60l-96 -225h-262z" />
    <glyph glyph-name="y" unicode="y" horiz-adv-x="758" 
d="M135 -395l121 395l-254 981h266l95 -435q8 -41 13.5 -88t6.5 -95q13 107 18.5 143t10.5 58l90 417h266l-369 -1376h-264z" />
    <glyph glyph-name="z" unicode="z" horiz-adv-x="674" 
d="M18 0l283 762h-260v219h610l-278 -745h258v-236h-613z" />
    <glyph glyph-name="braceleft" unicode="{" horiz-adv-x="1024" 
d="M874 1477v-179q-8 0 -24 1t-23 1q-109 0 -147.5 -41.5t-38.5 -173.5v-241q0 -155 -44 -220.5t-159 -93.5q114 -27 158.5 -92.5t44.5 -220.5v-240q0 -132 39.5 -174.5t148.5 -42.5q7 0 22 1t23 1v-176h-63q-102 0 -165.5 12t-106.5 37q-57 34 -80 96t-23 203v248
q0 144 -52.5 203t-178.5 59q-7 0 -21.5 -1t-21.5 -1v179q7 0 21.5 -1.5t21.5 -1.5q126 0 178.5 59t52.5 202v247q0 145 23 206.5t80 94.5q44 27 109 38.5t181 11.5h45z" />
    <glyph glyph-name="bar" unicode="|" horiz-adv-x="1024" 
d="M424 1565h178v-2048h-178v2048z" />
    <glyph glyph-name="braceright" unicode="}" horiz-adv-x="1024" 
d="M152 1477h45q115 0 179.5 -11.5t108.5 -38.5q57 -33 80 -95t23 -206v-247q0 -144 52 -202.5t179 -58.5q6 0 21 1.5t22 1.5v-179q-7 0 -21.5 1t-21.5 1q-126 0 -178.5 -59t-52.5 -203v-248q0 -143 -23 -204t-80 -95q-43 -26 -108 -37.5t-180 -11.5h-45v176q8 0 23 -1
t22 -1q109 0 147.5 42t38.5 175v240q0 153 45 219t160 94q-115 28 -160 93.5t-45 220.5v241q0 132 -38 173.5t-146 41.5q-7 0 -23 -1t-24 -1v179z" />
    <glyph glyph-name="asciitilde" unicode="~" horiz-adv-x="1706" 
d="M1530 784v-184q-103 -71 -197.5 -106t-183.5 -35q-44 0 -92.5 8.5t-98.5 26.5q-25 8 -76 26q-212 74 -319 74q-82 0 -174 -38t-211 -122v187q106 72 202 107.5t185 35.5q62 0 125.5 -12t168.5 -48q13 -4 42 -15q164 -58 250 -58q85 0 177 37t202 116z" />
    <glyph glyph-name="nonbreakingspace" unicode="&#xa0;" 
 />
    <glyph glyph-name="exclamdown" unicode="&#xa1;" horiz-adv-x="563" 
d="M145 1032h275v-1032h-275v1032zM283 1479q74 0 125 -51t51 -125q0 -75 -51 -126t-125 -51t-125.5 51t-51.5 126t51 125.5t126 50.5z" />
    <glyph glyph-name="cent" unicode="&#xa2;" 
d="M369 33v205q-144 14 -227 150t-83 360q0 196 81 322.5t229 160.5v194h129v-194q35 0 67.5 -8.5t63.5 -26.5v-250q-37 21 -69 31t-60 10q-84 0 -128 -60t-44 -175q0 -130 43.5 -196.5t128.5 -66.5q28 0 60 10.5t69 30.5v-254q-31 -13 -63.5 -22.5t-67.5 -15.5v-205h-129z
" />
    <glyph glyph-name="sterling" unicode="&#xa3;" 
d="M47 690h127q-57 112 -82.5 202t-25.5 173q0 196 112 305t314 109q178 0 274 -90.5t96 -258.5v-30l-223 -68v15q0 89 -39 135.5t-115 46.5q-73 0 -113 -50.5t-40 -142.5q0 -72 54 -223q29 -79 43 -123h263v-139h-237q8 -47 11 -76.5t3 -50.5q0 -50 -12 -96.5t-37 -91.5
q37 -22 74.5 -32.5t76.5 -10.5q64 0 120.5 28t117.5 90l113 -192q-72 -72 -152 -104.5t-182 -32.5q-71 0 -178 31.5t-152 31.5q-34 0 -76 -16t-92 -47l-98 172q48 52 100.5 78t112.5 26q4 0 13 -1t13 -1q9 47 13 82t4 65q0 37 -6 74t-19 74h-176v139z" />
    <glyph glyph-name="currency" unicode="&#xa4;" horiz-adv-x="1241" 
d="M623 1176q-120 0 -205.5 -86t-85.5 -205q0 -120 84.5 -204.5t206.5 -84.5q121 0 205.5 84.5t84.5 204.5q0 119 -85.5 205t-204.5 86zM168 1430l203 -203q55 41 117 61.5t133 20.5t134 -20.5t117 -61.5l203 203l94 -93l-204 -204q39 -54 59 -116.5t20 -131.5
q0 -70 -20 -132.5t-59 -115.5l204 -205l-94 -92l-203 205q-57 -42 -118 -62t-131 -20q-72 0 -135 20.5t-117 61.5l-203 -205l-92 92l203 205q-40 53 -60 115.5t-20 132.5q0 69 20 131.5t60 116.5l-203 204z" />
    <glyph glyph-name="yen" unicode="&#xa5;" horiz-adv-x="989" 
d="M358 0v659h-333v84h311l-70 158h-241v84h204l-209 475h277l104 -270q1 -1 2 -4q65 -166 99 -285q21 86 42.5 155.5t45.5 127.5l119 276h260l-207 -475h205v-84h-242l-70 -158h312v-84h-336v-659h-273z" />
    <glyph glyph-name="brokenbar" unicode="&#xa6;" horiz-adv-x="1024" 
d="M424 408h178v-758h-178v758zM424 1432h178v-758h-178v758z" />
    <glyph glyph-name="section" unicode="&#xa7;" 
d="M453 397q51 0 77.5 41.5t26.5 120.5t-26.5 119.5t-77.5 40.5q-52 0 -78.5 -40.5t-26.5 -119.5t27 -120.5t78 -41.5zM799 1096h-244v10q0 83 -24 119.5t-78 36.5q-40 0 -67.5 -29.5t-27.5 -73.5q0 -82 155 -172q42 -25 65 -39q150 -92 207 -182t57 -225
q0 -118 -54.5 -201.5t-154.5 -120.5q84 -48 126 -119t42 -166q0 -154 -94.5 -249t-251.5 -95q-160 0 -245 99.5t-85 285.5v7h235v-19q0 -77 25 -117.5t72 -40.5q42 0 68 33t26 86q0 109 -174 213q-20 12 -31 19q-163 97 -225 184.5t-62 206.5q0 116 59 203t169 131
q-84 62 -123 130.5t-39 153.5q0 140 94.5 227t249.5 87q160 0 245 -97t85 -280v-6z" />
    <glyph glyph-name="dieresis" unicode="&#xa8;" horiz-adv-x="1024" 
d="M229 1296q0 48 36 83.5t83 35.5q49 0 85 -35.5t36 -83.5q0 -50 -35 -85t-86 -35q-49 0 -84 35.5t-35 84.5zM557 1296q0 48 35.5 83.5t83.5 35.5q49 0 85 -35.5t36 -83.5q0 -50 -35 -85t-86 -35q-49 0 -84 35.5t-35 84.5z" />
    <glyph glyph-name="copyright" unicode="&#xa9;" horiz-adv-x="1706" 
d="M1206 903h-166q-10 74 -60 114t-130 40q-99 0 -155 -86.5t-56 -239.5q0 -152 57.5 -234.5t163.5 -82.5q80 0 129 43.5t60 124.5h165q-7 -135 -106.5 -217t-253.5 -82q-183 0 -290 119t-107 323q0 208 109.5 331.5t291.5 123.5q147 0 243 -77t105 -200zM854 1362
q-130 0 -243 -46.5t-201 -135.5q-90 -92 -138.5 -208t-48.5 -241q0 -126 48 -240t139 -204q90 -91 204.5 -139t239.5 -48t240 48.5t209 140.5q89 88 135.5 200.5t46.5 241.5t-47 243.5t-135 203.5q-91 90 -205 137t-244 47zM852 1470q152 0 286 -55t240 -162
q105 -105 160 -238.5t55 -283.5q0 -153 -54.5 -286t-158.5 -234q-108 -107 -244.5 -164t-283.5 -57q-146 0 -280 56.5t-240 162.5q-107 106 -163 240.5t-56 281.5q0 145 57 280.5t164 243.5q105 107 235.5 161t282.5 54z" />
    <glyph glyph-name="ordfeminine" unicode="&#xaa;" horiz-adv-x="696" 
d="M428 1128q0 94 -23.5 139.5t-72.5 45.5q-45 0 -64.5 -43.5t-19.5 -143.5q0 -97 22 -145.5t66 -48.5q48 0 70 46t22 150zM618 774h-190v103q-32 -58 -74 -86.5t-92 -28.5q-104 0 -159.5 91t-55.5 263q0 169 57 260.5t160 91.5q49 0 89.5 -27.5t74.5 -84.5v104h190v-686z
" />
    <glyph glyph-name="guillemotleft" unicode="&#xab;" horiz-adv-x="834" 
d="M434 135l-149 -84l-252 449l252 428l149 -84l-198 -344zM801 135l-148 -84l-252 449l252 428l148 -84l-197 -344z" />
    <glyph glyph-name="logicalnot" unicode="&#xac;" horiz-adv-x="1706" 
d="M254 862h1198v-502h-166v336h-1032v166z" />
    <glyph glyph-name="sfthyphen" unicode="&#xad;" horiz-adv-x="668" 
d="M76 332v317h516v-317h-516z" />
    <glyph glyph-name="registered" unicode="&#xae;" horiz-adv-x="1706" 
d="M729 1047v-261h117q100 0 146 30.5t46 96.5q0 69 -48 101.5t-152 32.5h-109zM551 1159h319q173 0 262 -57t89 -168q0 -91 -48 -150.5t-137 -78.5l185 -375h-199l-164 346h-129v-346h-178v829zM854 1362q-129 0 -240 -45.5t-200 -134.5q-92 -94 -141.5 -210t-49.5 -241
t47 -238.5t136 -203.5q90 -91 204 -140t234 -49q130 0 246.5 47t209.5 138q89 86 137 198.5t48 237.5q0 133 -45.5 247.5t-134.5 205.5q-93 92 -207.5 140t-243.5 48zM852 1470q153 0 288.5 -56t241.5 -165q103 -104 157 -236.5t54 -281.5q0 -153 -55.5 -287t-161.5 -237
q-108 -105 -243 -161t-281 -56q-147 0 -282.5 57.5t-241.5 165.5q-105 106 -160 239t-55 279q0 147 57.5 284t165.5 245q104 104 234.5 157t281.5 53z" />
    <glyph glyph-name="macron" unicode="&#xaf;" horiz-adv-x="1024" 
d="M266 1219v145h494v-145h-494z" />
    <glyph glyph-name="degree" unicode="&#xb0;" horiz-adv-x="674" 
d="M338 1350q-77 0 -131.5 -54t-54.5 -131q0 -76 54.5 -131t131.5 -55t130.5 54.5t53.5 131.5t-53.5 131t-130.5 54zM338 1460q121 0 208 -87t87 -210q0 -121 -87 -208t-210 -87t-208 85.5t-85 209.5q0 125 86 211t209 86z" />
    <glyph glyph-name="plusminus" unicode="&#xb1;" horiz-adv-x="1706" 
d="M254 182h1198v-168h-1198v168zM768 1206h170v-334h514v-165h-514v-334h-170v334h-514v165h514v334z" />
    <glyph glyph-name="twosuperior" unicode="&#xb2;" horiz-adv-x="594" 
d="M41 584l238 420q42 74 66 139.5t24 107.5t-18 64t-52 22q-49 0 -67.5 -36t-18.5 -140l-156 1q-1 6 -1.5 13.5t-0.5 20.5q0 135 64.5 204.5t189.5 69.5q107 0 170.5 -58t63.5 -157q0 -67 -32 -148t-128 -237l-82 -135h217v-151h-477z" />
    <glyph glyph-name="threesuperior" unicode="&#xb3;" horiz-adv-x="594" 
d="M33 834h160v-9q0 -50 19.5 -77t55.5 -27q42 0 64 32t22 93q0 69 -28 99t-93 30h-24v143h12q79 0 113.5 26t34.5 85q0 45 -20.5 70.5t-55.5 25.5q-37 0 -55.5 -25t-18.5 -75v-11h-156v23q0 114 61.5 173.5t178.5 59.5q108 0 165.5 -61t57.5 -176q0 -80 -37 -127.5
t-106 -54.5v-11q88 -17 131 -68t43 -138q0 -122 -75 -192.5t-206 -70.5q-116 0 -180.5 63t-64.5 177q0 4 1 11t1 12z" />
    <glyph glyph-name="acute" unicode="&#xb4;" horiz-adv-x="1024" 
d="M795 1485l-299 -371h-134l187 371h246z" />
    <glyph glyph-name="mu" unicode="&#xb5;" horiz-adv-x="1208" 
d="M205 1081h229l-125 -635q-6 -29 -9 -55t-3 -49q0 -96 46.5 -146.5t135.5 -50.5q122 0 193.5 88.5t111.5 292.5l109 555h225l-145 -739q-10 -49 -14.5 -81.5t-4.5 -51.5q0 -36 15.5 -51t52.5 -15q13 0 20.5 0.5t13.5 1.5l-32 -159q-32 -9 -68.5 -13t-81.5 -4
q-74 0 -111.5 31.5t-37.5 93.5v15q-41 -67 -108 -104.5t-146 -37.5q-81 0 -137.5 26t-97.5 83l-99 -506h-229z" />
    <glyph glyph-name="paragraph" unicode="&#xb6;" horiz-adv-x="1024" 
d="M969 1479v-99h-117v-1380h-129v1380h-168v-1380h-131v784q-168 6 -268.5 101t-100.5 245q0 158 107 253.5t284 95.5h523z" />
    <glyph glyph-name="glyph121" unicode="&#xb7;" horiz-adv-x="451" 
d="M401 729q0 -75 -50.5 -125.5t-125.5 -50.5t-125.5 50t-50.5 126q0 75 51 125.5t125 50.5t125 -50.5t51 -125.5z" />
    <glyph glyph-name="cedilla" unicode="&#xb8;" horiz-adv-x="1024" 
d="M274 -438v129q64 -21 118.5 -32t92.5 -11q43 0 64.5 18.5t21.5 54.5q0 37 -26 53.5t-82 16.5q-16 0 -25.5 -0.5t-17.5 -1.5v211h96v-90h12q99 0 149 -48t50 -143q0 -100 -57 -150t-170 -50q-43 0 -100.5 11t-125.5 32z" />
    <glyph glyph-name="onesuperior" unicode="&#xb9;" horiz-adv-x="594" 
d="M221 584v731h-92v145h279v-876h-187z" />
    <glyph glyph-name="ordmasculine" unicode="&#xba;" horiz-adv-x="682" 
d="M342 928q54 0 83.5 50t29.5 142t-30 142.5t-83 50.5q-54 0 -83.5 -50t-29.5 -143t29 -142.5t84 -49.5zM649 1118q0 -163 -84 -259.5t-223 -96.5q-140 0 -223.5 96.5t-83.5 259.5q0 164 83.5 260.5t223.5 96.5t223.5 -96.5t83.5 -260.5z" />
    <glyph glyph-name="guillemotright" unicode="&#xbb;" horiz-adv-x="834" 
d="M401 135l197 365l-197 344l150 84l250 -428l-250 -449zM33 135l196 365l-196 344l149 84l252 -428l-252 -449z" />
    <glyph glyph-name="onequarter" unicode="&#xbc;" horiz-adv-x="1477" 
d="M1065 326h154v231q0 15 1.5 42.5t4.5 65.5q-20 -56 -35.5 -94t-28.5 -61zM1210 0v203h-264v123l242 491h176v-491h76v-123h-76v-203h-154zM225 -18l854 1497h170l-854 -1497h-170zM211 643v682h-88v135h266v-817h-178z" />
    <glyph glyph-name="onehalf" unicode="&#xbd;" horiz-adv-x="1477" 
d="M950 0l226 391q41 73 63.5 134t22.5 100q0 38 -18 59t-50 21q-45 0 -62.5 -33.5t-17.5 -132.5h-151v32q0 127 61 191.5t180 64.5q103 0 163 -54t60 -146q0 -64 -30 -139t-121 -222l-80 -125h207v-141h-453zM225 -18l854 1497h170l-854 -1497h-170zM211 643v682h-88v135
h266v-817h-178z" />
    <glyph glyph-name="threequarters" unicode="&#xbe;" horiz-adv-x="1477" 
d="M1065 326h154v231q0 15 1.5 42.5t4.5 65.5q-20 -56 -35.5 -94t-28.5 -61zM1210 0v203h-264v123l242 491h176v-491h76v-123h-76v-203h-154zM225 -18l854 1497h170l-854 -1497h-170zM31 877h153v-9q0 -47 18.5 -72.5t53.5 -25.5q40 0 61 30.5t21 88.5q0 65 -27 93t-90 28
q-3 0 -10 -1t-10 -1v135h10q74 0 106.5 23.5t32.5 78.5q0 43 -18.5 66.5t-50.5 23.5q-36 0 -54 -23.5t-18 -70.5v-8h-148v18q0 107 58.5 163t169.5 56q104 0 159.5 -56.5t55.5 -164.5q0 -74 -35.5 -118t-101.5 -52v-10q83 -15 124 -63t41 -129q0 -114 -71.5 -180t-196.5 -66
q-112 0 -173.5 59t-61.5 166q0 3 1 9.5t1 11.5z" />
    <glyph glyph-name="questiondown" unicode="&#xbf;" horiz-adv-x="883" 
d="M590 999v-341q-116 -6 -164.5 -61.5t-48.5 -182.5q0 -85 24.5 -127.5t73.5 -42.5q43 0 65.5 38.5t22.5 112.5v11h271v-35q0 -193 -95 -292t-278 -99q-189 0 -287 114t-98 334q0 166 58.5 258.5t180.5 118.5v194h275zM276 1303q0 75 51 125.5t126 50.5q74 0 125 -51
t51 -125q0 -75 -51 -126t-125 -51t-125.5 51t-51.5 126z" />
    <glyph glyph-name="Agrave" unicode="&#xc0;" horiz-adv-x="952" 
d="M381 483h194q-30 153 -54 320.5t-42 353.5q-22 -164 -46.5 -332.5t-51.5 -341.5zM-8 0l340 1460h305l324 -1460h-291l-49 256h-293l-45 -256h-291zM202 1964h246l187 -371h-134z" />
    <glyph glyph-name="Aacute" unicode="&#xc1;" horiz-adv-x="952" 
d="M381 483h194q-30 153 -54 320.5t-42 353.5q-22 -164 -46.5 -332.5t-51.5 -341.5zM-8 0l340 1460h305l324 -1460h-291l-49 256h-293l-45 -256h-291zM768 1964l-299 -371h-134l187 371h246z" />
    <glyph glyph-name="Acircumflex" unicode="&#xc2;" horiz-adv-x="952" 
d="M381 483h194q-30 153 -54 320.5t-42 353.5q-22 -164 -46.5 -332.5t-51.5 -341.5zM-8 0l340 1460h305l324 -1460h-291l-49 256h-293l-45 -256h-291zM217 1593l168 371h200l168 -371h-121l-147 217l-147 -217h-121z" />
    <glyph glyph-name="Atilde" unicode="&#xc3;" horiz-adv-x="952" 
d="M381 483h194q-30 153 -54 320.5t-42 353.5q-22 -164 -46.5 -332.5t-51.5 -341.5zM-8 0l340 1460h305l324 -1460h-291l-49 256h-293l-45 -256h-291zM753 1915q-17 -128 -59.5 -186t-116.5 -58q-14 0 -29 2.5t-32 7.5l-76 27q-14 5 -28.5 7.5t-26.5 2.5q-28 0 -45.5 -18
t-28.5 -60h-94q20 120 62.5 178t111.5 58q16 0 34.5 -3.5t39.5 -11.5l75 -24q11 -4 22 -6t21 -2q30 0 48.5 20t29.5 66h92z" />
    <glyph glyph-name="Adieresis" unicode="&#xc4;" horiz-adv-x="952" 
d="M381 483h194q-30 153 -54 320.5t-42 353.5q-22 -164 -46.5 -332.5t-51.5 -341.5zM-8 0l340 1460h305l324 -1460h-291l-49 256h-293l-45 -256h-291zM202 1775q0 48 36 83.5t83 35.5q49 0 85 -35.5t36 -83.5q0 -50 -35 -85t-86 -35q-49 0 -84 35.5t-35 84.5zM530 1775
q0 48 35.5 83.5t83.5 35.5q49 0 85 -35.5t36 -83.5q0 -50 -35 -85t-86 -35q-49 0 -84 35.5t-35 84.5z" />
    <glyph glyph-name="Aring" unicode="&#xc5;" horiz-adv-x="952" 
d="M383 1749q0 -41 30.5 -70.5t71.5 -29.5t71 29.5t30 70.5q0 42 -30 72t-71 30t-70.5 -29.5t-31.5 -72.5zM262 1749q0 93 65.5 158t157.5 65q93 0 157.5 -64.5t64.5 -158.5q0 -92 -64.5 -156.5t-157.5 -64.5q-92 0 -157.5 64.5t-65.5 156.5zM-8 0l340 1460h305l324 -1460
h-291l-49 256h-293l-45 -256h-291zM381 483h194q-30 153 -54 320.5t-42 353.5q-22 -164 -46.5 -332.5t-51.5 -341.5z" />
    <glyph glyph-name="AE" unicode="&#xc6;" horiz-adv-x="1157" 
d="M561 496l-55 352q-9 55 -14 115t-7 126q-1 -79 -26 -206q-4 -23 -6 -35l-68 -352h176zM-10 0l356 1460h576l47 -268h-267l56 -299h266l49 -268h-266l63 -340h265l53 -285h-553l-37 248h-258l-55 -248h-295z" />
    <glyph glyph-name="Ccedilla" unicode="&#xc7;" horiz-adv-x="932" 
d="M866 16q-42 -17 -84.5 -25.5t-85.5 -8.5q-279 0 -453.5 203t-174.5 532q0 342 170.5 552t445.5 210q51 0 96 -8.5t86 -26.5v-273q-42 17 -81.5 25t-77.5 8q-146 0 -237 -129t-91 -342q0 -205 93.5 -332t240.5 -127q37 0 75.5 9t77.5 26v-293zM385 -438v129
q64 -21 118.5 -32t92.5 -11q43 0 64.5 18.5t21.5 54.5q0 37 -26 53.5t-82 16.5q-16 0 -25.5 -0.5t-17.5 -1.5v211h96v-90h12q99 0 149 -48t50 -143q0 -100 -57 -150t-170 -50q-43 0 -100.5 11t-125.5 32z" />
    <glyph glyph-name="Egrave" unicode="&#xc8;" horiz-adv-x="811" 
d="M115 0v1460h614v-270h-332v-295h301v-268h-301v-342h332v-285h-614zM135 1964h246l187 -371h-134z" />
    <glyph glyph-name="Eacute" unicode="&#xc9;" horiz-adv-x="811" 
d="M115 0v1460h614v-270h-332v-295h301v-268h-301v-342h332v-285h-614zM701 1964l-299 -371h-134l187 371h246z" />
    <glyph glyph-name="Ecircumflex" unicode="&#xca;" horiz-adv-x="811" 
d="M115 0v1460h614v-270h-332v-295h301v-268h-301v-342h332v-285h-614zM150 1593l168 371h200l168 -371h-121l-147 217l-147 -217h-121z" />
    <glyph glyph-name="Edieresis" unicode="&#xcb;" horiz-adv-x="811" 
d="M115 0v1460h614v-270h-332v-295h301v-268h-301v-342h332v-285h-614zM135 1775q0 48 36 83.5t83 35.5q49 0 85 -35.5t36 -83.5q0 -50 -35 -85t-86 -35q-49 0 -84 35.5t-35 84.5zM463 1775q0 48 35.5 83.5t83.5 35.5q49 0 85 -35.5t36 -83.5q0 -50 -35 -85t-86 -35
q-49 0 -84 35.5t-35 84.5z" />
    <glyph glyph-name="Igrave" unicode="&#xcc;" horiz-adv-x="553" 
d="M127 0v1460h297v-1460h-297zM-7 1964h246l187 -371h-134z" />
    <glyph glyph-name="Iacute" unicode="&#xcd;" horiz-adv-x="553" 
d="M127 0v1460h297v-1460h-297zM559 1964l-299 -371h-134l187 371h246z" />
    <glyph glyph-name="Icircumflex" unicode="&#xce;" horiz-adv-x="553" 
d="M127 0v1460h297v-1460h-297zM8 1593l168 371h200l168 -371h-121l-147 217l-147 -217h-121z" />
    <glyph glyph-name="Idieresis" unicode="&#xcf;" horiz-adv-x="553" 
d="M127 0v1460h297v-1460h-297zM-7 1775q0 48 36 83.5t83 35.5q49 0 85 -35.5t36 -83.5q0 -50 -35 -85t-86 -35q-49 0 -84 35.5t-35 84.5zM321 1775q0 48 35.5 83.5t83.5 35.5q49 0 85 -35.5t36 -83.5q0 -50 -35 -85t-86 -35q-49 0 -84 35.5t-35 84.5z" />
    <glyph glyph-name="Eth" unicode="&#xd0;" horiz-adv-x="1112" 
d="M412 270h24q158 0 238 115t80 344q0 233 -80.5 349t-241.5 116h-20v-291h153v-252h-153v-381zM123 0v651h-123v252h123v557h252q338 0 505 -181t167 -550q0 -222 -61.5 -372t-190.5 -248q-77 -59 -175.5 -84t-277.5 -25h-219z" />
    <glyph glyph-name="Ntilde" unicode="&#xd1;" horiz-adv-x="1135" 
d="M115 0v1460h295l295 -786q13 -38 36.5 -116.5t53.5 -184.5q-23 155 -34 284.5t-11 241.5v561h270v-1460h-270l-320 817q-8 18 -42 149q-16 60 -25 94q10 -85 15 -191.5t5 -254.5v-614h-268zM843 1915q-17 -128 -59.5 -186t-116.5 -58q-14 0 -29 2.5t-32 7.5l-76 27
q-14 5 -28.5 7.5t-26.5 2.5q-28 0 -45.5 -18t-28.5 -60h-94q20 120 62.5 178t111.5 58q16 0 34.5 -3.5t39.5 -11.5l75 -24q11 -4 22 -6t21 -2q30 0 48.5 20t29.5 66h92z" />
    <glyph glyph-name="Ograve" unicode="&#xd2;" horiz-adv-x="1157" 
d="M578 260q112 0 167.5 117t55.5 352q0 237 -55.5 354t-167.5 117t-167 -116.5t-55 -354.5q0 -237 55 -353t167 -116zM1092 709q0 -334 -140 -530.5t-374 -196.5q-242 0 -377 197.5t-135 549.5q0 351 136.5 550.5t375.5 199.5q240 0 377 -204t137 -566zM297 1964h246
l187 -371h-134z" />
    <glyph glyph-name="Oacute" unicode="&#xd3;" horiz-adv-x="1157" 
d="M578 260q112 0 167.5 117t55.5 352q0 237 -55.5 354t-167.5 117t-167 -116.5t-55 -354.5q0 -237 55 -353t167 -116zM1092 709q0 -334 -140 -530.5t-374 -196.5q-242 0 -377 197.5t-135 549.5q0 351 136.5 550.5t375.5 199.5q240 0 377 -204t137 -566zM863 1964l-299 -371
h-134l187 371h246z" />
    <glyph glyph-name="Ocircumflex" unicode="&#xd4;" horiz-adv-x="1157" 
d="M578 260q112 0 167.5 117t55.5 352q0 237 -55.5 354t-167.5 117t-167 -116.5t-55 -354.5q0 -237 55 -353t167 -116zM1092 709q0 -334 -140 -530.5t-374 -196.5q-242 0 -377 197.5t-135 549.5q0 351 136.5 550.5t375.5 199.5q240 0 377 -204t137 -566zM312 1593l168 371
h200l168 -371h-121l-147 217l-147 -217h-121z" />
    <glyph glyph-name="Otilde" unicode="&#xd5;" horiz-adv-x="1157" 
d="M578 260q112 0 167.5 117t55.5 352q0 237 -55.5 354t-167.5 117t-167 -116.5t-55 -354.5q0 -237 55 -353t167 -116zM1092 709q0 -334 -140 -530.5t-374 -196.5q-242 0 -377 197.5t-135 549.5q0 351 136.5 550.5t375.5 199.5q240 0 377 -204t137 -566zM848 1915
q-17 -128 -59.5 -186t-116.5 -58q-14 0 -29 2.5t-32 7.5l-76 27q-14 5 -28.5 7.5t-26.5 2.5q-28 0 -45.5 -18t-28.5 -60h-94q20 120 62.5 178t111.5 58q16 0 34.5 -3.5t39.5 -11.5l75 -24q11 -4 22 -6t21 -2q30 0 48.5 20t29.5 66h92z" />
    <glyph glyph-name="Odieresis" unicode="&#xd6;" horiz-adv-x="1157" 
d="M578 260q112 0 167.5 117t55.5 352q0 237 -55.5 354t-167.5 117t-167 -116.5t-55 -354.5q0 -237 55 -353t167 -116zM1092 709q0 -334 -140 -530.5t-374 -196.5q-242 0 -377 197.5t-135 549.5q0 351 136.5 550.5t375.5 199.5q240 0 377 -204t137 -566zM297 1775
q0 48 36 83.5t83 35.5q49 0 85 -35.5t36 -83.5q0 -50 -35 -85t-86 -35q-49 0 -84 35.5t-35 84.5zM625 1775q0 48 35.5 83.5t83.5 35.5q49 0 85 -35.5t36 -83.5q0 -50 -35 -85t-86 -35q-49 0 -84 35.5t-35 84.5z" />
    <glyph glyph-name="multiply" unicode="&#xd7;" horiz-adv-x="1706" 
d="M403 1188l459 -459l461 459l117 -117l-459 -461l459 -458l-117 -119l-461 461l-459 -461l-116 119l458 458l-458 461z" />
    <glyph glyph-name="Oslash" unicode="&#xd8;" horiz-adv-x="1157" 
d="M702 1163q-25 24 -55.5 35.5t-68.5 11.5q-118 0 -174 -115.5t-56 -359.5q0 -77 9 -151t26 -146zM164 -57l86 188q-95 105 -139.5 256t-44.5 365q0 350 133 538.5t379 188.5q66 0 123.5 -16t111.5 -48l64 141l96 -49l-74 -168q95 -104 143 -256.5t48 -351.5
q0 -351 -136.5 -549t-375.5 -198q-68 0 -127 17t-111 52l-68 -151zM451 305q27 -28 57 -41.5t67 -13.5q118 0 176 119t58 362q0 75 -9.5 151t-29.5 156z" />
    <glyph glyph-name="Ugrave" unicode="&#xd9;" horiz-adv-x="1124" 
d="M1018 1460v-917q0 -168 -10 -238.5t-33 -116.5q-53 -105 -153.5 -155.5t-258.5 -50.5t-259.5 50.5t-153.5 155.5q-24 47 -34 118t-10 237v43v874h291v-940q0 -179 36.5 -230.5t129.5 -51.5q95 0 130.5 52.5t35.5 229.5v940h289zM280 1964h246l187 -371h-134z" />
    <glyph glyph-name="Uacute" unicode="&#xda;" horiz-adv-x="1124" 
d="M1018 1460v-917q0 -168 -10 -238.5t-33 -116.5q-53 -105 -153.5 -155.5t-258.5 -50.5t-259.5 50.5t-153.5 155.5q-24 47 -34 118t-10 237v43v874h291v-940q0 -179 36.5 -230.5t129.5 -51.5q95 0 130.5 52.5t35.5 229.5v940h289zM846 1964l-299 -371h-134l187 371h246z
" />
    <glyph glyph-name="Ucircumflex" unicode="&#xdb;" horiz-adv-x="1124" 
d="M1018 1460v-917q0 -168 -10 -238.5t-33 -116.5q-53 -105 -153.5 -155.5t-258.5 -50.5t-259.5 50.5t-153.5 155.5q-24 47 -34 118t-10 237v43v874h291v-940q0 -179 36.5 -230.5t129.5 -51.5q95 0 130.5 52.5t35.5 229.5v940h289zM295 1593l168 371h200l168 -371h-121
l-147 217l-147 -217h-121z" />
    <glyph glyph-name="Udieresis" unicode="&#xdc;" horiz-adv-x="1124" 
d="M1018 1460v-917q0 -168 -10 -238.5t-33 -116.5q-53 -105 -153.5 -155.5t-258.5 -50.5t-259.5 50.5t-153.5 155.5q-24 47 -34 118t-10 237v43v874h291v-940q0 -179 36.5 -230.5t129.5 -51.5q95 0 130.5 52.5t35.5 229.5v940h289zM280 1775q0 48 36 83.5t83 35.5
q49 0 85 -35.5t36 -83.5q0 -50 -35 -85t-86 -35q-49 0 -84 35.5t-35 84.5zM608 1775q0 48 35.5 83.5t83.5 35.5q49 0 85 -35.5t36 -83.5q0 -50 -35 -85t-86 -35q-49 0 -84 35.5t-35 84.5z" />
    <glyph glyph-name="Yacute" unicode="&#xdd;" horiz-adv-x="801" 
d="M254 0v686l-338 774h307l96 -264q27 -71 49 -141.5t42 -143.5q18 81 39 151t43 126l106 272h285l-340 -774v-686h-289zM684 1964l-299 -371h-134l187 371h246z" />
    <glyph glyph-name="Thorn" unicode="&#xde;" horiz-adv-x="932" 
d="M397 551q5 0 15.5 -1t15.5 -1q93 0 141.5 53t48.5 154q0 103 -46 152.5t-144 49.5q-5 0 -15.5 -1t-15.5 -1v-405zM115 0v1460h282v-276h21q241 0 358 -104.5t117 -319.5q0 -206 -113 -319t-317 -113q-26 0 -40 0.5t-26 0.5v-329h-282z" />
    <glyph glyph-name="germandbls" unicode="&#xdf;" horiz-adv-x="920" 
d="M104 0v1055q0 150 8.5 218t28.5 116q35 81 114 125.5t189 44.5q183 0 280 -105.5t97 -302.5q0 -113 -37.5 -187t-113.5 -112q93 -34 138.5 -126t45.5 -245q0 -242 -85 -364.5t-253 -122.5q-17 0 -39 1.5t-47 5.5v265q7 -1 13.5 -1.5t19.5 -0.5q67 0 95 58.5t28 205.5
q0 96 -34 144.5t-101 48.5q-3 0 -10 -1t-11 -1v233q66 0 94.5 42.5t28.5 142.5q0 106 -24.5 156t-75.5 50t-69.5 -48.5t-18.5 -217.5v-155v-922h-261z" />
    <glyph glyph-name="agrave" unicode="&#xe0;" horiz-adv-x="928" 
d="M571 506q0 134 -31.5 199t-97.5 65q-59 0 -85.5 -62.5t-26.5 -203.5q0 -140 29.5 -209.5t89.5 -69.5q64 0 93 67t29 214zM825 0h-254v145q-43 -81 -98.5 -122t-122.5 -41q-140 0 -214.5 130t-74.5 377q0 240 76.5 371t214.5 131q65 0 118.5 -39t100.5 -121v150h254v-981z
M221 1485h246l187 -371h-134z" />
    <glyph glyph-name="aacute" unicode="&#xe1;" horiz-adv-x="928" 
d="M571 506q0 134 -31.5 199t-97.5 65q-59 0 -85.5 -62.5t-26.5 -203.5q0 -140 29.5 -209.5t89.5 -69.5q64 0 93 67t29 214zM825 0h-254v145q-43 -81 -98.5 -122t-122.5 -41q-140 0 -214.5 130t-74.5 377q0 240 76.5 371t214.5 131q65 0 118.5 -39t100.5 -121v150h254v-981z
M787 1485l-299 -371h-134l187 371h246z" />
    <glyph glyph-name="acircumflex" unicode="&#xe2;" horiz-adv-x="928" 
d="M571 506q0 134 -31.5 199t-97.5 65q-59 0 -85.5 -62.5t-26.5 -203.5q0 -140 29.5 -209.5t89.5 -69.5q64 0 93 67t29 214zM825 0h-254v145q-43 -81 -98.5 -122t-122.5 -41q-140 0 -214.5 130t-74.5 377q0 240 76.5 371t214.5 131q65 0 118.5 -39t100.5 -121v150h254v-981z
M236 1114l168 371h200l168 -371h-121l-147 217l-147 -217h-121z" />
    <glyph glyph-name="atilde" unicode="&#xe3;" horiz-adv-x="928" 
d="M571 506q0 134 -31.5 199t-97.5 65q-59 0 -85.5 -62.5t-26.5 -203.5q0 -140 29.5 -209.5t89.5 -69.5q64 0 93 67t29 214zM825 0h-254v145q-43 -81 -98.5 -122t-122.5 -41q-140 0 -214.5 130t-74.5 377q0 240 76.5 371t214.5 131q65 0 118.5 -39t100.5 -121v150h254v-981z
M772 1436q-17 -128 -59.5 -186t-116.5 -58q-14 0 -29 2.5t-32 7.5l-76 27q-14 5 -28.5 7.5t-26.5 2.5q-28 0 -45.5 -18t-28.5 -60h-94q20 120 62.5 178t111.5 58q16 0 34.5 -3.5t39.5 -11.5l75 -24q11 -4 22 -6t21 -2q30 0 48.5 20t29.5 66h92z" />
    <glyph glyph-name="adieresis" unicode="&#xe4;" horiz-adv-x="928" 
d="M571 506q0 134 -31.5 199t-97.5 65q-59 0 -85.5 -62.5t-26.5 -203.5q0 -140 29.5 -209.5t89.5 -69.5q64 0 93 67t29 214zM825 0h-254v145q-43 -81 -98.5 -122t-122.5 -41q-140 0 -214.5 130t-74.5 377q0 240 76.5 371t214.5 131q65 0 118.5 -39t100.5 -121v150h254v-981z
M221 1296q0 48 36 83.5t83 35.5q49 0 85 -35.5t36 -83.5q0 -50 -35 -85t-86 -35q-49 0 -84 35.5t-35 84.5zM549 1296q0 48 35.5 83.5t83.5 35.5q49 0 85 -35.5t36 -83.5q0 -50 -35 -85t-86 -35q-49 0 -84 35.5t-35 84.5z" />
    <glyph glyph-name="aring" unicode="&#xe5;" horiz-adv-x="928" 
d="M391 1259q0 -41 30.5 -70.5t72.5 -29.5q40 0 70 30t30 71t-29.5 71.5t-70.5 30.5q-42 0 -71.5 -29.5t-31.5 -73.5zM270 1260q0 93 65.5 158t158.5 65q92 0 156.5 -65t64.5 -158t-64.5 -157.5t-156.5 -64.5q-93 0 -158.5 65t-65.5 157zM825 0h-258v145q-40 -81 -94.5 -122
t-122.5 -41q-140 0 -214.5 130t-74.5 377q0 240 76.5 371t214.5 131q66 0 119 -39.5t96 -120.5v150h258v-981zM567 506q0 137 -30 200.5t-95 63.5q-59 0 -85.5 -62.5t-26.5 -203.5q0 -140 29.5 -209.5t89.5 -69.5q62 0 90 65.5t28 215.5z" />
    <glyph glyph-name="ae" unicode="&#xe6;" horiz-adv-x="1401" 
d="M1122 572q-2 107 -38 158.5t-109 51.5q-72 0 -111 -52.5t-39 -149.5v-9zM422 170q66 0 100.5 30.5t34.5 88.5t-34 87.5t-101 29.5q-68 0 -101.5 -29.5t-33.5 -87.5q0 -59 34 -89t101 -30zM825 420v-10q0 -107 42 -166.5t116 -59.5q46 0 78.5 27.5t52.5 83.5h234
q-33 -147 -133 -230t-244 -83q-97 0 -169 34.5t-134 110.5q-56 -74 -128 -109.5t-165 -35.5q-157 0 -248.5 85t-91.5 230q0 130 78.5 209.5t205.5 79.5q58 0 112.5 -12t110.5 -37q3 24 4 36.5t1 20.5q0 97 -48.5 142.5t-152.5 45.5q-53 0 -109 -16.5t-118 -50.5v233
q75 26 144 38.5t130 12.5q100 0 172.5 -33.5t118.5 -101.5q50 67 122.5 101t164.5 34q194 0 292.5 -134.5t98.5 -399.5v-45h-537z" />
    <glyph glyph-name="ccedilla" unicode="&#xe7;" horiz-adv-x="651" 
d="M614 702q-32 24 -62 35t-60 11q-78 0 -124 -67.5t-46 -182.5q0 -121 46.5 -186.5t131.5 -65.5q32 0 60 12.5t54 38.5v-258q-42 -29 -88.5 -43t-97.5 -14q-172 0 -273.5 137t-101.5 373q0 233 102 370t273 137q49 0 95 -9.5t91 -28.5v-259zM161 -438v129q64 -21 118.5 -32
t92.5 -11q43 0 64.5 18.5t21.5 54.5q0 37 -26 53.5t-82 16.5q-16 0 -25.5 -0.5t-17.5 -1.5v211h96v-90h12q99 0 149 -48t50 -143q0 -100 -57 -150t-170 -50q-43 0 -100.5 11t-125.5 32z" />
    <glyph glyph-name="egrave" unicode="&#xe8;" horiz-adv-x="877" 
d="M600 574q-3 107 -38.5 158.5t-106.5 51.5q-70 0 -107 -54t-37 -157zM311 418v-8q0 -110 39 -169t111 -59q46 0 78.5 28t52.5 85h233q-32 -147 -132.5 -230t-246.5 -83q-183 0 -291 137t-108 370q0 236 108 373t291 137q194 0 293 -135t99 -399v-47h-527zM161 1485h246
l187 -371h-134z" />
    <glyph glyph-name="eacute" unicode="&#xe9;" horiz-adv-x="877" 
d="M600 574q-3 107 -38.5 158.5t-106.5 51.5q-70 0 -107 -54t-37 -157zM311 418v-8q0 -110 39 -169t111 -59q46 0 78.5 28t52.5 85h233q-32 -147 -132.5 -230t-246.5 -83q-183 0 -291 137t-108 370q0 236 108 373t291 137q194 0 293 -135t99 -399v-47h-527zM727 1485
l-299 -371h-134l187 371h246z" />
    <glyph glyph-name="ecircumflex" unicode="&#xea;" horiz-adv-x="877" 
d="M600 574q-3 107 -38.5 158.5t-106.5 51.5q-70 0 -107 -54t-37 -157zM311 418v-8q0 -110 39 -169t111 -59q46 0 78.5 28t52.5 85h233q-32 -147 -132.5 -230t-246.5 -83q-183 0 -291 137t-108 370q0 236 108 373t291 137q194 0 293 -135t99 -399v-47h-527zM176 1114
l168 371h200l168 -371h-121l-147 217l-147 -217h-121z" />
    <glyph glyph-name="edieresis" unicode="&#xeb;" horiz-adv-x="877" 
d="M600 574q-3 107 -38.5 158.5t-106.5 51.5q-70 0 -107 -54t-37 -157zM311 418v-8q0 -110 39 -169t111 -59q46 0 78.5 28t52.5 85h233q-32 -147 -132.5 -230t-246.5 -83q-183 0 -291 137t-108 370q0 236 108 373t291 137q194 0 293 -135t99 -399v-47h-527zM161 1296
q0 48 36 83.5t83 35.5q49 0 85 -35.5t36 -83.5q0 -50 -35 -85t-86 -35q-49 0 -84 35.5t-35 84.5zM489 1296q0 48 35.5 83.5t83.5 35.5q49 0 85 -35.5t36 -83.5q0 -50 -35 -85t-86 -35q-49 0 -84 35.5t-35 84.5z" />
    <glyph glyph-name="igrave" unicode="&#xec;" horiz-adv-x="483" 
d="M106 0v981h271v-981h-271zM-41 1485h246l187 -371h-134z" />
    <glyph glyph-name="iacute" unicode="&#xed;" horiz-adv-x="483" 
d="M106 0v981h271v-981h-271zM525 1485l-299 -371h-134l187 371h246z" />
    <glyph glyph-name="icircumflex" unicode="&#xee;" horiz-adv-x="483" 
d="M106 0v981h271v-981h-271zM-26 1114l168 371h200l168 -371h-121l-147 217l-147 -217h-121z" />
    <glyph glyph-name="idieresis" unicode="&#xef;" horiz-adv-x="483" 
d="M106 0v981h271v-981h-271zM-41 1296q0 48 36 83.5t83 35.5q49 0 85 -35.5t36 -83.5q0 -50 -35 -85t-86 -35q-49 0 -84 35.5t-35 84.5zM287 1296q0 48 35.5 83.5t83.5 35.5q49 0 85 -35.5t36 -83.5q0 -50 -35 -85t-86 -35q-49 0 -84 35.5t-35 84.5z" />
    <glyph glyph-name="eth" unicode="&#xf0;" horiz-adv-x="909" 
d="M528 983q-25 66 -46.5 117t-43.5 94l-200 -94l-62 133l195 88q-51 94 -77.5 139t-51.5 82h264q19 -38 35.5 -68t33.5 -57l160 74l60 -131l-150 -70q114 -219 166.5 -405t52.5 -365q0 -254 -108 -396t-301 -142q-187 0 -297.5 137.5t-110.5 372.5q0 230 110 368.5
t292 138.5q21 0 41 -4t38 -12zM455 219q72 0 111.5 71.5t39.5 203.5q0 131 -39.5 202.5t-111.5 71.5t-111 -71t-39 -203q0 -133 39 -204t111 -71z" />
    <glyph glyph-name="ntilde" unicode="&#xf1;" horiz-adv-x="915" 
d="M553 0v594q0 84 -20 115.5t-68 31.5q-52 0 -75 -37t-23 -122v-582h-271v981h252v-152q53 82 119.5 122t150.5 40q115 0 160 -65t45 -256v-670h-270zM727 1436q-17 -128 -59.5 -186t-116.5 -58q-14 0 -29 2.5t-32 7.5l-76 27q-14 5 -28.5 7.5t-26.5 2.5q-28 0 -45.5 -18
t-28.5 -60h-94q20 120 62.5 178t111.5 58q16 0 34.5 -3.5t39.5 -11.5l75 -24q11 -4 22 -6t21 -2q30 0 48.5 20t29.5 66h92z" />
    <glyph glyph-name="ograve" unicode="&#xf2;" horiz-adv-x="909" 
d="M455 219q72 0 111.5 71.5t39.5 203.5q0 131 -39.5 202.5t-111.5 71.5t-111 -71t-39 -203q0 -133 39 -204t111 -71zM864 492q0 -234 -111.5 -372t-297.5 -138q-187 0 -297.5 137.5t-110.5 372.5q0 233 110.5 370t297.5 137t298 -137.5t111 -369.5zM172 1485h246l187 -371
h-134z" />
    <glyph glyph-name="oacute" unicode="&#xf3;" horiz-adv-x="909" 
d="M455 219q72 0 111.5 71.5t39.5 203.5q0 131 -39.5 202.5t-111.5 71.5t-111 -71t-39 -203q0 -133 39 -204t111 -71zM864 492q0 -234 -111.5 -372t-297.5 -138q-187 0 -297.5 137.5t-110.5 372.5q0 233 110.5 370t297.5 137t298 -137.5t111 -369.5zM738 1485l-299 -371
h-134l187 371h246z" />
    <glyph glyph-name="ocircumflex" unicode="&#xf4;" horiz-adv-x="909" 
d="M455 219q72 0 111.5 71.5t39.5 203.5q0 131 -39.5 202.5t-111.5 71.5t-111 -71t-39 -203q0 -133 39 -204t111 -71zM864 492q0 -234 -111.5 -372t-297.5 -138q-187 0 -297.5 137.5t-110.5 372.5q0 233 110.5 370t297.5 137t298 -137.5t111 -369.5zM187 1114l168 371h200
l168 -371h-121l-147 217l-147 -217h-121z" />
    <glyph glyph-name="otilde" unicode="&#xf5;" horiz-adv-x="909" 
d="M455 219q72 0 111.5 71.5t39.5 203.5q0 131 -39.5 202.5t-111.5 71.5t-111 -71t-39 -203q0 -133 39 -204t111 -71zM864 492q0 -234 -111.5 -372t-297.5 -138q-187 0 -297.5 137.5t-110.5 372.5q0 233 110.5 370t297.5 137t298 -137.5t111 -369.5zM723 1436
q-17 -128 -59.5 -186t-116.5 -58q-14 0 -29 2.5t-32 7.5l-76 27q-14 5 -28.5 7.5t-26.5 2.5q-28 0 -45.5 -18t-28.5 -60h-94q20 120 62.5 178t111.5 58q16 0 34.5 -3.5t39.5 -11.5l75 -24q11 -4 22 -6t21 -2q30 0 48.5 20t29.5 66h92z" />
    <glyph glyph-name="odieresis" unicode="&#xf6;" horiz-adv-x="909" 
d="M455 219q72 0 111.5 71.5t39.5 203.5q0 131 -39.5 202.5t-111.5 71.5t-111 -71t-39 -203q0 -133 39 -204t111 -71zM864 492q0 -234 -111.5 -372t-297.5 -138q-187 0 -297.5 137.5t-110.5 372.5q0 233 110.5 370t297.5 137t298 -137.5t111 -369.5zM172 1296q0 48 36 83.5
t83 35.5q49 0 85 -35.5t36 -83.5q0 -50 -35 -85t-86 -35q-49 0 -84 35.5t-35 84.5zM500 1296q0 48 35.5 83.5t83.5 35.5q49 0 85 -35.5t36 -83.5q0 -50 -35 -85t-86 -35q-49 0 -84 35.5t-35 84.5z" />
    <glyph glyph-name="divide" unicode="&#xf7;" horiz-adv-x="1706" 
d="M854 367q57 0 97 -40.5t40 -97.5q0 -56 -39.5 -95.5t-97.5 -39.5t-97.5 39t-39.5 96t40.5 97.5t96.5 40.5zM254 694h1198v-166h-1198v166zM854 1128q57 0 97 -41t40 -98q0 -56 -39.5 -95.5t-97.5 -39.5t-97.5 39t-39.5 96t40.5 98t96.5 41z" />
    <glyph glyph-name="oslash" unicode="&#xf8;" horiz-adv-x="909" 
d="M530 748q-16 13 -35 19.5t-42 6.5q-73 0 -112.5 -74t-39.5 -211q0 -49 4.5 -86.5t14.5 -68.5zM377 242q15 -15 33.5 -22t44.5 -7q74 0 114.5 73t40.5 208q0 47 -5 86t-15 73zM123 -59l70 139q-71 66 -108.5 168t-37.5 229q0 244 109.5 384t298.5 140q53 0 98 -10.5
t84 -32.5l57 117l82 -45l-61 -127q76 -77 112.5 -176.5t36.5 -234.5q0 -234 -111.5 -372t-297.5 -138q-53 0 -98 10t-87 31l-65 -127z" />
    <glyph glyph-name="ugrave" unicode="&#xf9;" horiz-adv-x="903" 
d="M811 981v-508q0 -294 -77.5 -392.5t-280.5 -98.5q-204 0 -282.5 98t-78.5 393v508h264v-631q0 -77 21 -104t74 -27t74.5 28t21.5 103v631h264zM170 1485h246l187 -371h-134z" />
    <glyph glyph-name="uacute" unicode="&#xfa;" horiz-adv-x="903" 
d="M811 981v-508q0 -294 -77.5 -392.5t-280.5 -98.5q-204 0 -282.5 98t-78.5 393v508h264v-631q0 -77 21 -104t74 -27t74.5 28t21.5 103v631h264zM736 1485l-299 -371h-134l187 371h246z" />
    <glyph glyph-name="ucircumflex" unicode="&#xfb;" horiz-adv-x="903" 
d="M811 981v-508q0 -294 -77.5 -392.5t-280.5 -98.5q-204 0 -282.5 98t-78.5 393v508h264v-631q0 -77 21 -104t74 -27t74.5 28t21.5 103v631h264zM185 1114l168 371h200l168 -371h-121l-147 217l-147 -217h-121z" />
    <glyph glyph-name="udieresis" unicode="&#xfc;" horiz-adv-x="903" 
d="M811 981v-508q0 -294 -77.5 -392.5t-280.5 -98.5q-204 0 -282.5 98t-78.5 393v508h264v-631q0 -77 21 -104t74 -27t74.5 28t21.5 103v631h264zM170 1296q0 48 36 83.5t83 35.5q49 0 85 -35.5t36 -83.5q0 -50 -35 -85t-86 -35q-49 0 -84 35.5t-35 84.5zM498 1296
q0 48 35.5 83.5t83.5 35.5q49 0 85 -35.5t36 -83.5q0 -50 -35 -85t-86 -35q-49 0 -84 35.5t-35 84.5z" />
    <glyph glyph-name="yacute" unicode="&#xfd;" horiz-adv-x="758" 
d="M135 -395l121 395l-254 981h266l95 -435q8 -41 13.5 -88t6.5 -95q13 107 18.5 143t10.5 58l90 417h266l-369 -1376h-264zM662 1485l-299 -371h-134l187 371h246z" />
    <glyph glyph-name="thorn" unicode="&#xfe;" horiz-adv-x="928" 
d="M483 770q-63 0 -92 -62t-29 -202q0 -153 27.5 -218t89.5 -65q60 0 88.5 69.5t28.5 217.5q0 137 -27 198.5t-86 61.5zM102 -395v1945h260v-708q42 74 95.5 111.5t117.5 37.5q140 0 214.5 -130.5t74.5 -375.5q0 -242 -74 -375t-208 -133q-71 0 -127 42.5t-93 123.5v-538
h-260z" />
    <glyph glyph-name="ydieresis" unicode="&#xff;" horiz-adv-x="758" 
d="M135 -395l121 395l-254 981h266l95 -435q8 -41 13.5 -88t6.5 -95q13 107 18.5 143t10.5 58l90 417h266l-369 -1376h-264zM96 1296q0 48 36 83.5t83 35.5q49 0 85 -35.5t36 -83.5q0 -50 -35 -85t-86 -35q-49 0 -84 35.5t-35 84.5zM424 1296q0 48 35.5 83.5t83.5 35.5
q49 0 85 -35.5t36 -83.5q0 -50 -35 -85t-86 -35q-49 0 -84 35.5t-35 84.5z" />
    <glyph glyph-name="Cacute" unicode="&#x106;" horiz-adv-x="932" 
d="M866 16q-42 -17 -84.5 -25.5t-85.5 -8.5q-279 0 -453.5 203t-174.5 532q0 342 170.5 552t445.5 210q51 0 96 -8.5t86 -26.5v-273q-42 17 -81.5 25t-77.5 8q-146 0 -237 -129t-91 -342q0 -205 93.5 -332t240.5 -127q37 0 75.5 9t77.5 26v-293zM912 1964l-299 -371h-134
l187 371h246z" />
    <glyph glyph-name="cacute" unicode="&#x107;" horiz-adv-x="651" 
d="M614 702q-32 24 -62 35t-60 11q-78 0 -124 -67.5t-46 -182.5q0 -121 46.5 -186.5t131.5 -65.5q32 0 60 12.5t54 38.5v-258q-42 -29 -88.5 -43t-97.5 -14q-172 0 -273.5 137t-101.5 373q0 233 102 370t273 137q49 0 95 -9.5t91 -28.5v-259zM709 1485l-299 -371h-134
l187 371h246z" />
    <glyph glyph-name="Ccaron" unicode="&#x10c;" horiz-adv-x="932" 
d="M866 16q-42 -17 -84.5 -25.5t-85.5 -8.5q-279 0 -453.5 203t-174.5 532q0 342 170.5 552t445.5 210q51 0 96 -8.5t86 -26.5v-273q-42 17 -81.5 25t-77.5 8q-146 0 -237 -129t-91 -342q0 -205 93.5 -332t240.5 -127q37 0 75.5 9t77.5 26v-293zM361 1964h121l147 -219
l147 219h121l-168 -371h-200z" />
    <glyph glyph-name="ccaron" unicode="&#x10d;" horiz-adv-x="651" 
d="M614 702q-32 24 -62 35t-60 11q-78 0 -124 -67.5t-46 -182.5q0 -121 46.5 -186.5t131.5 -65.5q32 0 60 12.5t54 38.5v-258q-42 -29 -88.5 -43t-97.5 -14q-172 0 -273.5 137t-101.5 373q0 233 102 370t273 137q49 0 95 -9.5t91 -28.5v-259zM158 1485h121l147 -219l147 219
h121l-168 -371h-200z" />
    <glyph glyph-name="dcroat" unicode="&#x111;" horiz-adv-x="936" 
d="M563 842v303h-209v180h209v225h262v-225h125v-180h-125v-1145h-262v143q-38 -82 -92.5 -122.5t-126.5 -40.5q-135 0 -209 132.5t-74 376.5q0 240 76.5 371t214.5 131q64 0 116 -36.5t95 -112.5zM563 506q0 141 -28.5 203.5t-92.5 62.5q-59 0 -85.5 -63.5t-26.5 -204.5
t29.5 -211t89.5 -70q61 0 87.5 64.5t26.5 218.5z" />
    <glyph glyph-name="Gbreve" unicode="&#x11e;" horiz-adv-x="1139" 
d="M528 825h543q0 -11 1 -33.5t1 -33.5q0 -366 -134.5 -571t-371.5 -205q-231 0 -366 200.5t-135 546.5q0 349 140 549.5t382 200.5q164 0 278.5 -96t167.5 -279l-262 -121q-17 109 -64.5 163t-125.5 54q-117 0 -171.5 -113.5t-54.5 -357.5q0 -233 57.5 -353t168.5 -120
q97 0 151.5 81.5t54.5 229.5h-260v258zM299 1929h106q8 -78 46.5 -112.5t117.5 -34.5q80 0 119 34.5t45 112.5h106q0 -152 -67.5 -227.5t-202.5 -75.5q-133 0 -201.5 75t-68.5 222v6z" />
    <glyph glyph-name="gbreve" unicode="&#x11f;" horiz-adv-x="928" 
d="M563 981h262v-907q0 -315 -83.5 -421t-301.5 -106q-172 0 -267 89.5t-95 250.5v15h229q0 -71 32.5 -106.5t96.5 -35.5q70 0 98.5 36.5t28.5 129.5v203q-47 -69 -100.5 -104t-112.5 -35q-140 0 -214.5 129t-74.5 373q0 239 76 369t215 130q66 0 118.5 -39.5t92.5 -120.5
v150zM563 506q0 143 -28 204.5t-93 61.5q-59 0 -85.5 -63t-26.5 -205q0 -141 29.5 -211t89.5 -70q61 0 87.5 64.5t26.5 218.5zM195 1450h106q8 -78 46.5 -112.5t117.5 -34.5q80 0 119 34.5t45 112.5h106q0 -152 -67.5 -227.5t-202.5 -75.5q-133 0 -201.5 75t-68.5 222v6z
" />
    <glyph glyph-name="Idotaccent" unicode="&#x130;" horiz-adv-x="553" 
d="M127 0v1460h297v-1460h-297zM147 1775q0 51 39.5 91t89.5 40q52 0 91.5 -39t39.5 -92t-38.5 -91t-92.5 -38q-52 0 -90.5 38.5t-38.5 90.5z" />
    <glyph glyph-name="dotlessi" unicode="&#x131;" horiz-adv-x="483" 
d="M106 0v981h271v-981h-271z" />
    <glyph glyph-name="Lslash" unicode="&#x141;" horiz-adv-x="748" 
d="M127 0v569l-127 -90v279l127 88v614h291v-459l207 148v-279l-207 -147v-438h332v-285h-623z" />
    <glyph glyph-name="lslash" unicode="&#x142;" horiz-adv-x="512" 
d="M121 557l-121 -84v211l121 84v782h270v-659l121 86v-211l-121 -86v-680h-270v557z" />
    <glyph glyph-name="OE" unicode="&#x152;" horiz-adv-x="1479" 
d="M592 262q101 0 155 114t54 331q0 259 -50 376t-159 117q-104 0 -155.5 -116.5t-51.5 -352.5q0 -248 49 -358.5t158 -110.5zM801 123q-44 -69 -111.5 -103t-157.5 -34q-202 0 -326 203.5t-124 541.5q0 358 129 553t367 195q81 0 139.5 -36t95.5 -108v125h602v-282h-340
v-297h295v-269h-295v-327h340v-285h-614v123z" />
    <glyph glyph-name="oe" unicode="&#x153;" horiz-adv-x="1434" 
d="M457 219q72 0 111.5 71.5t39.5 203.5q0 133 -39 203.5t-112 70.5t-112.5 -71.5t-39.5 -202.5q0 -132 39.5 -203.5t112.5 -71.5zM1157 572q-2 107 -38.5 158.5t-110.5 51.5q-72 0 -110 -54.5t-38 -156.5zM860 420v-8q0 -107 42 -167.5t116 -60.5q45 0 77.5 28t53.5 83h233
q-32 -147 -132.5 -230t-243.5 -83q-89 0 -155 27.5t-118 86.5q-55 -57 -125 -85.5t-153 -28.5q-187 0 -297.5 137t-110.5 370q0 235 110.5 372.5t297.5 137.5q89 0 157.5 -28t118.5 -86q51 56 120 85t155 29q194 0 292.5 -133.5t98.5 -398.5v-47h-537z" />
    <glyph glyph-name="Scedilla" unicode="&#x15e;" horiz-adv-x="786" 
d="M70 51v303q55 -48 108 -72t107 -24q74 0 116.5 39t42.5 106q0 83 -115 180q-32 27 -48 42q-134 120 -184 215.5t-50 216.5q0 189 106.5 305.5t278.5 116.5q61 0 120.5 -17.5t125.5 -54.5v-258q-77 37 -119.5 51t-75.5 14q-63 0 -103 -39.5t-40 -103.5q0 -56 30 -104.5
t140 -143.5q147 -126 189 -209.5t42 -201.5q0 -199 -112.5 -314.5t-306.5 -115.5q-74 0 -136.5 17t-115.5 52zM155 -438v129q64 -21 118.5 -32t92.5 -11q43 0 64.5 18.5t21.5 54.5q0 37 -26 53.5t-82 16.5q-16 0 -25.5 -0.5t-17.5 -1.5v211h96v-90h12q99 0 149 -48t50 -143
q0 -100 -57 -150t-170 -50q-43 0 -100.5 11t-125.5 32z" />
    <glyph glyph-name="scedilla" unicode="&#x15f;" horiz-adv-x="686" 
d="M27 84l112 199q50 -33 87 -48.5t67 -15.5q31 0 51.5 20t20.5 50q0 52 -100 114q-26 16 -40 25q-96 65 -135 126.5t-39 145.5q0 138 86 218.5t232 80.5q73 0 139.5 -20.5t128.5 -63.5l-115 -194q-39 33 -72.5 49t-62.5 16q-33 0 -53.5 -18t-20.5 -47q0 -43 93 -100
q29 -18 45 -29q104 -72 145 -136.5t41 -152.5q0 -143 -94 -232t-246 -89q-74 0 -141 25t-129 77zM106 -438v129q64 -21 118.5 -32t92.5 -11q43 0 64.5 18.5t21.5 54.5q0 37 -26 53.5t-82 16.5q-16 0 -25.5 -0.5t-17.5 -1.5v211h96v-90h12q99 0 149 -48t50 -143
q0 -100 -57 -150t-170 -50q-43 0 -100.5 11t-125.5 32z" />
    <glyph glyph-name="Scaron" unicode="&#x160;" horiz-adv-x="786" 
d="M70 51v303q55 -48 108 -72t107 -24q74 0 116.5 39t42.5 106q0 83 -115 180q-32 27 -48 42q-134 120 -184 215.5t-50 216.5q0 189 106.5 305.5t278.5 116.5q61 0 120.5 -17.5t125.5 -54.5v-258q-77 37 -119.5 51t-75.5 14q-63 0 -103 -39.5t-40 -103.5q0 -56 30 -104.5
t140 -143.5q147 -126 189 -209.5t42 -201.5q0 -199 -112.5 -314.5t-306.5 -115.5q-74 0 -136.5 17t-115.5 52zM125 1964h121l147 -219l147 219h121l-168 -371h-200z" />
    <glyph glyph-name="scaron" unicode="&#x161;" horiz-adv-x="686" 
d="M27 84l112 199q50 -33 87 -48.5t67 -15.5q31 0 51.5 20t20.5 50q0 52 -100 114q-26 16 -40 25q-96 65 -135 126.5t-39 145.5q0 138 86 218.5t232 80.5q73 0 139.5 -20.5t128.5 -63.5l-115 -194q-39 33 -72.5 49t-62.5 16q-33 0 -53.5 -18t-20.5 -47q0 -43 93 -100
q29 -18 45 -29q104 -72 145 -136.5t41 -152.5q0 -143 -94 -232t-246 -89q-74 0 -141 25t-129 77zM76 1485h121l147 -219l147 219h121l-168 -371h-200z" />
    <glyph glyph-name="Ydieresis" unicode="&#x178;" horiz-adv-x="801" 
d="M254 0v686l-338 774h307l96 -264q27 -71 49 -141.5t42 -143.5q18 81 39 151t43 126l106 272h285l-340 -774v-686h-289zM118 1775q0 48 36 83.5t83 35.5q49 0 85 -35.5t36 -83.5q0 -50 -35 -85t-86 -35q-49 0 -84 35.5t-35 84.5zM446 1775q0 48 35.5 83.5t83.5 35.5
q49 0 85 -35.5t36 -83.5q0 -50 -35 -85t-86 -35q-49 0 -84 35.5t-35 84.5z" />
    <glyph glyph-name="Zcaron" unicode="&#x17d;" horiz-adv-x="877" 
d="M-16 0l471 1192h-402v268h795l-465 -1175h424v-285h-823zM170 1964h121l147 -219l147 219h121l-168 -371h-200z" />
    <glyph glyph-name="zcaron" unicode="&#x17e;" horiz-adv-x="674" 
d="M18 0l283 762h-260v219h610l-278 -745h258v-236h-613zM70 1485h121l147 -219l147 219h121l-168 -371h-200z" />
    <glyph glyph-name="florin" unicode="&#x192;" 
d="M295 670h-170l33 213h172l49 315q23 146 95 212.5t206 66.5q37 0 77 -6.5t85 -18.5l-37 -231l-15 3q-46 9 -61 9q-37 0 -55 -23t-29 -96l-37 -231h178l-32 -213h-179l-114 -719q-34 -220 -101 -313t-188 -93q-36 0 -80 7t-94 20l35 227q22 -6 33 -8t20 -2q40 0 59.5 25.5
t32.5 113.5z" />
    <glyph glyph-name="circumflex" unicode="&#x2c6;" horiz-adv-x="1024" 
d="M244 1114l168 371h200l168 -371h-121l-147 217l-147 -217h-121z" />
    <glyph glyph-name="caron" unicode="&#x2c7;" horiz-adv-x="1024" 
d="M244 1485h121l147 -219l147 219h121l-168 -371h-200z" />
    <glyph glyph-name="breve" unicode="&#x2d8;" horiz-adv-x="1024" 
d="M242 1450h106q8 -78 46.5 -112.5t117.5 -34.5q80 0 119 34.5t45 112.5h106q0 -152 -67.5 -227.5t-202.5 -75.5q-133 0 -201.5 75t-68.5 222v6z" />
    <glyph glyph-name="dotaccent" unicode="&#x2d9;" horiz-adv-x="1024" 
d="M383 1296q0 51 39.5 91t89.5 40q52 0 91.5 -39t39.5 -92t-38.5 -91t-92.5 -38q-52 0 -90.5 38.5t-38.5 90.5z" />
    <glyph glyph-name="ring" unicode="&#x2da;" horiz-adv-x="1024" 
d="M387 1360q0 -54 35.5 -89.5t89.5 -35.5q53 0 90 36t37 89q0 52 -37.5 89.5t-89.5 37.5t-88.5 -37t-36.5 -90zM248 1362q0 111 76.5 187.5t187.5 76.5q112 0 189 -76.5t77 -187.5q0 -112 -77 -189t-189 -77t-188 76.5t-76 189.5z" />
    <glyph glyph-name="ogonek" unicode="&#x2db;" horiz-adv-x="1024" 
d="M616 0q-54 -49 -82 -101.5t-28 -103.5q0 -43 17.5 -61.5t60.5 -18.5h78v-174h-93q-102 0 -154.5 46.5t-52.5 138.5q0 71 39.5 136t126.5 138h88z" />
    <glyph glyph-name="tilde" unicode="&#x2dc;" horiz-adv-x="1024" 
d="M780 1436q-17 -128 -59.5 -186t-116.5 -58q-14 0 -29 2.5t-32 7.5l-76 27q-14 5 -28.5 7.5t-26.5 2.5q-28 0 -45.5 -18t-28.5 -60h-94q20 120 62.5 178t111.5 58q16 0 34.5 -3.5t39.5 -11.5l75 -24q11 -4 22 -6t21 -2q30 0 48.5 20t29.5 66h92z" />
    <glyph glyph-name="hungarumlaut" unicode="&#x2dd;" horiz-adv-x="1024" 
d="M563 1114l131 371h217l-233 -371h-115zM313 1114l95 371h208l-196 -371h-107z" />
    <glyph glyph-name="Omega" unicode="&#x3a9;" horiz-adv-x="1569" 
d="M1194 213h305v-213h-602v229q160 94 242 244.5t82 351.5q0 210 -121 341.5t-316 131.5q-197 0 -316.5 -132.5t-119.5 -352.5q0 -191 84 -342t240 -242v-229h-602v213h305q-144 130 -211.5 274t-67.5 322q0 314 190.5 508t497.5 194q303 0 496 -192.5t193 -493.5
q0 -190 -65.5 -333t-213.5 -279z" />
    <glyph glyph-name="pi" unicode="&#x3c0;" horiz-adv-x="1368" 
d="M360 889h-45q-54 0 -83.5 -31.5t-39.5 -99.5h-174q28 187 100 255t242 68h953l-39 -192h-193l-84 -437q-2 -13 -8 -41q-22 -113 -22 -147q0 -58 23 -82t77 -24q18 0 42.5 2.5t59.5 7.5l-34 -168q-29 -8 -61 -12t-75 -4q-139 0 -202.5 48t-63.5 154q0 77 52 344l1 6
l70 353h-268l-174 -889h-226z" />
    <glyph glyph-name="endash" unicode="&#x2013;" horiz-adv-x="1024" 
d="M0 367v247h1024v-247h-1024z" />
    <glyph glyph-name="emdash" unicode="&#x2014;" horiz-adv-x="2048" 
d="M0 367v247h2048v-247h-2048z" />
    <glyph glyph-name="quoteleft" unicode="&#x2018;" horiz-adv-x="516" 
d="M33 854l248 606h202l-164 -606h-286z" />
    <glyph glyph-name="quoteright" unicode="&#x2019;" horiz-adv-x="516" 
d="M33 854l164 606h286l-247 -606h-203z" />
    <glyph glyph-name="quotesinglbase" unicode="&#x201a;" horiz-adv-x="516" 
d="M33 -281l164 607h286l-247 -607h-203z" />
    <glyph glyph-name="quotedblleft" unicode="&#x201c;" 
d="M868 1460l-163 -606h-289l250 606h202zM483 1460l-164 -606h-286l248 606h202z" />
    <glyph glyph-name="quotedblright" unicode="&#x201d;" 
d="M33 854l162 606h288l-247 -606h-203zM416 854l164 606h288l-247 -606h-205z" />
    <glyph glyph-name="quotedblbase" unicode="&#x201e;" 
d="M33 -281l162 607h288l-247 -607h-203zM416 -281l164 607h288l-247 -607h-205z" />
    <glyph glyph-name="dagger" unicode="&#x2020;" 
d="M313 -395v1134h-252v256h252v465h275v-465h252v-256h-252v-1134h-275z" />
    <glyph glyph-name="daggerdbl" unicode="&#x2021;" 
d="M317 -395v432h-266v252h266v497h-266v252h266v422h267v-422h264v-252h-264v-497h264v-252h-264v-432h-267z" />
    <glyph glyph-name="bullet" unicode="&#x2022;" horiz-adv-x="1208" 
d="M307 762q0 123 87 209t210 86q122 0 208.5 -86.5t86.5 -208.5t-87.5 -209.5t-209.5 -87.5q-123 0 -209 87t-86 210z" />
    <glyph glyph-name="ellipsis" unicode="&#x2026;" horiz-adv-x="2048" 
d="M518 166q0 -76 -50.5 -127t-125.5 -51q-74 0 -125 51t-51 127q0 75 51 125.5t125 50.5t125 -50.5t51 -125.5zM1200 166q0 -76 -50.5 -127t-125.5 -51q-74 0 -125 51t-51 127q0 75 51 125.5t125 50.5t125 -50.5t51 -125.5zM1884 166q0 -76 -50.5 -127t-125.5 -51
q-74 0 -125 51t-51 127q0 75 51 125.5t125 50.5t125 -50.5t51 -125.5z" />
    <glyph glyph-name="perthousand" unicode="&#x2030;" horiz-adv-x="2361" 
d="M385 -18l725 1497h162l-721 -1497h-166zM1909 418q0 -148 19.5 -201t68.5 -53q47 0 66.5 53t19.5 201q0 150 -19.5 204t-68.5 54q-48 0 -67 -54t-19 -204zM2286 420q0 -214 -75 -326t-216 -112t-216 112.5t-75 325.5q0 214 74.5 327t216.5 113q141 0 216 -113t75 -327z
M1212 418q0 -151 19 -202.5t67 -51.5q49 0 68.5 54.5t19.5 199.5q0 150 -19.5 204t-68.5 54q-47 0 -66.5 -54t-19.5 -204zM1589 420q0 -214 -74.5 -326t-216.5 -112q-140 0 -215 112.5t-75 325.5q0 214 74.5 327t215.5 113q142 0 216.5 -112.5t74.5 -327.5zM276 1042
q0 -148 20 -201t69 -53q47 0 66.5 53.5t19.5 200.5q0 153 -19 204.5t-67 51.5q-49 0 -69 -54.5t-20 -201.5zM655 1038q0 -214 -74.5 -326t-215.5 -112t-216 112.5t-75 325.5q0 214 74.5 327.5t216.5 113.5q141 0 215.5 -113.5t74.5 -327.5z" />
    <glyph glyph-name="guilsinglleft" unicode="&#x2039;" horiz-adv-x="463" 
d="M432 135l-149 -84l-252 449l252 428l149 -84l-199 -344z" />
    <glyph glyph-name="guilsinglright" unicode="&#x203a;" horiz-adv-x="463" 
d="M31 135l196 365l-196 344l149 84l252 -428l-252 -449z" />
    <glyph glyph-name="franc" unicode="&#x20a3;" horiz-adv-x="1386" 
d="M115 0v1460h630v-270h-348v-303h318v-269h-318v-618h-282zM899 0v981h252v-174q33 96 88 143.5t133 48.5v-258h-18q-107 0 -145.5 -50.5t-38.5 -229.5v-461h-271z" />
    <glyph glyph-name="trademark" unicode="&#x2122;" horiz-adv-x="1706" 
d="M809 1460h170l141 -360l133 360h170v-542h-114v428l-160 -428h-59l-166 428v-428h-115v542zM225 1460h467v-94h-168v-448h-129v448h-170v94z" />
    <glyph glyph-name="partialdiff" unicode="&#x2202;" horiz-adv-x="1075" 
d="M758 639q17 103 26 186.5t9 147.5q0 120 -29 174.5t-92 54.5q-62 0 -147 -58.5t-122 -58.5t-64.5 26t-27.5 60q0 66 79 115t200 49q176 0 287.5 -159t111.5 -422q0 -338 -150 -558.5t-376 -220.5q-161 0 -266 112t-105 286q0 193 113 322.5t278 129.5q101 0 167.5 -45
t107.5 -141zM705 504q0 116 -41 178.5t-117 62.5q-105 0 -174.5 -131.5t-69.5 -337.5q0 -116 40.5 -177.5t117.5 -61.5q105 0 174.5 132.5t69.5 334.5z" />
    <glyph glyph-name="Delta" unicode="&#x2206;" horiz-adv-x="1395" 
d="M698 1196l-379 -983h756zM569 1473h256l574 -1473h-1403z" />
    <glyph glyph-name="product" unicode="&#x220f;" horiz-adv-x="1579" 
d="M154 1473h1267v-1866h-286v1622h-695v-1622h-286v1866z" />
    <glyph glyph-name="summation" unicode="&#x2211;" horiz-adv-x="1421" 
d="M61 1473h1280v-226h-921l647 -684l-661 -729h974v-227h-1347v160l712 786l-684 719v201z" />
    <glyph glyph-name="minus" unicode="&#x2212;" horiz-adv-x="1706" 
d="M254 696h1198v-170h-1198v170z" />
    <glyph glyph-name="fraction" unicode="&#x2215;" horiz-adv-x="342" 
d="M-342 -18l854 1497h170l-854 -1497h-170z" />
    <glyph glyph-name="periodcentered" unicode="&#x2219;" horiz-adv-x="451" 
d="M401 729q0 -75 -50.5 -125.5t-125.5 -50.5t-125.5 50t-50.5 126q0 75 51 125.5t125 50.5t125 -50.5t51 -125.5z" />
    <glyph glyph-name="radical" unicode="&#x221a;" horiz-adv-x="1323" 
d="M1128 1675h197v-110h-108l-594 -1606h-82l-316 872l-131 -49l-28 95l305 108l247 -688z" />
    <glyph glyph-name="infinity" unicode="&#x221e;" horiz-adv-x="1706" 
d="M928 559q45 -81 109.5 -122.5t146.5 -41.5q97 0 159 61.5t62 157.5q0 95 -57 158.5t-142 63.5q-78 0 -142 -63.5t-136 -213.5zM780 662q-46 81 -111 123t-145 42q-98 0 -159.5 -62t-61.5 -159q0 -94 56.5 -156.5t140.5 -62.5q80 0 144.5 62.5t135.5 212.5zM862 471
q-71 -135 -148.5 -197.5t-172.5 -62.5q-137 0 -232.5 114.5t-95.5 284.5q0 179 85 289.5t220 110.5q93 0 168.5 -60t157.5 -200q71 139 149.5 200.5t184.5 61.5q127 0 222 -116t95 -284q0 -178 -84.5 -288.5t-220.5 -110.5q-92 0 -166.5 57.5t-161.5 200.5z" />
    <glyph glyph-name="integral" unicode="&#x222b;" horiz-adv-x="1120" 
d="M324 -258q106 0 122 692q2 81 3 123q13 538 113 766.5t312 228.5q87 0 143 -45.5t56 -111.5q0 -61 -34 -95t-95 -34q-45 0 -74.5 22.5t-40.5 65.5q-4 17 -6 45q-3 40 -26 41q-101 0 -119 -615q-5 -161 -8 -249q-10 -280 -30.5 -427t-59.5 -245q-55 -136 -139.5 -205.5
t-194.5 -69.5q-87 0 -142 44t-55 112q0 63 35.5 97t99.5 34q39 0 66 -18t41 -54q6 -16 9 -59t24 -43z" />
    <glyph glyph-name="approxequal" unicode="&#x2248;" horiz-adv-x="1706" 
d="M1530 592v-186q-107 -73 -200 -106.5t-189 -33.5q-89 0 -279.5 66.5t-298.5 66.5q-84 0 -173.5 -36t-211.5 -121v184q112 75 206.5 110t180.5 35q118 0 309 -67.5t277 -67.5q83 0 172 36.5t207 119.5zM1530 979v-184q-109 -75 -201.5 -108.5t-187.5 -33.5
q-88 0 -278.5 67.5t-299.5 67.5q-82 0 -170 -35t-215 -122v184q109 73 205 109.5t182 36.5q120 0 310 -68t268 -68q92 0 181 35t206 119z" />
    <glyph glyph-name="notequal" unicode="&#x2260;" horiz-adv-x="1706" 
d="M1204 1212l123 -100l-170 -215h295v-162h-403l-197 -250h600v-161h-707l-249 -314l-123 99l170 215h-289v161h393l199 250h-592v162h700z" />
    <glyph glyph-name="lessequal" unicode="&#x2264;" horiz-adv-x="1706" 
d="M260 178h1186v-166h-1186v166zM1446 1223v-176l-889 -287l889 -287v-176l-1186 389v145z" />
    <glyph glyph-name="greaterequal" unicode="&#x2265;" horiz-adv-x="1706" 
d="M260 178h1188v-166h-1188v166zM260 1223l1186 -392v-145l-1186 -389v176l891 287l-891 287v176z" />
    <glyph glyph-name="lozenge" unicode="&#x25ca;" horiz-adv-x="1012" 
d="M506 1409l-385 -817l385 -825l385 825zM506 1653l500 -1061l-500 -1069l-500 1069z" />
    <glyph glyph-name="apple" unicode="&#xf000;" horiz-adv-x="1618" 
d="M836 1216q-1 6 -1.5 14t-0.5 23q0 124 95 229.5t236 131.5q1 -10 1.5 -23t0.5 -39q0 -131 -103.5 -234.5t-203.5 -103.5h-8q-3 0 -7.5 1t-8.5 1zM1505 403q-114 -247 -205 -342.5t-204 -95.5q-50 0 -131.5 33t-122.5 33q-45 0 -131 -33t-127 -33q-64 0 -128.5 44
t-129.5 132q-102 140 -157.5 295.5t-55.5 300.5q0 219 125 356.5t323 137.5q68 0 155 -34t124 -34q34 0 121.5 35t152.5 35q110 0 198 -40t161 -124q-102 -65 -151.5 -145.5t-49.5 -182.5q0 -113 60 -200t173 -138z" />
    <glyph glyph-name="fi" unicode="&#xf001;" horiz-adv-x="981" 
d="M584 1243q0 67 44.5 112.5t110.5 45.5q65 0 110.5 -46t45.5 -112q0 -64 -45.5 -108.5t-110.5 -44.5q-66 0 -110.5 43.5t-44.5 109.5zM606 0v981h268v-981h-268zM512 1558v-230q-6 0 -13 0.5t-18 0.5q-51 0 -69.5 -28t-18.5 -154v-166h119v-207h-119v-774h-270v774h-98
v207h98v260q0 99 12 147.5t41 86.5q37 46 95.5 70t136.5 24q19 0 44.5 -2.5t59.5 -8.5z" />
    <glyph glyph-name="fl" unicode="&#xf002;" horiz-adv-x="981" 
d="M606 0v1550h268v-1550h-268zM512 1558v-230q-6 0 -13 0.5t-18 0.5q-51 0 -69.5 -28t-18.5 -154v-166h119v-207h-119v-774h-270v774h-98v207h98v260q0 99 12 147.5t41 86.5q37 46 95.5 70t136.5 24q19 0 44.5 -2.5t59.5 -8.5z" />
    </font>
</defs>
</svg>
