<?xml version="1.0" standalone="no"?>
<!DOCTYPE svg PUBLIC "-//W3C//DTD SVG 1.1//EN" "http://www.w3.org/Graphics/SVG/1.1/DTD/svg11.dtd" >
<svg xmlns="http://www.w3.org/2000/svg" xmlns:xlink="http://www.w3.org/1999/xlink" version="1.1">
<metadata>
Created by FontForge 20161013 at Wed Nov 18 02:19:39 1992
 By ,,,
Copyright 1990-1993 Bitstream Inc.  All rights reserved.
</metadata>
<defs>
<font id="FuturaBT-ExtraBlack" horiz-adv-x="1024" >
  <font-face 
    font-family="Futura XBlk BT"
    font-weight="400"
    font-stretch="normal"
    units-per-em="2048"
    panose-1="2 11 9 3 2 2 4 2 2 4"
    ascent="1638"
    descent="-410"
    x-height="1034"
    cap-height="1464"
    bbox="-342 -485 2675 1973"
    underline-thickness="379"
    underline-position="-854"
    unicode-range="U+0020-F002"
  />
<missing-glyph horiz-adv-x="1229" 
d="M102 -362v1806h1024v-1806h-1024zM217 -248h795v1577h-795v-1577z" />
    <glyph glyph-name=".notdef" horiz-adv-x="1229" 
d="M102 -362v1806h1024v-1806h-1024zM217 -248h795v1577h-795v-1577z" />
    <glyph glyph-name=".null" horiz-adv-x="0" 
 />
    <glyph glyph-name="nonmarkingreturn" horiz-adv-x="702" 
 />
    <glyph glyph-name="space" unicode=" " horiz-adv-x="702" 
 />
    <glyph glyph-name="exclam" unicode="!" horiz-adv-x="768" 
d="M135 553v965h496v-965h-496zM100 201q0 99 82.5 169t200.5 70q119 0 202 -70t83 -169q0 -100 -82.5 -170t-202.5 -70q-119 0 -201 70t-82 170z" />
    <glyph glyph-name="quotedbl" unicode="&#x22;" horiz-adv-x="758" 
d="M690 1440v-563h-260v563h260zM326 1440v-563h-258v563h258z" />
    <glyph glyph-name="numbersign" unicode="#" horiz-adv-x="1575" 
d="M946 834h-239l-78 -213h239zM938 1470l-129 -366h227l129 366h289l-129 -366h256l-100 -270h-252l-76 -213h258l-100 -271h-254l-131 -366h-289l131 366h-227l-131 -366h-289l131 366h-258l100 271h254l74 213h-258l98 270h258l129 366h289z" />
    <glyph glyph-name="dollar" unicode="$" horiz-adv-x="1403" 
d="M47 168l162 385q112 -88 230.5 -134t232.5 -46q71 0 111 24.5t40 67.5q0 33 -35.5 53t-164.5 45l-148 31q-172 35 -269 146.5t-97 273.5q0 182 128.5 305.5t346.5 148.5v152h237v-147q115 -4 222.5 -33.5t207.5 -85.5l-157 -367q-101 64 -185 94.5t-159 30.5
q-72 0 -114 -26t-42 -68q0 -57 192 -93q11 -2 16 -3l138 -27q178 -33 276.5 -132.5t98.5 -246.5q0 -220 -128.5 -351.5t-379.5 -166.5v-164h-238v164q-143 3 -273.5 45.5t-248.5 124.5z" />
    <glyph glyph-name="percent" unicode="%" horiz-adv-x="1851" 
d="M428 879q43 0 61.5 44.5t18.5 151.5q0 108 -18.5 153.5t-61.5 45.5t-62.5 -46.5t-19.5 -152.5q0 -105 19.5 -150.5t62.5 -45.5zM803 1075q0 -184 -102.5 -293.5t-274.5 -109.5q-173 0 -275 109t-102 294t102 294.5t275 109.5t275 -109.5t102 -294.5zM1444 168
q42 0 61 45.5t19 153.5q0 107 -18.5 151.5t-61.5 44.5t-62.5 -45.5t-19.5 -150.5q0 -106 19.5 -152.5t62.5 -46.5zM1819 367q0 -186 -102 -296t-273 -110q-173 0 -275 110t-102 296q0 185 102 294t275 109q172 0 273.5 -109t101.5 -294zM408 -39l845 1518h211l-850 -1518
h-206z" />
    <glyph glyph-name="ampersand" unicode="&#x26;" horiz-adv-x="1712" 
d="M805 397l-172 178q-45 -29 -62.5 -53t-17.5 -53q0 -46 36 -76.5t93 -30.5q35 0 65 8.5t58 26.5zM795 983q42 24 64 54.5t22 64.5q0 36 -23 60t-57 24q-35 0 -59.5 -27t-24.5 -65q0 -32 19.5 -60t58.5 -51zM1081 123q-107 -74 -227 -111t-254 -37q-243 0 -396 125
t-153 322q0 153 92.5 257.5t253.5 131.5q-78 68 -113.5 134.5t-35.5 146.5q0 181 147.5 293t388.5 112q230 0 374.5 -114t144.5 -291q0 -127 -67.5 -212.5t-197.5 -123.5l140 -129q58 45 112 100.5t103 120.5l288 -297q-49 -57 -107.5 -103t-127.5 -83l358 -365h-610z" />
    <glyph glyph-name="quotesingle" unicode="'" horiz-adv-x="393" 
d="M326 1440v-563h-258v563h258z" />
    <glyph glyph-name="parenleft" unicode="(" horiz-adv-x="891" 
d="M436 -451q-157 255 -231 498.5t-74 503.5t83.5 519t256.5 538l373 -205q-128 -212 -190 -424.5t-62 -435.5q0 -185 57.5 -381.5t177.5 -423.5z" />
    <glyph glyph-name="parenright" unicode=")" horiz-adv-x="891" 
d="M455 -451l-392 189q121 227 178.5 423.5t57.5 381.5q0 223 -62 435.5t-190 424.5l373 205q173 -279 256.5 -538t83.5 -519t-74 -503.5t-231 -498.5z" />
    <glyph glyph-name="asterisk" unicode="*" horiz-adv-x="1067" 
d="M610 1214l195 156l117 -196l-236 -93l236 -90l-117 -198l-195 159l39 -254h-233l39 254l-197 -159l-113 198l238 90l-238 93l113 196l197 -156l-39 250h233z" />
    <glyph glyph-name="plus" unicode="+" horiz-adv-x="1706" 
d="M993 1221v-473h459v-273h-459v-475h-280v475h-459v273h459v473h280z" />
    <glyph glyph-name="comma" unicode="," horiz-adv-x="702" 
d="M-18 -350l237 725h500l-344 -725h-393z" />
    <glyph glyph-name="hyphen" unicode="-" horiz-adv-x="983" 
d="M150 305v418h684v-418h-684z" />
    <glyph glyph-name="period" unicode="." horiz-adv-x="702" 
d="M66 209q0 99 82.5 169.5t201.5 70.5t202 -70.5t83 -169.5t-82.5 -169.5t-202.5 -70.5t-202 70.5t-82 169.5z" />
    <glyph glyph-name="slash" unicode="/" horiz-adv-x="958" 
d="M0 -190l717 1687h241l-716 -1687h-242z" />
    <glyph glyph-name="zero" unicode="0" horiz-adv-x="1403" 
d="M584 721q0 -158 28.5 -231.5t89.5 -73.5t89 72.5t28 232.5q0 159 -28 232t-89 73q-62 0 -90 -72t-28 -233zM72 721q0 353 168.5 555.5t461.5 202.5q295 0 462 -201t167 -557t-167 -558t-462 -202q-292 0 -461 204t-169 556z" />
    <glyph glyph-name="one" unicode="1" horiz-adv-x="1403" 
d="M500 1006h-219v444h745v-1450h-526v1006z" />
    <glyph glyph-name="two" unicode="2" horiz-adv-x="1403" 
d="M33 0l653 778q48 57 66 93.5t18 70.5q0 43 -24 67.5t-66 24.5q-50 0 -73 -41t-23 -129h-488v17q0 281 158 439.5t438 158.5q267 0 429.5 -147t162.5 -386q0 -125 -57.5 -228t-190.5 -212l-123 -103h369v-403h-1249z" />
    <glyph glyph-name="three" unicode="3" horiz-adv-x="1403" 
d="M633 907h22q67 0 101.5 25.5t34.5 75.5q0 38 -23 62t-59 24q-38 0 -58 -26.5t-20 -76.5h-483q4 240 149.5 364t423.5 124q248 0 398.5 -113.5t150.5 -296.5q0 -112 -52 -185t-157 -110q129 -29 196.5 -116.5t67.5 -225.5q0 -215 -164 -343t-442 -128q-298 0 -466.5 147
t-168.5 406v4h503q3 -74 31 -111.5t80 -37.5t83.5 32.5t31.5 85.5q0 61 -37 93t-106 32q-15 0 -23 -0.5t-14 -0.5v296z" />
    <glyph glyph-name="four" unicode="4" horiz-adv-x="1403" 
d="M694 0v291h-626v383l550 790h578v-790h158v-383h-158v-291h-502zM524 674h209v198q0 58 2.5 96t7.5 68q-15 -39 -36.5 -78.5t-63.5 -103.5z" />
    <glyph glyph-name="five" unicode="5" horiz-adv-x="1403" 
d="M152 578l139 872h907v-391h-577l-15 -88q49 6 98 9t97 3q240 0 377 -128t137 -351q0 -258 -178 -401.5t-498 -143.5q-155 0 -295.5 33t-269.5 100l65 408q166 -69 277.5 -98t201.5 -29q107 0 155 27t48 85q0 68 -72 105t-206 37q-71 0 -161 -11.5t-230 -37.5z" />
    <glyph glyph-name="six" unicode="6" horiz-adv-x="1403" 
d="M709 408q54 0 88 39t34 102q0 64 -33.5 102.5t-88.5 38.5q-56 0 -89.5 -38.5t-33.5 -102.5t33.5 -102.5t89.5 -38.5zM830 1032q8 1 19 1.5t32 0.5q218 0 340 -120.5t122 -335.5q0 -272 -177 -444.5t-455 -172.5t-455.5 166.5t-177.5 425.5q0 150 71.5 299.5t282.5 402.5
l172 205h686z" />
    <glyph glyph-name="seven" unicode="7" horiz-adv-x="1403" 
d="M125 0l520 1001h-508v449h1313l-733 -1450h-592z" />
    <glyph glyph-name="eight" unicode="8" horiz-adv-x="1403" 
d="M702 324q49 0 80 37.5t31 99.5q0 61 -30 98t-81 37q-50 0 -81 -37t-31 -98t31.5 -99t80.5 -38zM700 899q37 0 60.5 28.5t23.5 73.5q0 47 -23 75t-61 28q-37 0 -59.5 -28t-22.5 -75q0 -45 23 -73.5t59 -28.5zM369 762q-117 35 -178.5 112.5t-61.5 188.5q0 181 160 298.5
t413 117.5t412.5 -117.5t159.5 -298.5q0 -112 -61 -189t-177 -112q139 -44 213 -133.5t74 -212.5q0 -205 -168.5 -329t-452.5 -124q-283 0 -452.5 124.5t-169.5 328.5q0 123 74.5 212.5t214.5 133.5z" />
    <glyph glyph-name="nine" unicode="9" horiz-adv-x="1403" 
d="M707 1036q-55 0 -89 -39t-34 -102q0 -62 34 -100.5t89 -38.5t88.5 38t33.5 101t-34 102t-88 39zM585 415q-9 0 -20 -0.5t-33 -0.5q-215 0 -339.5 123t-124.5 335q0 94 25 179t75 159q88 131 225 200t312 69q278 0 455 -164.5t177 -421.5q0 -150 -71.5 -298.5
t-282.5 -399.5l-172 -205h-686z" />
    <glyph glyph-name="colon" unicode=":" horiz-adv-x="768" 
d="M100 795q0 98 82 167.5t201 69.5t202 -69.5t83 -167.5q0 -100 -82.5 -170t-202.5 -70q-119 0 -201 70t-82 170zM100 209q0 99 82.5 169.5t200.5 70.5q119 0 202 -70.5t83 -169.5t-82.5 -169.5t-202.5 -70.5q-119 0 -201 70t-82 170z" />
    <glyph glyph-name="semicolon" unicode=";" horiz-adv-x="768" 
d="M199 795q0 99 82 169t200 70q119 0 202 -70.5t83 -168.5q0 -100 -82.5 -170t-202.5 -70q-119 0 -200.5 70t-81.5 170zM0 -350l238 725h499l-344 -725h-393z" />
    <glyph glyph-name="less" unicode="&#x3c;" horiz-adv-x="1706" 
d="M1442 938l-801 -328l801 -327v-299l-1178 487v281l1178 487v-301z" />
    <glyph glyph-name="equal" unicode="=" horiz-adv-x="1706" 
d="M1452 512v-272h-1198v272h1198zM1452 983v-272h-1198v272h1198z" />
    <glyph glyph-name="greater" unicode="&#x3e;" horiz-adv-x="1706" 
d="M1442 752v-281l-1178 -487v299l801 327l-801 328v301z" />
    <glyph glyph-name="question" unicode="?" horiz-adv-x="1247" 
d="M311 195q0 96 82.5 163.5t202.5 67.5q119 0 202 -68t83 -163q0 -97 -83 -165.5t-202 -68.5t-202 68.5t-83 165.5zM436 515v377q32 -8 59.5 -12.5t51.5 -5.5q73 0 115.5 38.5t42.5 103.5q0 49 -23.5 75.5t-65.5 26.5q-44 0 -66 -29t-26 -91l-504 -1q16 240 176 380.5
t418 140.5q260 0 422 -149t162 -386q0 -216 -159 -349.5t-418 -133.5q-41 0 -87.5 3.5t-97.5 11.5z" />
    <glyph glyph-name="at" unicode="@" horiz-adv-x="2048" 
d="M1241 911l49 82h242l-156 -627q-2 -12 -3 -18.5t-1 -11.5q0 -24 12.5 -36.5t34.5 -12.5q128 0 231 142t103 331q0 236 -174.5 381t-462.5 145q-142 0 -266 -35.5t-225 -105.5q-154 -108 -238 -269t-84 -350q0 -294 199.5 -468.5t535.5 -174.5q160 0 307.5 47t278.5 140
l115 -160q-164 -122 -342 -181t-381 -59q-188 0 -355 54.5t-294 156.5q-149 119 -223 279t-74 360q0 176 55.5 332.5t163.5 284.5q149 177 361.5 271.5t461.5 94.5q386 0 626 -206t240 -533q0 -171 -68 -314.5t-196 -242.5q-70 -55 -153.5 -84t-174.5 -29q-109 0 -166.5 38
t-66.5 115q-59 -79 -127.5 -115t-161.5 -36q-171 0 -257.5 88t-86.5 262q0 247 143.5 411.5t356.5 164.5q74 0 130.5 -28t90.5 -83zM1126 494l47 195q-7 67 -42 104.5t-91 37.5q-95 0 -167 -116.5t-72 -274.5q0 -72 30.5 -111.5t86.5 -39.5q72 0 129 55.5t79 149.5z" />
    <glyph glyph-name="A" unicode="A" horiz-adv-x="1507" 
d="M641 532h219l-45 166q-33 126 -45 194t-15 128h-9q-3 -60 -15 -128t-45 -194zM-57 0l522 1464h586l512 -1464h-566l-47 184h-397l-45 -184h-565z" />
    <glyph glyph-name="B" unicode="B" horiz-adv-x="1434" 
d="M631 596v-234h88q79 0 121.5 30.5t42.5 86.5q0 57 -42.5 87t-121.5 30h-88zM631 1116v-205h69q64 0 97.5 26.5t33.5 76.5t-33.5 76t-97.5 26h-69zM137 0v1464h701q225 0 351 -105.5t126 -293.5q0 -120 -59.5 -199.5t-168.5 -103.5q149 -31 222 -117t73 -231
q0 -205 -138.5 -309.5t-407.5 -104.5h-699z" />
    <glyph glyph-name="C" unicode="C" horiz-adv-x="1309" 
d="M1214 883q-72 69 -147 103t-158 34q-129 0 -207.5 -79.5t-78.5 -211.5q0 -129 75 -206t201 -77q76 0 154.5 32.5t171.5 103.5l-17 -551q-86 -35 -172 -52.5t-172 -17.5q-107 0 -206 24t-179 68q-194 112 -293.5 283t-99.5 393q0 164 56.5 304t164.5 247
q109 108 252.5 163.5t310.5 55.5q89 0 175.5 -18.5t168.5 -55.5v-542z" />
    <glyph glyph-name="D" unicode="D" horiz-adv-x="1620" 
d="M659 447q178 1 260 69.5t82 214.5q0 143 -78.5 213t-240.5 70h-23v-567zM137 0v1464h426q203 0 346.5 -22.5t233.5 -69.5q190 -100 291.5 -265t101.5 -376q0 -210 -101 -374t-292 -265q-93 -48 -236 -70t-383 -22h-387z" />
    <glyph glyph-name="E" unicode="E" horiz-adv-x="1204" 
d="M137 0v1464h979v-397h-463v-141h420v-375h-420v-154h475v-397h-991z" />
    <glyph glyph-name="F" unicode="F" horiz-adv-x="1159" 
d="M137 0v1464h979v-397h-452v-170h409v-375h-409v-522h-527z" />
    <glyph glyph-name="G" unicode="G" horiz-adv-x="1708" 
d="M1069 524h-229v344h809q2 -45 3 -67t1 -39q0 -126 -24 -230t-70 -184q-112 -188 -289 -287.5t-402 -99.5q-166 0 -308.5 55.5t-252.5 163.5q-109 108 -165 247t-56 302q0 164 56.5 303.5t164.5 245.5q109 107 252 163t309 56q225 0 400 -98.5t286 -288.5l-469 -174
q-37 61 -89 91t-119 30q-117 0 -186.5 -89t-69.5 -239q0 -155 70 -240.5t198 -85.5q76 0 123.5 32t56.5 89z" />
    <glyph glyph-name="H" unicode="H" horiz-adv-x="1651" 
d="M137 0v1464h527v-487h321v487h526v-1464h-526v516h-321v-516h-527z" />
    <glyph glyph-name="I" unicode="I" horiz-adv-x="829" 
d="M147 0v1464h535v-1464h-535z" />
    <glyph glyph-name="J" unicode="J" horiz-adv-x="1042" 
d="M401 655v809h527v-952q0 -124 -16.5 -195t-53.5 -131q-67 -107 -180 -166t-252 -59q-131 0 -239.5 39t-206.5 121l172 393q46 -49 82 -71.5t69 -22.5q57 0 77.5 43t20.5 192z" />
    <glyph glyph-name="K" unicode="K" horiz-adv-x="1565" 
d="M137 0v1464h516v-624l334 624h596l-442 -721l504 -743h-637l-355 612v-612h-516z" />
    <glyph glyph-name="L" unicode="L" horiz-adv-x="1200" 
d="M137 0v1464h527v-989h512v-475h-1039z" />
    <glyph glyph-name="M" unicode="M" horiz-adv-x="1999" 
d="M1475 0l-64 580q-6 67 -12 133.5t-10 133.5q-9 -63 -25.5 -133.5t-40.5 -150.5l-168 -563h-313l-168 563q-25 80 -41 150.5t-25 133.5q-5 -68 -10.5 -134t-11.5 -133l-64 -580h-516l250 1464h543l104 -362l15 -51q66 -229 81 -377h9q12 93 36 198t64 236l109 356h542
l232 -1464h-516z" />
    <glyph glyph-name="N" unicode="N" horiz-adv-x="1731" 
d="M137 0v1464h516l455 -766q-9 51 -12.5 113t-3.5 162v491h507v-1464h-520l-450 760q8 -49 12 -105.5t4 -126.5v-528h-508z" />
    <glyph glyph-name="O" unicode="O" horiz-adv-x="1735" 
d="M868 453q111 0 178.5 75.5t67.5 200.5q0 126 -67.5 202.5t-178.5 76.5t-179 -77t-68 -202t68 -200.5t179 -75.5zM1651 729q0 -161 -57 -299.5t-167 -247.5q-110 -107 -253.5 -164t-305.5 -57q-164 0 -307 57t-254 166q-109 106 -165 244t-56 301t56 302t165 245
q110 108 253 164.5t308 56.5t308 -56.5t254 -164.5q108 -107 164.5 -246t56.5 -301z" />
    <glyph glyph-name="P" unicode="P" horiz-adv-x="1450" 
d="M137 0v1464h629q332 0 485.5 -128t153.5 -406q0 -259 -138 -378.5t-438 -119.5h-165v-432h-527zM666 1057v-244h82q75 0 115 31.5t40 89.5t-41 90.5t-114 32.5h-82z" />
    <glyph glyph-name="Q" unicode="Q" horiz-adv-x="1735" 
d="M1333 -123l-106 168q-90 -40 -179 -60t-180 -20q-166 0 -308.5 55.5t-252.5 163.5q-109 106 -165 245t-56 302q0 164 56.5 304t164.5 245q108 107 251 162t310 55q166 0 309.5 -56t252.5 -163q108 -107 164.5 -246t56.5 -301q0 -122 -30.5 -226.5t-92.5 -197.5l221 -246z
M776 594l331 65q4 18 5.5 36t1.5 36q0 127 -67.5 203t-178.5 76t-179 -77t-68 -202t66.5 -198.5t180.5 -73.5h27z" />
    <glyph glyph-name="R" unicode="R" horiz-adv-x="1466" 
d="M653 1087v-286h82q75 0 115.5 36.5t40.5 104.5q0 70 -40.5 107.5t-115.5 37.5h-82zM137 0v1464h662q288 0 440 -127t152 -366q0 -156 -76.5 -257t-206.5 -118l391 -596h-590l-256 483v-483h-516z" />
    <glyph glyph-name="S" unicode="S" horiz-adv-x="1251" 
d="M4 125l168 410q113 -79 201.5 -115.5t165.5 -36.5q54 0 85 20.5t31 55.5q0 61 -155 93q-50 11 -78 17q-164 40 -251 142t-87 254q0 236 169 384t443 148q126 0 248 -33t246 -100l-160 -383q-76 56 -152.5 85.5t-148.5 29.5q-55 0 -85 -18.5t-30 -51.5q0 -62 219 -109
q35 -8 54 -12q151 -34 238 -139t87 -254q0 -243 -175.5 -397t-456.5 -154q-144 0 -288 41t-288 123z" />
    <glyph glyph-name="T" unicode="T" horiz-adv-x="1178" 
d="M326 0v985h-293v479h1112v-479h-293v-985h-526z" />
    <glyph glyph-name="U" unicode="U" horiz-adv-x="1602" 
d="M121 670v794h526v-798q0 -139 33 -191.5t113 -52.5q79 0 113 54t34 190v798h526v-794q0 -156 -20.5 -257t-65.5 -169q-88 -137 -240 -210t-347 -73q-196 0 -348 73t-240 210q-44 67 -64 167t-20 259z" />
    <glyph glyph-name="V" unicode="V" horiz-adv-x="1462" 
d="M487 0l-559 1464h570l155 -530q34 -116 50.5 -196t21.5 -150h10q10 74 28.5 156t47.5 178l164 542h559l-557 -1464h-490z" />
    <glyph glyph-name="W" unicode="W" horiz-adv-x="2001" 
d="M991 741q-3 -72 -33 -207q-5 -22 -8 -35l-110 -499h-459l-428 1464h528l115 -645q15 -85 23 -155.5t10 -132.5h12q2 87 31 229q2 13 4 21l139 683h371l139 -684q1 -6 4 -20q29 -143 31 -229h12q2 62 10 132.5t23 155.5l115 645h528l-428 -1464h-459l-110 499q-3 13 -8 36
q-30 134 -33 206h-19z" />
    <glyph glyph-name="X" unicode="X" horiz-adv-x="1466" 
d="M780 332q-21 45 -31.5 72.5t-15.5 49.5q-4 -21 -14 -46.5t-35 -75.5l-166 -332h-602l520 780l-459 684h601l108 -239q2 -4 6 -13q30 -68 41 -108q7 26 17.5 53.5t27.5 67.5l111 239h598l-457 -684l520 -780h-602z" />
    <glyph glyph-name="Y" unicode="Y" horiz-adv-x="1305" 
d="M375 0v647l-490 817h600l123 -284q17 -37 40 -110q2 -7 3 -11q11 35 38 103q5 12 7 17l121 285h596l-508 -817v-647h-530z" />
    <glyph glyph-name="Z" unicode="Z" horiz-adv-x="1380" 
d="M-53 0l655 1028h-512v436h1350l-637 -1013h565v-451h-1421z" />
    <glyph glyph-name="bracketleft" unicode="[" horiz-adv-x="891" 
d="M180 -420v1970h664v-342h-256v-1286h256v-342h-664z" />
    <glyph glyph-name="backslash" unicode="\" horiz-adv-x="958" 
d="M717 -190l-717 1687h242l716 -1687h-241z" />
    <glyph glyph-name="bracketright" unicode="]" horiz-adv-x="891" 
d="M711 -420h-662v342h254v1286h-254v342h662v-1970z" />
    <glyph glyph-name="asciicircum" unicode="^" horiz-adv-x="2048" 
d="M1192 1462l442 -565h-303l-307 309l-309 -309h-303l442 565h338z" />
    <glyph glyph-name="underscore" unicode="_" 
d="M1024 -201v-282h-1024v282h1024z" />
    <glyph glyph-name="grave" unicode="`" 
d="M215 1522h297l180 -351h-166z" />
    <glyph glyph-name="a" unicode="a" horiz-adv-x="1389" 
d="M549 520q0 -66 35.5 -106.5t93.5 -40.5q59 0 94 40t35 107q0 68 -35.5 109t-93.5 41t-93.5 -41.5t-35.5 -108.5zM823 0v156q-75 -100 -157 -147.5t-181 -47.5q-180 0 -298.5 153t-118.5 394q0 252 115.5 405.5t301.5 153.5q96 0 174.5 -41.5t145.5 -128.5v137h481v-1034
h-463z" />
    <glyph glyph-name="b" unicode="b" horiz-adv-x="1389" 
d="M840 514q0 68 -35.5 109t-93.5 41t-93.5 -41t-35.5 -109t35.5 -111t93.5 -43q57 0 93 43t36 111zM104 1550h492v-481q0 -63 -2.5 -107t-7.5 -75q62 89 141 133.5t176 44.5q182 0 300 -152t118 -393q0 -253 -115 -406t-303 -153q-102 0 -185.5 47.5t-148.5 143.5v-152
h-465v1550z" />
    <glyph glyph-name="c" unicode="c" horiz-adv-x="950" 
d="M891 592q-40 35 -82 52.5t-88 17.5q-76 0 -121 -40.5t-45 -107.5q0 -64 44 -104.5t114 -40.5q44 0 88.5 19.5t89.5 57.5v-411q-78 -38 -150.5 -56t-142.5 -18q-115 0 -213 38.5t-174 113.5q-80 80 -122 181.5t-42 215.5q0 79 20.5 153.5t61.5 141.5q78 127 198.5 194.5
t270.5 67.5q66 0 138.5 -14t154.5 -43v-418z" />
    <glyph glyph-name="d" unicode="d" horiz-adv-x="1389" 
d="M678 664q-58 0 -93.5 -41t-35.5 -109t36 -111t93 -43t93 43t36 111t-35.5 109t-93.5 41zM1286 1550v-1550h-467v152q-65 -96 -148 -143.5t-186 -47.5q-187 0 -302 153t-115 406q0 241 118 393t299 152q98 0 177 -44.5t141 -133.5q-5 31 -7.5 74.5t-2.5 107.5v481h493z
" />
    <glyph glyph-name="e" unicode="e" horiz-adv-x="1321" 
d="M1272 435l-713 -1v-16q0 -79 28.5 -117.5t86.5 -38.5q35 0 61 20.5t41 59.5l465 -31q-61 -168 -210 -259t-365 -91q-120 0 -224.5 36.5t-187.5 106.5q-93 81 -143 187t-50 223q0 118 50.5 224.5t142.5 185.5q83 71 187 107t225 36q166 0 298 -66.5t220 -193.5
q45 -65 67.5 -143.5t22.5 -171.5q0 -24 -0.5 -36t-1.5 -21zM563 660l227 -1q-3 61 -30.5 90t-81.5 29q-48 0 -77.5 -30.5t-37.5 -87.5z" />
    <glyph glyph-name="f" unicode="f" horiz-adv-x="872" 
d="M176 0v653h-135v381h135v117q0 214 115 329t330 115q56 0 112 -6t113 -18v-389q-8 1 -22 3q-37 5 -50 5q-52 0 -74 -28t-22 -97v-31h168v-381h-168v-653h-502z" />
    <glyph glyph-name="g" unicode="g" horiz-adv-x="1389" 
d="M565 541q0 -60 34 -95.5t91 -35.5q58 0 92.5 35.5t34.5 95.5q0 59 -35 96t-92 37q-56 0 -90.5 -36.5t-34.5 -96.5zM805 94v90q-70 -77 -148 -114t-172 -37q-181 0 -299 136.5t-118 350.5q0 248 114.5 397.5t302.5 149.5q97 0 175.5 -40.5t144.5 -125.5v133h481v-884
q0 -137 -12 -204.5t-39 -123.5q-65 -134 -226.5 -202.5t-412.5 -68.5q-140 0 -260.5 24.5t-220.5 72.5l108 334q86 -54 168.5 -80.5t163.5 -26.5q122 0 186 56t64 163z" />
    <glyph glyph-name="h" unicode="h" horiz-adv-x="1376" 
d="M109 0v1550h495v-428q0 -88 -2 -137t-6 -94q65 89 144 132.5t178 43.5q165 0 261.5 -100t96.5 -273v-694h-504v522q0 78 -15.5 106.5t-54.5 28.5q-44 0 -67 -34t-23 -101v-522h-503z" />
    <glyph glyph-name="i" unicode="i" horiz-adv-x="739" 
d="M641 1356q0 -111 -73 -176.5t-197 -65.5q-125 0 -199 66t-74 176t73 173.5t200 63.5q126 0 198 -63.5t72 -173.5zM119 0v1034h502v-1034h-502z" />
    <glyph glyph-name="j" unicode="j" horiz-adv-x="739" 
d="M641 1356q0 -111 -73 -176.5t-197 -65.5q-125 0 -199 66t-74 176t73 173.5t200 63.5q126 0 198 -63.5t72 -173.5zM119 -446v1480h502v-1480h-502z" />
    <glyph glyph-name="k" unicode="k" horiz-adv-x="1395" 
d="M109 0v1550h497v-911l211 395h588l-367 -497l387 -537h-594l-225 387v-387h-497z" />
    <glyph glyph-name="l" unicode="l" horiz-adv-x="739" 
d="M119 0v1550h502v-1550h-502z" />
    <glyph glyph-name="m" unicode="m" horiz-adv-x="1952" 
d="M109 0v1034h479v-145q59 92 130 135t163 43q109 0 181.5 -53t117.5 -166q59 108 144.5 163.5t191.5 55.5q152 0 242.5 -100.5t90.5 -270.5v-696h-485v520q0 79 -14.5 107t-49.5 28q-40 0 -59.5 -33t-19.5 -102v-520h-478v520q0 77 -14.5 106t-50.5 29q-41 0 -60.5 -33
t-19.5 -102v-520h-489z" />
    <glyph glyph-name="n" unicode="n" horiz-adv-x="1376" 
d="M109 0v1034h487v-143q65 89 144 132.5t178 43.5q165 0 261.5 -100t96.5 -273v-694h-502v522q0 77 -16 106t-56 29q-44 0 -67 -34t-23 -101v-522h-503z" />
    <glyph glyph-name="o" unicode="o" horiz-adv-x="1331" 
d="M666 373q54 0 88 39t34 102q0 64 -33.5 102.5t-88.5 38.5q-56 0 -89.5 -38.5t-33.5 -102.5t33.5 -102.5t89.5 -38.5zM1270 514q0 -117 -50 -223t-143 -187q-81 -70 -185.5 -106.5t-225.5 -36.5t-225 36t-187 107q-92 78 -142.5 185.5t-50.5 224.5q0 118 50.5 224.5
t142.5 185.5q83 71 187 107t225 36t225.5 -36.5t187.5 -106.5q91 -78 141 -185t50 -225z" />
    <glyph glyph-name="p" unicode="p" horiz-adv-x="1389" 
d="M717 365q57 0 93 41.5t36 109.5t-36 110t-93 42q-58 0 -93.5 -42t-35.5 -110t35.5 -109.5t93.5 -41.5zM109 -446v1480h479v-137q66 86 145.5 128t175.5 42q187 0 301.5 -152.5t114.5 -406.5q0 -241 -117.5 -393t-298.5 -152q-98 0 -178 44.5t-141 133.5q6 -37 9 -81.5
t3 -98.5v-407h-493z" />
    <glyph glyph-name="q" unicode="q" horiz-adv-x="1389" 
d="M549 516q0 -68 35.5 -109.5t93.5 -41.5t93.5 41.5t35.5 109.5t-35.5 110t-93.5 42t-93.5 -42t-35.5 -110zM1286 -446h-493v407q0 63 2.5 106t7.5 74q-62 -89 -141 -133.5t-177 -44.5q-181 0 -299 152.5t-118 392.5q0 253 115 406t302 153q96 0 174.5 -41.5t145.5 -128.5
v137h481v-1480z" />
    <glyph glyph-name="r" unicode="r" horiz-adv-x="999" 
d="M109 0v1034h487v-145q65 89 145 133.5t177 44.5q15 0 22.5 -0.5t13.5 -1.5v-502q-42 23 -77 34t-64 11q-96 0 -148.5 -52t-52.5 -146v-410h-503z" />
    <glyph glyph-name="s" unicode="s" horiz-adv-x="999" 
d="M0 74l133 319q83 -56 152 -85t118 -29q40 0 61 15.5t21 43.5q0 39 -89 57q-30 6 -47 10q-146 36 -212.5 106.5t-66.5 186.5q0 163 135.5 266t353.5 103q109 0 208.5 -20.5t186.5 -61.5l-123 -311q-70 47 -126 70.5t-97 23.5q-34 0 -55 -14.5t-21 -38.5q0 -39 118 -64
q28 -6 44 -10q151 -36 222 -105.5t71 -181.5q0 -174 -140 -283.5t-370 -109.5q-125 0 -245 28.5t-232 84.5z" />
    <glyph glyph-name="t" unicode="t" horiz-adv-x="856" 
d="M176 0v653h-141v381h141v342h502v-342h143v-381h-143v-653h-502z" />
    <glyph glyph-name="u" unicode="u" horiz-adv-x="1339" 
d="M94 1034h494v-506q0 -109 17.5 -140.5t64.5 -31.5q45 0 62.5 30t17.5 142v506h493v-557q0 -268 -137.5 -392t-435.5 -124q-299 0 -437.5 124t-138.5 392v557z" />
    <glyph glyph-name="v" unicode="v" horiz-adv-x="1229" 
d="M385 0l-444 1034h532l102 -358q18 -59 26 -93.5t11 -61.5q5 43 30 130q5 17 7 24l101 359h538l-448 -1034h-455z" />
    <glyph glyph-name="w" unicode="w" horiz-adv-x="1782" 
d="M356 0l-405 1034h530l88 -395q9 -39 15 -85t10 -95q8 57 16 100.5t19 79.5l106 395h330l96 -407q7 -28 14.5 -71.5t14.5 -96.5q6 51 15.5 101.5t21.5 98.5l94 375h530l-444 -1034h-395l-88 325q-2 7 -6 22q-24 86 -31 136q-7 -51 -27 -128q-6 -21 -8 -29l-88 -326h-408z
" />
    <glyph glyph-name="x" unicode="x" horiz-adv-x="1284" 
d="M-66 0l416 535l-385 499h563l68 -151q13 -28 21.5 -52t13.5 -46q6 31 28 78q6 13 9 20l67 151h568l-369 -499l422 -535h-596l-82 152q-12 23 -21 48.5t-16 51.5q-7 -33 -15 -56.5t-20 -44.5l-86 -151h-586z" />
    <glyph glyph-name="y" unicode="y" horiz-adv-x="1300" 
d="M410 90l-449 944h551l78 -264q1 -4 3 -10q54 -188 64 -281q29 121 46.5 192.5t27.5 104.5l76 258h516l-631 -1456h-534z" />
    <glyph glyph-name="z" unicode="z" horiz-adv-x="1120" 
d="M-2 0l412 647h-344v387h1079l-410 -641h357v-393h-1094z" />
    <glyph glyph-name="braceleft" unicode="{" 
d="M905 1192q-8 0 -22.5 1t-20.5 1q-87 0 -117 -30t-30 -128v-239q0 -134 -47 -189.5t-170 -77.5q124 -23 170.5 -77.5t46.5 -186.5v-241q0 -96 29.5 -126t115.5 -30q7 0 22 1t23 1v-285h-80q-139 0 -211.5 10.5t-119.5 34.5q-60 30 -84.5 84.5t-24.5 186.5v258
q0 127 -46.5 179t-158.5 52q-5 0 -16.5 -1t-18.5 -1v283q7 0 18.5 -1t16.5 -1q112 0 158.5 52t46.5 179v258q0 133 24.5 188t84.5 85q48 24 120.5 34.5t210.5 10.5h80v-285z" />
    <glyph glyph-name="bar" unicode="|" 
d="M653 1565v-2048h-280v2048h280z" />
    <glyph glyph-name="braceright" unicode="}" 
d="M641 1159v-258q0 -127 46.5 -179t158.5 -52q5 0 16.5 1t18.5 1v-283q-7 0 -18.5 1t-16.5 1q-112 0 -158.5 -52t-46.5 -179v-258q0 -130 -25 -186t-86 -87q-45 -23 -115 -33t-200 -10h-94v283q9 0 23 -1t20 -1q87 0 117 30t30 128v241q0 132 46.5 186.5t170.5 77.5
q-123 22 -170 77t-47 188v241q0 98 -30 128t-117 30q-6 0 -20 -1t-23 -1v285h80q138 0 210 -10.5t119 -34.5q61 -31 86 -87t25 -186z" />
    <glyph glyph-name="asciitilde" unicode="~" horiz-adv-x="1706" 
d="M1530 543q-102 -69 -192 -101t-179 -32q-54 0 -111.5 11.5t-154.5 45.5q-124 42 -194.5 56t-137.5 14q-84 0 -176 -38t-207 -120v299q119 75 216.5 109t191.5 34q58 0 123 -12t155 -41q22 -7 64 -22q152 -54 235 -54q86 0 175 36.5t192 113.5v-299z" />
    <glyph glyph-name="nonbreakingspace" unicode="&#xa0;" horiz-adv-x="1403" 
 />
    <glyph glyph-name="exclamdown" unicode="&#xa1;" horiz-adv-x="768" 
d="M135 926h496v-965h-496v965zM100 1278q0 100 82 170t201 70q120 0 202.5 -70.5t82.5 -169.5t-83 -169.5t-202 -70.5q-118 0 -200.5 70.5t-82.5 169.5z" />
    <glyph glyph-name="cent" unicode="&#xa2;" horiz-adv-x="1403" 
d="M1065 713q-40 35 -82 52t-88 17q-76 0 -121 -40t-45 -107q0 -64 44 -105t114 -41q44 0 88.5 19.5t89.5 58.5l-8 -415q-35 -18 -82.5 -32.5t-122.5 -31.5v-123h-227v135q-189 55 -295.5 197t-106.5 338q0 197 113 345.5t297 190.5v121h229v-110q40 -5 91 -17t112 -32v-420
z" />
    <glyph glyph-name="sterling" unicode="&#xa3;" horiz-adv-x="1403" 
d="M750 555q0 -3 1 -9.5t1 -10.5q0 -43 -25.5 -80t-81.5 -74v-14q28 10 56 15t57 5q67 0 157.5 -29.5t118.5 -29.5q52 0 87 24t63 78l241 -233q-77 -120 -180 -178t-235 -58q-120 0 -254.5 43t-145.5 43q-1 0 -38.5 9.5t-73.5 9.5q-52 0 -96 -21t-89 -68l-188 306
q34 46 71 71t80 31q21 24 31 50t10 54q0 17 -10 59q-1 4 -2 7h-201v305h127q-26 63 -39.5 117.5t-13.5 101.5q0 183 154 291.5t418 108.5q276 0 421.5 -122t151.5 -360l-471 1q-3 61 -31.5 91.5t-83.5 30.5q-49 0 -79.5 -26t-30.5 -68q0 -28 47 -145q5 -14 8 -21h399v-305
h-331z" />
    <glyph glyph-name="currency" unicode="&#xa4;" horiz-adv-x="1241" 
d="M866 885q0 98 -72.5 170.5t-170.5 72.5q-100 0 -173 -72.5t-73 -170.5q0 -100 72.5 -172t173.5 -72q99 0 171 72.5t72 171.5zM385 1253q53 35 110.5 51.5t127.5 16.5q68 0 126.5 -16.5t108.5 -51.5l199 199l133 -135l-197 -203q34 -54 50 -110.5t16 -118.5t-16.5 -119
t-49.5 -111l197 -200l-133 -138l-199 201q-52 -35 -110.5 -52t-124.5 -17q-68 0 -126 17t-112 52l-199 -201l-133 138l197 200q-33 52 -49.5 109t-16.5 123q0 63 16.5 119t49.5 108l-197 203l133 135z" />
    <glyph glyph-name="yen" unicode="&#xa5;" horiz-adv-x="1511" 
d="M506 0v461h-473v219h430l-98 164h-332v221h200l-231 371h541l151 -314q18 -36 33 -70.5t27 -66.5q20 53 33.5 85.5t23.5 51.5l152 314h538l-237 -371h206v-221h-346l-104 -164h450v-219h-491v-461h-473z" />
    <glyph glyph-name="brokenbar" unicode="&#xa6;" 
d="M653 408v-758h-280v758h280zM653 1432v-758h-280v758h280z" />
    <glyph glyph-name="section" unicode="&#xa7;" horiz-adv-x="1327" 
d="M647 403q62 0 99.5 39.5t37.5 102.5t-37.5 102t-99.5 39t-99.5 -38.5t-37.5 -102.5t37.5 -103t99.5 -39zM311 856q-82 34 -124 98.5t-42 155.5q0 179 144 284t391 105q257 0 388.5 -109.5t133.5 -324.5h-397v14q0 55 -33.5 84t-95.5 29q-60 0 -95.5 -29t-35.5 -78
q0 -85 186 -109q45 -6 69 -9q134 -21 193.5 -40.5t102.5 -49.5q76 -55 115.5 -136t39.5 -182q0 -123 -60 -207t-175 -121q83 -35 123.5 -98.5t40.5 -161.5q0 -177 -144.5 -281t-392.5 -104q-247 0 -382 111t-138 315h401v-18q0 -57 33 -87t96 -30q60 0 96.5 29.5t36.5 77.5
q0 84 -196 117q-42 7 -66 12q-247 46 -347.5 142t-100.5 275q0 123 60 206t175 120z" />
    <glyph glyph-name="dieresis" unicode="&#xa8;" 
d="M557 1356q0 58 45 102.5t105 44.5q61 0 104 -43t43 -104q0 -66 -41.5 -108t-105.5 -42q-62 0 -106 43.5t-44 106.5zM168 1356q0 58 45 102.5t104 44.5q62 0 105 -43t43 -104q0 -66 -41.5 -108t-106.5 -42q-62 0 -105.5 43.5t-43.5 106.5z" />
    <glyph glyph-name="copyright" unicode="&#xa9;" horiz-adv-x="1706" 
d="M987 883q-3 63 -38 99t-93 36q-73 0 -114.5 -71.5t-41.5 -201.5q0 -131 41 -196.5t123 -65.5q60 0 92 36.5t35 106.5l248 1q-6 -149 -109 -237.5t-272 -88.5q-195 0 -306.5 116t-111.5 320q0 200 111 323.5t289 123.5q176 0 278.5 -79.5t110.5 -221.5h-242zM1452 743
q0 120 -45 229t-129 193q-87 87 -194.5 131.5t-229.5 44.5q-123 0 -230 -43.5t-190 -128.5q-86 -87 -132 -197t-46 -229t45.5 -227.5t130.5 -193.5q86 -86 194 -131.5t228 -45.5q119 0 228.5 46t197.5 133q85 83 128.5 189.5t43.5 229.5zM852 1493q155 0 292.5 -56
t244.5 -163q104 -105 160.5 -243t56.5 -290q0 -154 -55.5 -288.5t-161.5 -237.5q-111 -108 -250 -166.5t-287 -58.5q-149 0 -284 57t-244 166q-108 107 -165 243t-57 285q0 151 57.5 289t166.5 248q103 105 238 160t288 55z" />
    <glyph glyph-name="ordfeminine" unicode="&#xaa;" horiz-adv-x="1042" 
d="M412 1106q0 -47 26.5 -76t69.5 -29q45 0 71.5 28.5t26.5 76.5q0 47 -26.5 75.5t-71.5 28.5q-43 0 -69.5 -29t-26.5 -75zM618 741v109q-55 -69 -117 -102t-136 -33q-136 0 -225 107t-89 276q0 176 86.5 283.5t227.5 107.5q71 0 130.5 -29.5t108.5 -89.5v96h361v-725h-347z
" />
    <glyph glyph-name="guillemotleft" unicode="&#xab;" horiz-adv-x="1063" 
d="M362 80l-296 434l296 434l195 -133l-219 -301l217 -301zM803 80l-297 434l297 434l192 -133l-217 -301l215 -301z" />
    <glyph glyph-name="logicalnot" unicode="&#xac;" horiz-adv-x="1706" 
d="M1452 868v-501h-272v235h-926v266h1198z" />
    <glyph glyph-name="sfthyphen" unicode="&#xad;" horiz-adv-x="983" 
d="M150 305v418h684v-418h-684z" />
    <glyph glyph-name="registered" unicode="&#xae;" horiz-adv-x="1706" 
d="M823 1006h-39v-193h54q58 0 88 25t30 73q0 49 -32 72t-101 23zM862 1165q174 0 265.5 -61t91.5 -178q0 -78 -43 -135t-121 -84l178 -355h-279l-145 312h-25v-312h-256v813h334zM1452 743q0 120 -45 229t-129 193q-87 87 -194.5 131.5t-229.5 44.5q-123 0 -230 -43.5
t-190 -128.5q-86 -87 -132 -197t-46 -229t45.5 -227.5t130.5 -193.5q86 -86 194 -131.5t228 -45.5q119 0 228.5 46t197.5 133q85 83 128.5 189.5t43.5 229.5zM852 1493q155 0 292.5 -56t244.5 -163q104 -105 160.5 -243t56.5 -290q0 -154 -55.5 -288.5t-161.5 -237.5
q-111 -108 -250 -166.5t-287 -58.5q-149 0 -284 57t-244 166q-108 107 -165 243t-57 285q0 151 57.5 289t166.5 248q103 105 238 160t288 55z" />
    <glyph glyph-name="macron" unicode="&#xaf;" 
d="M205 1272v182h614v-182h-614z" />
    <glyph glyph-name="degree" unicode="&#xb0;" horiz-adv-x="674" 
d="M489 1151q0 62 -45 107t-108 45q-62 0 -106 -44.5t-44 -107.5q0 -64 44 -109t108 -45q62 0 106.5 46t44.5 108zM338 1473q134 0 227.5 -94.5t93.5 -229.5q0 -132 -94.5 -227t-228.5 -95t-228 93.5t-94 228.5q0 134 95.5 229t228.5 95z" />
    <glyph glyph-name="plusminus" unicode="&#xb1;" horiz-adv-x="1706" 
d="M1452 231v-272h-1198v272h1198zM993 1262v-310h459v-272h-459v-309h-280v309h-459v272h459v310h280z" />
    <glyph glyph-name="twosuperior" unicode="&#xb2;" horiz-adv-x="926" 
d="M23 575l430 467q33 38 44 58.5t11 40.5q0 25 -16 40t-43 15q-34 0 -49 -24.5t-15 -77.5h-322v10q0 169 104.5 263.5t289.5 94.5q176 0 283.5 -87.5t107.5 -231.5q0 -75 -38 -136.5t-126 -127.5l-82 -62h244v-242h-823z" />
    <glyph glyph-name="threesuperior" unicode="&#xb3;" horiz-adv-x="926" 
d="M418 1120h14q45 0 67.5 15t22.5 45q0 23 -15 37t-40 14q-24 0 -37.5 -16t-13.5 -46l-318 1q3 143 98.5 217.5t278.5 74.5q165 0 264 -67.5t99 -177.5q0 -68 -34 -111.5t-104 -65.5q86 -18 130 -70t44 -134q0 -129 -108 -206t-291 -77q-197 0 -308.5 88t-111.5 244v2
l332 -1q2 -43 20.5 -66t53.5 -23q34 0 55 19.5t21 51.5q0 36 -24.5 55t-70.5 19h-24v178z" />
    <glyph glyph-name="acute" unicode="&#xb4;" 
d="M809 1522l-311 -351h-166l180 351h297z" />
    <glyph glyph-name="mu" unicode="&#xb5;" horiz-adv-x="1372" 
d="M602 1087l-84 -614q-2 -22 -3 -33.5t-1 -19.5q0 -68 31.5 -100.5t95.5 -32.5q79 0 124 52t60 161l84 587h418l-158 -1087h-368l18 131q-36 -68 -82.5 -101.5t-105.5 -33.5q-61 0 -105.5 31.5t-70.5 93.5l-72 -543h-412l209 1509h422z" />
    <glyph glyph-name="paragraph" unicode="&#xb6;" 
d="M1014 1337h-101v-1337h-202v1337h-140v-1337h-202v784q-163 8 -261 103t-98 243q0 157 106.5 253t282.5 96h615v-142z" />
    <glyph glyph-name="glyph121" unicode="&#xb7;" horiz-adv-x="702" 
d="M66 721q0 99 82.5 169.5t201.5 70.5t202 -70.5t83 -169.5t-82.5 -169.5t-202.5 -70.5t-202 70.5t-82 169.5z" />
    <glyph glyph-name="cedilla" unicode="&#xb8;" 
d="M238 -440v141q78 -21 146 -32t116 -11q40 0 60 17t20 51q0 31 -26.5 45t-90.5 14q-7 0 -24.5 -1t-26.5 -1v217h123v-84h18q111 0 170 -49.5t59 -142.5q0 -100 -66 -154.5t-188 -54.5q-61 0 -133.5 11t-156.5 34z" />
    <glyph glyph-name="onesuperior" unicode="&#xb9;" horiz-adv-x="926" 
d="M330 1180h-144v266h492v-871h-348v605z" />
    <glyph glyph-name="ordmasculine" unicode="&#xba;" horiz-adv-x="999" 
d="M500 1001q41 0 66.5 28t25.5 73q0 44 -25.5 71t-66.5 27q-42 0 -67 -27t-25 -71q0 -46 25 -73.5t67 -27.5zM952 1102q0 -83 -37 -157.5t-106 -129.5q-62 -49 -140.5 -74.5t-168.5 -25.5t-168 25t-142 75q-68 53 -105.5 128.5t-37.5 158.5t37 157t106 130q64 49 142 74.5
t168 25.5t168.5 -25.5t140.5 -74.5q68 -55 105.5 -130t37.5 -157z" />
    <glyph glyph-name="guillemotright" unicode="&#xbb;" horiz-adv-x="1063" 
d="M698 80l-190 133l215 301l-217 301l192 133l297 -434zM260 80l-192 133l217 301l-219 301l194 133l297 -434z" />
    <glyph glyph-name="onequarter" unicode="&#xbc;" horiz-adv-x="2109" 
d="M1665 0v164h-395v213l346 442h364v-442h99v-213h-99v-164h-315zM1556 377h134v112q0 42 1.5 60t4.5 30q-12 -24 -27.5 -49t-36.5 -51zM543 -39l813 1518h211l-817 -1518h-207zM315 1196h-139v248h471v-811h-332v563z" />
    <glyph glyph-name="onehalf" unicode="&#xbd;" horiz-adv-x="2109" 
d="M1247 0l412 436q31 33 42 53t11 39q0 24 -15 38t-42 14q-31 0 -45.5 -23t-14.5 -74h-307v11q0 158 99 245.5t276 87.5q168 0 270.5 -82t102.5 -215q0 -69 -36.5 -127.5t-119.5 -119.5l-78 -58h232v-225h-787zM543 -39l813 1518h211l-817 -1518h-207zM315 1196h-139v248
h471v-811h-332v563z" />
    <glyph glyph-name="threequarters" unicode="&#xbe;" horiz-adv-x="2109" 
d="M1665 0v164h-395v213l346 442h364v-442h99v-213h-99v-164h-315zM1556 377h134v112q0 42 1.5 60t4.5 30q-12 -24 -27.5 -49t-36.5 -51zM543 -39l813 1518h211l-817 -1518h-207zM399 1141h15q41 0 62.5 14.5t21.5 42.5q0 21 -14 34t-38 13t-36.5 -14.5t-12.5 -42.5h-304
q3 134 95 203t267 69q155 0 250.5 -63.5t95.5 -165.5q0 -63 -33 -103.5t-100 -60.5q82 -17 125 -66t43 -127q0 -119 -104 -191.5t-279 -72.5q-189 0 -294.5 82.5t-105.5 229.5v2h318q0 -41 17.5 -62.5t51.5 -21.5q32 0 52 18t20 47q0 34 -23 52t-67 18h-23v166z" />
    <glyph glyph-name="questiondown" unicode="&#xbf;" horiz-adv-x="1247" 
d="M969 1286q0 -96 -83 -164.5t-202 -68.5t-202 69t-83 164q0 96 82.5 164t202.5 68t202.5 -68t82.5 -164zM844 964l-1 -378q-38 11 -63.5 15.5t-46.5 4.5q-73 0 -115.5 -38t-42.5 -103q0 -49 23.5 -77t65.5 -28q44 0 66.5 30t25.5 91h504q-16 -239 -176 -379.5t-418 -140.5
q-260 0 -422 149t-162 386q0 216 159 349.5t418 133.5q40 0 86.5 -3.5t98.5 -11.5z" />
    <glyph glyph-name="Agrave" unicode="&#xc0;" horiz-adv-x="1507" 
d="M641 532h219l-45 166q-33 126 -45 194t-15 128h-9q-3 -60 -15 -128t-45 -194zM-57 0l522 1464h586l512 -1464h-566l-47 184h-397l-45 -184h-565zM457 1973h297l180 -351h-166z" />
    <glyph glyph-name="Aacute" unicode="&#xc1;" horiz-adv-x="1507" 
d="M641 532h219l-45 166q-33 126 -45 194t-15 128h-9q-3 -60 -15 -128t-45 -194zM-57 0l522 1464h586l512 -1464h-566l-47 184h-397l-45 -184h-565zM1051 1973l-311 -351h-166l180 351h297z" />
    <glyph glyph-name="Acircumflex" unicode="&#xc2;" horiz-adv-x="1507" 
d="M641 532h219l-45 166q-33 126 -45 194t-15 128h-9q-3 -60 -15 -128t-45 -194zM-57 0l522 1464h586l512 -1464h-566l-47 184h-397l-45 -184h-565zM432 1622l185 351h274l182 -351h-153l-166 170l-168 -170h-154z" />
    <glyph glyph-name="Atilde" unicode="&#xc3;" horiz-adv-x="1507" 
d="M641 532h219l-45 166q-33 126 -45 194t-15 128h-9q-3 -60 -15 -128t-45 -194zM-57 0l522 1464h586l512 -1464h-566l-47 184h-397l-45 -184h-565zM1086 1948q-30 -133 -83 -194.5t-136 -61.5q-19 0 -37.5 3t-38.5 9l-92 27q-23 6 -40 9t-28 3q-33 0 -54.5 -18.5
t-35.5 -59.5h-119q28 126 80.5 186t134.5 60q20 0 42.5 -3.5t47.5 -10.5l95 -27q12 -4 26 -6t31 -2q33 0 55 22t33 64h119z" />
    <glyph glyph-name="Adieresis" unicode="&#xc4;" horiz-adv-x="1507" 
d="M641 532h219l-45 166q-33 126 -45 194t-15 128h-9q-3 -60 -15 -128t-45 -194zM-57 0l522 1464h586l512 -1464h-566l-47 184h-397l-45 -184h-565zM799 1807q0 58 45 102.5t105 44.5q61 0 104 -43t43 -104q0 -66 -41.5 -108t-105.5 -42q-62 0 -106 43.5t-44 106.5z
M410 1807q0 58 45 102.5t104 44.5q62 0 105 -43t43 -104q0 -66 -41.5 -108t-106.5 -42q-62 0 -105.5 43.5t-43.5 106.5z" />
    <glyph glyph-name="Aring" unicode="&#xc5;" horiz-adv-x="1507" 
d="M651 1704q0 -45 31 -76t76 -31q44 0 75 31t31 76t-31 76.5t-75 31.5t-75.5 -31.5t-31.5 -76.5zM641 532h219l-51 185q-19 68 -32 148t-21 175h-11q-10 -106 -23.5 -188t-29.5 -135zM-57 0l536 1464l166 -4v4q-71 30 -113.5 96t-42.5 144q0 112 78.5 190t190.5 78
q111 0 189.5 -78.5t78.5 -189.5q0 -83 -40 -144.5t-116 -95.5v-4l164 4l529 -1464h-566l-47 184h-397l-45 -184h-565z" />
    <glyph glyph-name="AE" unicode="&#xc6;" horiz-adv-x="1868" 
d="M637 528h219l-72 293q-14 56 -21 106.5t-7 96.5h-13q-4 -63 -11 -114t-17 -89zM-63 0l518 1464h1026l135 -393h-442l51 -143h440l131 -381h-442l53 -150h440l138 -397h-998l-45 180h-397l-49 -180h-559z" />
    <glyph glyph-name="Ccedilla" unicode="&#xc7;" horiz-adv-x="1309" 
d="M1214 883q-72 69 -147 103t-158 34q-129 0 -207.5 -79.5t-78.5 -211.5q0 -129 75 -206t201 -77q76 0 154.5 32.5t171.5 103.5l-17 -551q-86 -35 -172 -52.5t-172 -17.5q-107 0 -206 24t-179 68q-194 112 -293.5 283t-99.5 393q0 164 56.5 304t164.5 247
q109 108 252.5 163.5t310.5 55.5q89 0 175.5 -18.5t168.5 -55.5v-542zM543 -440v141q78 -21 146 -32t116 -11q40 0 60 17t20 51q0 31 -26.5 45t-90.5 14q-7 0 -24.5 -1t-26.5 -1v217h123v-84h18q111 0 170 -49.5t59 -142.5q0 -100 -66 -154.5t-188 -54.5q-61 0 -133.5 11
t-156.5 34z" />
    <glyph glyph-name="Egrave" unicode="&#xc8;" horiz-adv-x="1204" 
d="M137 0v1464h979v-397h-463v-141h420v-375h-420v-154h475v-397h-991zM328 1973h297l180 -351h-166z" />
    <glyph glyph-name="Eacute" unicode="&#xc9;" horiz-adv-x="1204" 
d="M137 0v1464h979v-397h-463v-141h420v-375h-420v-154h475v-397h-991zM922 1973l-311 -351h-166l180 351h297z" />
    <glyph glyph-name="Ecircumflex" unicode="&#xca;" horiz-adv-x="1204" 
d="M137 0v1464h979v-397h-463v-141h420v-375h-420v-154h475v-397h-991zM303 1622l185 351h274l182 -351h-153l-166 170l-168 -170h-154z" />
    <glyph glyph-name="Edieresis" unicode="&#xcb;" horiz-adv-x="1204" 
d="M137 0v1464h979v-397h-463v-141h420v-375h-420v-154h475v-397h-991zM670 1807q0 58 45 102.5t105 44.5q61 0 104 -43t43 -104q0 -66 -41.5 -108t-105.5 -42q-62 0 -106 43.5t-44 106.5zM281 1807q0 58 45 102.5t104 44.5q62 0 105 -43t43 -104q0 -66 -41.5 -108
t-106.5 -42q-62 0 -105.5 43.5t-43.5 106.5z" />
    <glyph glyph-name="Igrave" unicode="&#xcc;" horiz-adv-x="829" 
d="M147 0v1464h535v-1464h-535zM119 1973h297l180 -351h-166z" />
    <glyph glyph-name="Iacute" unicode="&#xcd;" horiz-adv-x="829" 
d="M147 0v1464h535v-1464h-535zM713 1973l-311 -351h-166l180 351h297z" />
    <glyph glyph-name="Icircumflex" unicode="&#xce;" horiz-adv-x="829" 
d="M147 0v1464h535v-1464h-535zM94 1622l185 351h274l182 -351h-153l-166 170l-168 -170h-154z" />
    <glyph glyph-name="Idieresis" unicode="&#xcf;" horiz-adv-x="829" 
d="M147 0v1464h535v-1464h-535zM461 1807q0 58 45 102.5t105 44.5q61 0 104 -43t43 -104q0 -66 -41.5 -108t-105.5 -42q-62 0 -106 43.5t-44 106.5zM72 1807q0 58 45 102.5t104 44.5q62 0 105 -43t43 -104q0 -66 -41.5 -108t-106.5 -42q-62 0 -105.5 43.5t-43.5 106.5z" />
    <glyph glyph-name="Eth" unicode="&#xd0;" horiz-adv-x="1647" 
d="M653 408q12 -2 23.5 -2h34.5q172 0 263 84.5t91 244.5q0 159 -91 241.5t-265 82.5q-23 0 -34 -0.5t-21 -1.5l-1 -154h207v-319h-207v-176zM166 0v571h-166v344h166v549h426q203 0 346 -22.5t233 -69.5q191 -100 292.5 -265t101.5 -376q0 -210 -101 -374t-293 -265
q-92 -48 -236 -70t-384 -22h-385z" />
    <glyph glyph-name="Ntilde" unicode="&#xd1;" horiz-adv-x="1731" 
d="M137 0v1464h516l455 -766q-9 51 -12.5 113t-3.5 162v491h507v-1464h-520l-450 760q8 -49 12 -105.5t4 -126.5v-528h-508zM1198 1948q-30 -133 -83 -194.5t-136 -61.5q-19 0 -37.5 3t-38.5 9l-92 27q-23 6 -40 9t-28 3q-33 0 -54.5 -18.5t-35.5 -59.5h-119
q28 126 80.5 186t134.5 60q20 0 42.5 -3.5t47.5 -10.5l95 -27q12 -4 26 -6t31 -2q33 0 55 22t33 64h119z" />
    <glyph glyph-name="Ograve" unicode="&#xd2;" horiz-adv-x="1735" 
d="M868 453q111 0 178.5 75.5t67.5 200.5q0 126 -67.5 202.5t-178.5 76.5t-179 -77t-68 -202t68 -200.5t179 -75.5zM1651 729q0 -161 -57 -299.5t-167 -247.5q-110 -107 -253.5 -164t-305.5 -57q-164 0 -307 57t-254 166q-109 106 -165 244t-56 301t56 302t165 245
q110 108 253 164.5t308 56.5t308 -56.5t254 -164.5q108 -107 164.5 -246t56.5 -301zM571 1973h297l180 -351h-166z" />
    <glyph glyph-name="Oacute" unicode="&#xd3;" horiz-adv-x="1735" 
d="M868 453q111 0 178.5 75.5t67.5 200.5q0 126 -67.5 202.5t-178.5 76.5t-179 -77t-68 -202t68 -200.5t179 -75.5zM1651 729q0 -161 -57 -299.5t-167 -247.5q-110 -107 -253.5 -164t-305.5 -57q-164 0 -307 57t-254 166q-109 106 -165 244t-56 301t56 302t165 245
q110 108 253 164.5t308 56.5t308 -56.5t254 -164.5q108 -107 164.5 -246t56.5 -301zM1165 1973l-311 -351h-166l180 351h297z" />
    <glyph glyph-name="Ocircumflex" unicode="&#xd4;" horiz-adv-x="1735" 
d="M868 453q111 0 178.5 75.5t67.5 200.5q0 126 -67.5 202.5t-178.5 76.5t-179 -77t-68 -202t68 -200.5t179 -75.5zM1651 729q0 -161 -57 -299.5t-167 -247.5q-110 -107 -253.5 -164t-305.5 -57q-164 0 -307 57t-254 166q-109 106 -165 244t-56 301t56 302t165 245
q110 108 253 164.5t308 56.5t308 -56.5t254 -164.5q108 -107 164.5 -246t56.5 -301zM546 1622l185 351h274l182 -351h-153l-166 170l-168 -170h-154z" />
    <glyph glyph-name="Otilde" unicode="&#xd5;" horiz-adv-x="1735" 
d="M868 453q111 0 178.5 75.5t67.5 200.5q0 126 -67.5 202.5t-178.5 76.5t-179 -77t-68 -202t68 -200.5t179 -75.5zM1651 729q0 -161 -57 -299.5t-167 -247.5q-110 -107 -253.5 -164t-305.5 -57q-164 0 -307 57t-254 166q-109 106 -165 244t-56 301t56 302t165 245
q110 108 253 164.5t308 56.5t308 -56.5t254 -164.5q108 -107 164.5 -246t56.5 -301zM1200 1948q-30 -133 -83 -194.5t-136 -61.5q-19 0 -37.5 3t-38.5 9l-92 27q-23 6 -40 9t-28 3q-33 0 -54.5 -18.5t-35.5 -59.5h-119q28 126 80.5 186t134.5 60q20 0 42.5 -3.5t47.5 -10.5
l95 -27q12 -4 26 -6t31 -2q33 0 55 22t33 64h119z" />
    <glyph glyph-name="Odieresis" unicode="&#xd6;" horiz-adv-x="1735" 
d="M868 453q111 0 178.5 75.5t67.5 200.5q0 126 -67.5 202.5t-178.5 76.5t-179 -77t-68 -202t68 -200.5t179 -75.5zM1651 729q0 -161 -57 -299.5t-167 -247.5q-110 -107 -253.5 -164t-305.5 -57q-164 0 -307 57t-254 166q-109 106 -165 244t-56 301t56 302t165 245
q110 108 253 164.5t308 56.5t308 -56.5t254 -164.5q108 -107 164.5 -246t56.5 -301zM913 1807q0 58 45 102.5t105 44.5q61 0 104 -43t43 -104q0 -66 -41.5 -108t-105.5 -42q-62 0 -106 43.5t-44 106.5zM524 1807q0 58 45 102.5t104 44.5q62 0 105 -43t43 -104
q0 -66 -41.5 -108t-106.5 -42q-62 0 -105.5 43.5t-43.5 106.5z" />
    <glyph glyph-name="multiply" unicode="&#xd7;" horiz-adv-x="1706" 
d="M874 805l426 426l195 -195l-426 -426l426 -426l-195 -194l-426 426l-425 -426l-195 194l426 426l-426 426l195 195z" />
    <glyph glyph-name="Oslash" unicode="&#xd8;" horiz-adv-x="1735" 
d="M772 455q24 -8 49 -11.5t53 -3.5q118 0 191.5 81t73.5 212q0 55 -12 98t-37 78zM964 1007q-26 8 -51.5 11.5t-50.5 3.5q-120 0 -193 -79t-73 -210q0 -54 11.5 -98.5t35.5 -81.5zM387 -90l-135 88l100 143q-133 115 -199.5 262.5t-66.5 327.5q0 162 56.5 302t164.5 247
t251 162t310 55q102 0 196 -22.5t185 -67.5l101 141l125 -88l-95 -139q134 -112 202.5 -261t68.5 -329q0 -162 -57 -301t-167 -246q-109 -107 -251 -163t-308 -56q-100 0 -194.5 22t-184.5 66z" />
    <glyph glyph-name="Ugrave" unicode="&#xd9;" horiz-adv-x="1602" 
d="M121 670v794h526v-798q0 -139 33 -191.5t113 -52.5q79 0 113 54t34 190v798h526v-794q0 -156 -20.5 -257t-65.5 -169q-88 -137 -240 -210t-347 -73q-196 0 -348 73t-240 210q-44 67 -64 167t-20 259zM504 1973h297l180 -351h-166z" />
    <glyph glyph-name="Uacute" unicode="&#xda;" horiz-adv-x="1602" 
d="M121 670v794h526v-798q0 -139 33 -191.5t113 -52.5q79 0 113 54t34 190v798h526v-794q0 -156 -20.5 -257t-65.5 -169q-88 -137 -240 -210t-347 -73q-196 0 -348 73t-240 210q-44 67 -64 167t-20 259zM1098 1973l-311 -351h-166l180 351h297z" />
    <glyph glyph-name="Ucircumflex" unicode="&#xdb;" horiz-adv-x="1602" 
d="M121 670v794h526v-798q0 -139 33 -191.5t113 -52.5q79 0 113 54t34 190v798h526v-794q0 -156 -20.5 -257t-65.5 -169q-88 -137 -240 -210t-347 -73q-196 0 -348 73t-240 210q-44 67 -64 167t-20 259zM479 1622l185 351h274l182 -351h-153l-166 170l-168 -170h-154z" />
    <glyph glyph-name="Udieresis" unicode="&#xdc;" horiz-adv-x="1602" 
d="M121 670v794h526v-798q0 -139 33 -191.5t113 -52.5q79 0 113 54t34 190v798h526v-794q0 -156 -20.5 -257t-65.5 -169q-88 -137 -240 -210t-347 -73q-196 0 -348 73t-240 210q-44 67 -64 167t-20 259zM846 1807q0 58 45 102.5t105 44.5q61 0 104 -43t43 -104
q0 -66 -41.5 -108t-105.5 -42q-62 0 -106 43.5t-44 106.5zM457 1807q0 58 45 102.5t104 44.5q62 0 105 -43t43 -104q0 -66 -41.5 -108t-106.5 -42q-62 0 -105.5 43.5t-43.5 106.5z" />
    <glyph glyph-name="Yacute" unicode="&#xdd;" horiz-adv-x="1305" 
d="M375 0v647l-490 817h600l123 -284q17 -37 40 -110q2 -7 3 -11q11 35 38 103q5 12 7 17l121 285h596l-508 -817v-647h-530zM950 1973l-311 -351h-166l180 351h297z" />
    <glyph glyph-name="Thorn" unicode="&#xde;" horiz-adv-x="1450" 
d="M666 866v-241h82q75 0 115 31t40 89q0 59 -40 90t-115 31h-82zM664 242v-242h-527v1464h527v-188h102q332 0 485.5 -128t153.5 -407q0 -259 -138 -379t-438 -120h-165z" />
    <glyph glyph-name="germandbls" unicode="&#xdf;" horiz-adv-x="1432" 
d="M117 0v1133q0 228 147 343t438 115q275 0 422.5 -105.5t147.5 -301.5q0 -97 -47.5 -168t-139.5 -113q145 -41 221 -146t76 -261q0 -248 -156 -372t-468 -124h-53l-7 293h11q79 0 116 49.5t37 155.5q0 132 -35 181t-126 56v291q6 -1 13 -1.5t19 -0.5q57 0 87 25t30 71
q0 48 -29 76.5t-78 28.5q-68 0 -96.5 -48t-28.5 -171v-1006h-501z" />
    <glyph glyph-name="agrave" unicode="&#xe0;" horiz-adv-x="1389" 
d="M549 520q0 -66 35.5 -106.5t93.5 -40.5q59 0 94 40t35 107q0 68 -35.5 109t-93.5 41t-93.5 -41.5t-35.5 -108.5zM823 0v156q-75 -100 -157 -147.5t-181 -47.5q-180 0 -298.5 153t-118.5 394q0 252 115.5 405.5t301.5 153.5q96 0 174.5 -41.5t145.5 -128.5v137h481v-1034
h-463zM418 1522h297l180 -351h-166z" />
    <glyph glyph-name="aacute" unicode="&#xe1;" horiz-adv-x="1389" 
d="M549 520q0 -66 35.5 -106.5t93.5 -40.5q59 0 94 40t35 107q0 68 -35.5 109t-93.5 41t-93.5 -41.5t-35.5 -108.5zM823 0v156q-75 -100 -157 -147.5t-181 -47.5q-180 0 -298.5 153t-118.5 394q0 252 115.5 405.5t301.5 153.5q96 0 174.5 -41.5t145.5 -128.5v137h481v-1034
h-463zM1012 1522l-311 -351h-166l180 351h297z" />
    <glyph glyph-name="acircumflex" unicode="&#xe2;" horiz-adv-x="1389" 
d="M549 520q0 -66 35.5 -106.5t93.5 -40.5q59 0 94 40t35 107q0 68 -35.5 109t-93.5 41t-93.5 -41.5t-35.5 -108.5zM823 0v156q-75 -100 -157 -147.5t-181 -47.5q-180 0 -298.5 153t-118.5 394q0 252 115.5 405.5t301.5 153.5q96 0 174.5 -41.5t145.5 -128.5v137h481v-1034
h-463zM393 1171l185 351h274l182 -351h-153l-166 170l-168 -170h-154z" />
    <glyph glyph-name="atilde" unicode="&#xe3;" horiz-adv-x="1389" 
d="M549 520q0 -66 35.5 -106.5t93.5 -40.5q59 0 94 40t35 107q0 68 -35.5 109t-93.5 41t-93.5 -41.5t-35.5 -108.5zM823 0v156q-75 -100 -157 -147.5t-181 -47.5q-180 0 -298.5 153t-118.5 394q0 252 115.5 405.5t301.5 153.5q96 0 174.5 -41.5t145.5 -128.5v137h481v-1034
h-463zM1047 1497q-30 -133 -83 -194.5t-136 -61.5q-19 0 -37.5 3t-38.5 9l-92 27q-23 6 -40 9t-28 3q-33 0 -54.5 -18.5t-35.5 -59.5h-119q28 126 80.5 186t134.5 60q20 0 42.5 -3.5t47.5 -10.5l95 -27q12 -4 26 -6t31 -2q33 0 55 22t33 64h119z" />
    <glyph glyph-name="adieresis" unicode="&#xe4;" horiz-adv-x="1389" 
d="M549 520q0 -66 35.5 -106.5t93.5 -40.5q59 0 94 40t35 107q0 68 -35.5 109t-93.5 41t-93.5 -41.5t-35.5 -108.5zM823 0v156q-75 -100 -157 -147.5t-181 -47.5q-180 0 -298.5 153t-118.5 394q0 252 115.5 405.5t301.5 153.5q96 0 174.5 -41.5t145.5 -128.5v137h481v-1034
h-463zM760 1356q0 58 45 102.5t105 44.5q61 0 104 -43t43 -104q0 -66 -41.5 -108t-105.5 -42q-62 0 -106 43.5t-44 106.5zM371 1356q0 58 45 102.5t104 44.5q62 0 105 -43t43 -104q0 -66 -41.5 -108t-106.5 -42q-62 0 -105.5 43.5t-43.5 106.5z" />
    <glyph glyph-name="aring" unicode="&#xe5;" horiz-adv-x="1389" 
d="M610 1368q0 -45 31.5 -76.5t75.5 -31.5q45 0 76.5 31.5t31.5 76.5t-31 76t-77 31q-45 0 -76 -31t-31 -76zM457 1366q0 109 75.5 184.5t184.5 75.5t185.5 -75.5t76.5 -184.5t-76.5 -184.5t-185.5 -75.5t-184.5 75.5t-75.5 184.5zM549 520q0 -66 35.5 -106.5t93.5 -40.5
q59 0 94 40t35 107q0 68 -35.5 109t-93.5 41t-93.5 -41.5t-35.5 -108.5zM823 0v156q-75 -100 -157 -147.5t-181 -47.5q-180 0 -298.5 153t-118.5 394q0 252 115.5 405.5t301.5 153.5q96 0 174.5 -41.5t145.5 -128.5v137h481v-1034h-463z" />
    <glyph glyph-name="ae" unicode="&#xe6;" horiz-adv-x="2032" 
d="M1282 656h225q-3 59 -31 88.5t-81 29.5q-48 0 -76.5 -30t-36.5 -88zM678 244q67 0 107 26.5t40 69.5t-40.5 70.5t-106.5 27.5q-68 0 -109 -27t-41 -71q0 -43 41.5 -69.5t108.5 -26.5zM1024 942q79 63 168 94t192 31q273 0 440 -166t167 -438v-31h-713v-16
q0 -77 27 -115.5t81 -38.5q40 0 66 19t43 61l465 -31q-59 -166 -209 -257t-367 -91q-105 0 -196.5 27t-173.5 82q-105 -54 -220 -81.5t-237 -27.5q-228 0 -361 97.5t-133 263.5q0 169 124 272.5t327 103.5q65 0 140 -14.5t163 -44.5v14q0 84 -69 127t-201 43
q-95 0 -194.5 -23t-241.5 -81v264q114 41 225 61.5t221 20.5q132 0 248 -31t219 -94z" />
    <glyph glyph-name="ccedilla" unicode="&#xe7;" horiz-adv-x="950" 
d="M891 592q-40 35 -82 52.5t-88 17.5q-76 0 -121 -40.5t-45 -107.5q0 -64 44 -104.5t114 -40.5q44 0 88.5 19.5t89.5 57.5v-411q-78 -38 -150.5 -56t-142.5 -18q-115 0 -213 38.5t-174 113.5q-80 80 -122 181.5t-42 215.5q0 79 20.5 153.5t61.5 141.5q78 127 198.5 194.5
t270.5 67.5q66 0 138.5 -14t154.5 -43v-418zM281 -440v141q78 -21 146 -32t116 -11q40 0 60 17t20 51q0 31 -26.5 45t-90.5 14q-7 0 -24.5 -1t-26.5 -1v217h123v-84h18q111 0 170 -49.5t59 -142.5q0 -100 -66 -154.5t-188 -54.5q-61 0 -133.5 11t-156.5 34z" />
    <glyph glyph-name="egrave" unicode="&#xe8;" horiz-adv-x="1321" 
d="M1272 435l-713 -1v-16q0 -79 28.5 -117.5t86.5 -38.5q35 0 61 20.5t41 59.5l465 -31q-61 -168 -210 -259t-365 -91q-120 0 -224.5 36.5t-187.5 106.5q-93 81 -143 187t-50 223q0 118 50.5 224.5t142.5 185.5q83 71 187 107t225 36q166 0 298 -66.5t220 -193.5
q45 -65 67.5 -143.5t22.5 -171.5q0 -24 -0.5 -36t-1.5 -21zM563 660l227 -1q-3 61 -30.5 90t-81.5 29q-48 0 -77.5 -30.5t-37.5 -87.5zM389 1522h297l180 -351h-166z" />
    <glyph glyph-name="eacute" unicode="&#xe9;" horiz-adv-x="1321" 
d="M1272 435l-713 -1v-16q0 -79 28.5 -117.5t86.5 -38.5q35 0 61 20.5t41 59.5l465 -31q-61 -168 -210 -259t-365 -91q-120 0 -224.5 36.5t-187.5 106.5q-93 81 -143 187t-50 223q0 118 50.5 224.5t142.5 185.5q83 71 187 107t225 36q166 0 298 -66.5t220 -193.5
q45 -65 67.5 -143.5t22.5 -171.5q0 -24 -0.5 -36t-1.5 -21zM563 660l227 -1q-3 61 -30.5 90t-81.5 29q-48 0 -77.5 -30.5t-37.5 -87.5zM983 1522l-311 -351h-166l180 351h297z" />
    <glyph glyph-name="ecircumflex" unicode="&#xea;" horiz-adv-x="1321" 
d="M1272 435l-713 -1v-16q0 -79 28.5 -117.5t86.5 -38.5q35 0 61 20.5t41 59.5l465 -31q-61 -168 -210 -259t-365 -91q-120 0 -224.5 36.5t-187.5 106.5q-93 81 -143 187t-50 223q0 118 50.5 224.5t142.5 185.5q83 71 187 107t225 36q166 0 298 -66.5t220 -193.5
q45 -65 67.5 -143.5t22.5 -171.5q0 -24 -0.5 -36t-1.5 -21zM563 660l227 -1q-3 61 -30.5 90t-81.5 29q-48 0 -77.5 -30.5t-37.5 -87.5zM364 1171l185 351h274l182 -351h-153l-166 170l-168 -170h-154z" />
    <glyph glyph-name="edieresis" unicode="&#xeb;" horiz-adv-x="1321" 
d="M1272 435l-713 -1v-16q0 -79 28.5 -117.5t86.5 -38.5q35 0 61 20.5t41 59.5l465 -31q-61 -168 -210 -259t-365 -91q-120 0 -224.5 36.5t-187.5 106.5q-93 81 -143 187t-50 223q0 118 50.5 224.5t142.5 185.5q83 71 187 107t225 36q166 0 298 -66.5t220 -193.5
q45 -65 67.5 -143.5t22.5 -171.5q0 -24 -0.5 -36t-1.5 -21zM563 660l227 -1q-3 61 -30.5 90t-81.5 29q-48 0 -77.5 -30.5t-37.5 -87.5zM731 1356q0 58 45 102.5t105 44.5q61 0 104 -43t43 -104q0 -66 -41.5 -108t-105.5 -42q-62 0 -106 43.5t-44 106.5zM342 1356
q0 58 45 102.5t104 44.5q62 0 105 -43t43 -104q0 -66 -41.5 -108t-106.5 -42q-62 0 -105.5 43.5t-43.5 106.5z" />
    <glyph glyph-name="igrave" unicode="&#xec;" horiz-adv-x="739" 
d="M119 0v1034h502v-1034h-502zM74 1522h297l180 -351h-166z" />
    <glyph glyph-name="iacute" unicode="&#xed;" horiz-adv-x="739" 
d="M119 0v1034h502v-1034h-502zM668 1522l-311 -351h-166l180 351h297z" />
    <glyph glyph-name="icircumflex" unicode="&#xee;" horiz-adv-x="739" 
d="M119 0v1034h502v-1034h-502zM49 1171l185 351h274l182 -351h-153l-166 170l-168 -170h-154z" />
    <glyph glyph-name="idieresis" unicode="&#xef;" horiz-adv-x="739" 
d="M119 0v1034h502v-1034h-502zM416 1356q0 58 45 102.5t105 44.5q61 0 104 -43t43 -104q0 -66 -41.5 -108t-105.5 -42q-62 0 -106 43.5t-44 106.5zM27 1356q0 58 45 102.5t104 44.5q62 0 105 -43t43 -104q0 -66 -41.5 -108t-106.5 -42q-62 0 -105.5 43.5t-43.5 106.5z" />
    <glyph glyph-name="eth" unicode="&#xf0;" horiz-adv-x="1331" 
d="M666 371q54 0 88 37t34 96t-33.5 95t-88.5 36q-56 0 -89.5 -36t-33.5 -95t34 -96t89 -37zM737 907q-33 49 -83 98t-117 99l-258 -125l-66 137l176 88q-10 6 -45.5 25t-60.5 33l196 288q79 -40 149 -81.5t134 -86.5l305 150l86 -131l-256 -127q179 -146 273 -331.5
t94 -393.5q0 -276 -159 -432t-439 -156q-267 0 -436 151t-169 388q0 205 128 333t333 128q53 0 105 -13t110 -41z" />
    <glyph glyph-name="ntilde" unicode="&#xf1;" horiz-adv-x="1376" 
d="M109 0v1034h487v-143q65 89 144 132.5t178 43.5q165 0 261.5 -100t96.5 -273v-694h-502v522q0 77 -16 106t-56 29q-44 0 -67 -34t-23 -101v-522h-503zM1020 1497q-30 -133 -83 -194.5t-136 -61.5q-19 0 -37.5 3t-38.5 9l-92 27q-23 6 -40 9t-28 3q-33 0 -54.5 -18.5
t-35.5 -59.5h-119q28 126 80.5 186t134.5 60q20 0 42.5 -3.5t47.5 -10.5l95 -27q12 -4 26 -6t31 -2q33 0 55 22t33 64h119z" />
    <glyph glyph-name="ograve" unicode="&#xf2;" horiz-adv-x="1331" 
d="M666 373q54 0 88 39t34 102q0 64 -33.5 102.5t-88.5 38.5q-56 0 -89.5 -38.5t-33.5 -102.5t33.5 -102.5t89.5 -38.5zM1270 514q0 -117 -50 -223t-143 -187q-81 -70 -185.5 -106.5t-225.5 -36.5t-225 36t-187 107q-92 78 -142.5 185.5t-50.5 224.5q0 118 50.5 224.5
t142.5 185.5q83 71 187 107t225 36t225.5 -36.5t187.5 -106.5q91 -78 141 -185t50 -225zM369 1522h297l180 -351h-166z" />
    <glyph glyph-name="oacute" unicode="&#xf3;" horiz-adv-x="1331" 
d="M666 373q54 0 88 39t34 102q0 64 -33.5 102.5t-88.5 38.5q-56 0 -89.5 -38.5t-33.5 -102.5t33.5 -102.5t89.5 -38.5zM1270 514q0 -117 -50 -223t-143 -187q-81 -70 -185.5 -106.5t-225.5 -36.5t-225 36t-187 107q-92 78 -142.5 185.5t-50.5 224.5q0 118 50.5 224.5
t142.5 185.5q83 71 187 107t225 36t225.5 -36.5t187.5 -106.5q91 -78 141 -185t50 -225zM963 1522l-311 -351h-166l180 351h297z" />
    <glyph glyph-name="ocircumflex" unicode="&#xf4;" horiz-adv-x="1331" 
d="M666 373q54 0 88 39t34 102q0 64 -33.5 102.5t-88.5 38.5q-56 0 -89.5 -38.5t-33.5 -102.5t33.5 -102.5t89.5 -38.5zM1270 514q0 -117 -50 -223t-143 -187q-81 -70 -185.5 -106.5t-225.5 -36.5t-225 36t-187 107q-92 78 -142.5 185.5t-50.5 224.5q0 118 50.5 224.5
t142.5 185.5q83 71 187 107t225 36t225.5 -36.5t187.5 -106.5q91 -78 141 -185t50 -225zM344 1171l185 351h274l182 -351h-153l-166 170l-168 -170h-154z" />
    <glyph glyph-name="otilde" unicode="&#xf5;" horiz-adv-x="1331" 
d="M666 373q54 0 88 39t34 102q0 64 -33.5 102.5t-88.5 38.5q-56 0 -89.5 -38.5t-33.5 -102.5t33.5 -102.5t89.5 -38.5zM1270 514q0 -117 -50 -223t-143 -187q-81 -70 -185.5 -106.5t-225.5 -36.5t-225 36t-187 107q-92 78 -142.5 185.5t-50.5 224.5q0 118 50.5 224.5
t142.5 185.5q83 71 187 107t225 36t225.5 -36.5t187.5 -106.5q91 -78 141 -185t50 -225zM998 1497q-30 -133 -83 -194.5t-136 -61.5q-19 0 -37.5 3t-38.5 9l-92 27q-23 6 -40 9t-28 3q-33 0 -54.5 -18.5t-35.5 -59.5h-119q28 126 80.5 186t134.5 60q20 0 42.5 -3.5
t47.5 -10.5l95 -27q12 -4 26 -6t31 -2q33 0 55 22t33 64h119z" />
    <glyph glyph-name="odieresis" unicode="&#xf6;" horiz-adv-x="1331" 
d="M666 373q54 0 88 39t34 102q0 64 -33.5 102.5t-88.5 38.5q-56 0 -89.5 -38.5t-33.5 -102.5t33.5 -102.5t89.5 -38.5zM1270 514q0 -117 -50 -223t-143 -187q-81 -70 -185.5 -106.5t-225.5 -36.5t-225 36t-187 107q-92 78 -142.5 185.5t-50.5 224.5q0 118 50.5 224.5
t142.5 185.5q83 71 187 107t225 36t225.5 -36.5t187.5 -106.5q91 -78 141 -185t50 -225zM711 1356q0 58 45 102.5t105 44.5q61 0 104 -43t43 -104q0 -66 -41.5 -108t-105.5 -42q-62 0 -106 43.5t-44 106.5zM322 1356q0 58 45 102.5t104 44.5q62 0 105 -43t43 -104
q0 -66 -41.5 -108t-106.5 -42q-62 0 -105.5 43.5t-43.5 106.5z" />
    <glyph glyph-name="divide" unicode="&#xf7;" horiz-adv-x="1706" 
d="M854 371q74 0 128 -54t54 -129q0 -74 -54 -128t-130 -54t-129 53t-53 129q0 77 53.5 130t130.5 53zM1452 748v-273h-1198v273h1198zM854 1217q74 0 128 -55t54 -130q0 -74 -54 -128t-130 -54t-129 53t-53 129q0 77 54 131t130 54z" />
    <glyph glyph-name="oslash" unicode="&#xf8;" horiz-adv-x="1331" 
d="M623 338q1 0 6 -1q30 -3 45 -3q85 0 137.5 49t52.5 129q0 39 -10.5 67.5t-34.5 53.5zM710 688q-8 2 -19.5 3t-33.5 1q-83 0 -135.5 -50.5t-52.5 -129.5q0 -36 10.5 -65t32.5 -56zM346 -84l-113 64l62 94q-114 85 -174 197.5t-60 242.5q0 119 50 224.5t143 185.5
q83 71 187 107t225 36q69 0 133 -12t125 -37l63 94l119 -65l-62 -95q111 -82 168.5 -193t57.5 -245q0 -118 -49.5 -224t-141.5 -184q-84 -71 -189 -108t-224 -37q-64 0 -127 13t-127 38z" />
    <glyph glyph-name="ugrave" unicode="&#xf9;" horiz-adv-x="1339" 
d="M94 1034h494v-506q0 -109 17.5 -140.5t64.5 -31.5q45 0 62.5 30t17.5 142v506h493v-557q0 -268 -137.5 -392t-435.5 -124q-299 0 -437.5 124t-138.5 392v557zM373 1522h297l180 -351h-166z" />
    <glyph glyph-name="uacute" unicode="&#xfa;" horiz-adv-x="1339" 
d="M94 1034h494v-506q0 -109 17.5 -140.5t64.5 -31.5q45 0 62.5 30t17.5 142v506h493v-557q0 -268 -137.5 -392t-435.5 -124q-299 0 -437.5 124t-138.5 392v557zM967 1522l-311 -351h-166l180 351h297z" />
    <glyph glyph-name="ucircumflex" unicode="&#xfb;" horiz-adv-x="1339" 
d="M94 1034h494v-506q0 -109 17.5 -140.5t64.5 -31.5q45 0 62.5 30t17.5 142v506h493v-557q0 -268 -137.5 -392t-435.5 -124q-299 0 -437.5 124t-138.5 392v557zM348 1171l185 351h274l182 -351h-153l-166 170l-168 -170h-154z" />
    <glyph glyph-name="udieresis" unicode="&#xfc;" horiz-adv-x="1339" 
d="M94 1034h494v-506q0 -109 17.5 -140.5t64.5 -31.5q45 0 62.5 30t17.5 142v506h493v-557q0 -268 -137.5 -392t-435.5 -124q-299 0 -437.5 124t-138.5 392v557zM715 1356q0 58 45 102.5t105 44.5q61 0 104 -43t43 -104q0 -66 -41.5 -108t-105.5 -42q-62 0 -106 43.5
t-44 106.5zM326 1356q0 58 45 102.5t104 44.5q62 0 105 -43t43 -104q0 -66 -41.5 -108t-106.5 -42q-62 0 -105.5 43.5t-43.5 106.5z" />
    <glyph glyph-name="yacute" unicode="&#xfd;" horiz-adv-x="1300" 
d="M410 90l-449 944h551l78 -264q1 -4 3 -10q54 -188 64 -281q29 121 46.5 192.5t27.5 104.5l76 258h516l-631 -1456h-534zM948 1522l-311 -351h-166l180 351h297z" />
    <glyph glyph-name="thorn" unicode="&#xfe;" horiz-adv-x="1389" 
d="M717 365q57 0 93 41.5t36 109.5t-36 110t-93 42q-58 0 -93.5 -42t-35.5 -110t35.5 -109.5t93.5 -41.5zM590 141q6 -39 9 -84.5t3 -95.5v-407h-493v1996h493v-516q0 -30 -3.5 -63.5t-10.5 -72.5q66 85 145.5 127t175.5 42q187 0 301.5 -152.5t114.5 -406.5
q0 -241 -117.5 -393t-298.5 -152q-98 0 -178 44.5t-141 133.5z" />
    <glyph glyph-name="ydieresis" unicode="&#xff;" horiz-adv-x="1300" 
d="M410 90l-449 944h551l78 -264q1 -4 3 -10q54 -188 64 -281q29 121 46.5 192.5t27.5 104.5l76 258h516l-631 -1456h-534zM696 1356q0 58 45 102.5t105 44.5q61 0 104 -43t43 -104q0 -66 -41.5 -108t-105.5 -42q-62 0 -106 43.5t-44 106.5zM307 1356q0 58 45 102.5
t104 44.5q62 0 105 -43t43 -104q0 -66 -41.5 -108t-106.5 -42q-62 0 -105.5 43.5t-43.5 106.5z" />
    <glyph glyph-name="Cacute" unicode="&#x106;" horiz-adv-x="1309" 
d="M1214 883q-72 69 -147 103t-158 34q-129 0 -207.5 -79.5t-78.5 -211.5q0 -129 75 -206t201 -77q76 0 154.5 32.5t171.5 103.5l-17 -551q-86 -35 -172 -52.5t-172 -17.5q-107 0 -206 24t-179 68q-194 112 -293.5 283t-99.5 393q0 164 56.5 304t164.5 247
q109 108 252.5 163.5t310.5 55.5q89 0 175.5 -18.5t168.5 -55.5v-542zM1161 1973l-311 -351h-166l180 351h297z" />
    <glyph glyph-name="cacute" unicode="&#x107;" horiz-adv-x="950" 
d="M891 592q-40 35 -82 52.5t-88 17.5q-76 0 -121 -40.5t-45 -107.5q0 -64 44 -104.5t114 -40.5q44 0 88.5 19.5t89.5 57.5v-411q-78 -38 -150.5 -56t-142.5 -18q-115 0 -213 38.5t-174 113.5q-80 80 -122 181.5t-42 215.5q0 79 20.5 153.5t61.5 141.5q78 127 198.5 194.5
t270.5 67.5q66 0 138.5 -14t154.5 -43v-418zM870 1522l-311 -351h-166l180 351h297z" />
    <glyph glyph-name="Ccaron" unicode="&#x10c;" horiz-adv-x="1309" 
d="M1214 883q-72 69 -147 103t-158 34q-129 0 -207.5 -79.5t-78.5 -211.5q0 -129 75 -206t201 -77q76 0 154.5 32.5t171.5 103.5l-17 -551q-86 -35 -172 -52.5t-172 -17.5q-107 0 -206 24t-179 68q-194 112 -293.5 283t-99.5 393q0 164 56.5 304t164.5 247
q109 108 252.5 163.5t310.5 55.5q89 0 175.5 -18.5t168.5 -55.5v-542zM542 1973h154l168 -172l166 172h153l-182 -353h-274z" />
    <glyph glyph-name="ccaron" unicode="&#x10d;" horiz-adv-x="950" 
d="M891 592q-40 35 -82 52.5t-88 17.5q-76 0 -121 -40.5t-45 -107.5q0 -64 44 -104.5t114 -40.5q44 0 88.5 19.5t89.5 57.5v-411q-78 -38 -150.5 -56t-142.5 -18q-115 0 -213 38.5t-174 113.5q-80 80 -122 181.5t-42 215.5q0 79 20.5 153.5t61.5 141.5q78 127 198.5 194.5
t270.5 67.5q66 0 138.5 -14t154.5 -43v-418zM251 1522h154l168 -172l166 172h153l-182 -353h-274z" />
    <glyph glyph-name="dcroat" unicode="&#x111;" horiz-adv-x="1407" 
d="M678 664q-58 0 -93.5 -41t-35.5 -109t36 -111t93 -43t93 43t36 111q0 67 -36 108.5t-93 41.5zM1262 1550v-153h155v-256h-155v-1141h-443v152q-67 -97 -149.5 -144t-184.5 -47q-183 0 -300 150.5t-117 390.5q0 227 120.5 378.5t296.5 151.5q98 0 177 -44t140 -133
q-4 38 -6.5 81.5t-2.5 97.5v107h-289v256h289v153h469z" />
    <glyph glyph-name="Gbreve" unicode="&#x11e;" horiz-adv-x="1708" 
d="M1069 524h-229v344h809q2 -45 3 -67t1 -39q0 -126 -24 -230t-70 -184q-112 -188 -289 -287.5t-402 -99.5q-166 0 -308.5 55.5t-252.5 163.5q-109 108 -165 247t-56 302q0 164 56.5 303.5t164.5 245.5q109 107 252 163t309 56q225 0 400 -98.5t286 -288.5l-469 -174
q-37 61 -89 91t-119 30q-117 0 -186.5 -89t-69.5 -239q0 -155 70 -240.5t198 -85.5q76 0 123.5 32t56.5 89zM539 1958h131q6 -71 50.5 -104t133.5 -33q90 0 134.5 33.5t47.5 103.5h131q-12 -159 -87.5 -233t-225.5 -74t-227.5 75.5t-87.5 231.5z" />
    <glyph glyph-name="gbreve" unicode="&#x11f;" horiz-adv-x="1389" 
d="M565 541q0 -60 34 -95.5t91 -35.5q58 0 92.5 35.5t34.5 95.5q0 59 -35 96t-92 37q-56 0 -90.5 -36.5t-34.5 -96.5zM805 94v90q-70 -77 -148 -114t-172 -37q-181 0 -299 136.5t-118 350.5q0 248 114.5 397.5t302.5 149.5q97 0 175.5 -40.5t144.5 -125.5v133h481v-884
q0 -137 -12 -204.5t-39 -123.5q-65 -134 -226.5 -202.5t-412.5 -68.5q-140 0 -260.5 24.5t-220.5 72.5l108 334q86 -54 168.5 -80.5t163.5 -26.5q122 0 186 56t64 163zM379 1507h131q6 -71 50.5 -104t133.5 -33q90 0 134.5 33.5t47.5 103.5h131q-12 -159 -87.5 -233
t-225.5 -74t-227.5 75.5t-87.5 231.5z" />
    <glyph glyph-name="Idotaccent" unicode="&#x130;" horiz-adv-x="829" 
d="M147 0v1464h535v-1464h-535zM262 1807q0 61 46.5 107t107.5 46q66 0 111 -44t45 -109q0 -67 -44.5 -111.5t-111.5 -44.5q-62 0 -108 46.5t-46 109.5z" />
    <glyph glyph-name="dotlessi" unicode="&#x131;" horiz-adv-x="739" 
d="M119 0v1034h502v-1034h-502z" />
    <glyph glyph-name="Lslash" unicode="&#x141;" horiz-adv-x="1233" 
d="M170 0v459l-113 -72l-153 258l266 178v641h526v-354l187 127l178 -254l-365 -246v-280h514v-457h-1040z" />
    <glyph glyph-name="lslash" unicode="&#x142;" horiz-adv-x="764" 
d="M635 1550v-542l94 67l139 -225l-233 -164v-686h-483v424l-89 -62l-145 220l234 168v800h483z" />
    <glyph glyph-name="OE" unicode="&#x152;" horiz-adv-x="2238" 
d="M909 455q117 0 189.5 75.5t72.5 198.5q0 127 -71.5 204t-190.5 77q-117 0 -188.5 -76t-71.5 -203q0 -126 71 -201t189 -75zM1190 0v129q-91 -86 -190.5 -127t-219.5 -41q-98 0 -187.5 24t-164.5 70q-167 104 -256.5 278t-89.5 396q0 164 49.5 304t147.5 249
q93 105 219 160t270 55q118 0 221 -36.5t201 -112.5v116h958v-397h-460v-141h419v-375h-419v-154h473v-397h-971z" />
    <glyph glyph-name="oe" unicode="&#x153;" horiz-adv-x="2017" 
d="M1970 434h-713v-16q0 -79 28.5 -117.5t86.5 -38.5q34 0 59.5 20.5t41.5 59.5l466 -31q-57 -159 -204.5 -254.5t-337.5 -95.5q-102 0 -194.5 31t-180.5 94q-85 -62 -175 -93.5t-181 -31.5q-121 0 -224 36t-190 109q-92 79 -141.5 184.5t-49.5 223.5q0 119 50 224.5
t143 185.5q83 71 187 107t225 36q113 0 197.5 -29.5t154.5 -93.5q79 62 167.5 92.5t190.5 30.5q157 0 288 -67.5t218 -192.5q45 -65 67.5 -144t22.5 -174q0 -22 -0.5 -34t-1.5 -21zM1262 660h225q-4 60 -31.5 89t-81.5 29q-47 0 -76 -30.5t-36 -87.5zM680 369
q62 0 99.5 39.5t37.5 105.5q0 65 -38 105t-99 40t-99 -40t-38 -105q0 -66 37.5 -105.5t99.5 -39.5z" />
    <glyph glyph-name="Scedilla" unicode="&#x15e;" horiz-adv-x="1251" 
d="M4 125l168 410q113 -79 201.5 -115.5t165.5 -36.5q54 0 85 20.5t31 55.5q0 61 -155 93q-50 11 -78 17q-164 40 -251 142t-87 254q0 236 169 384t443 148q126 0 248 -33t246 -100l-160 -383q-76 56 -152.5 85.5t-148.5 29.5q-55 0 -85 -18.5t-30 -51.5q0 -62 219 -109
q35 -8 54 -12q151 -34 238 -139t87 -254q0 -243 -175.5 -397t-456.5 -154q-144 0 -288 41t-288 123zM353 -440v141q78 -21 146 -32t116 -11q40 0 60 17t20 51q0 31 -26.5 45t-90.5 14q-7 0 -24.5 -1t-26.5 -1v217h123v-84h18q111 0 170 -49.5t59 -142.5q0 -100 -66 -154.5
t-188 -54.5q-61 0 -133.5 11t-156.5 34z" />
    <glyph glyph-name="scedilla" unicode="&#x15f;" horiz-adv-x="999" 
d="M0 74l133 319q83 -56 152 -85t118 -29q40 0 61 15.5t21 43.5q0 39 -89 57q-30 6 -47 10q-146 36 -212.5 106.5t-66.5 186.5q0 163 135.5 266t353.5 103q109 0 208.5 -20.5t186.5 -61.5l-123 -311q-70 47 -126 70.5t-97 23.5q-34 0 -55 -14.5t-21 -38.5q0 -39 118 -64
q28 -6 44 -10q151 -36 222 -105.5t71 -181.5q0 -174 -140 -283.5t-370 -109.5q-125 0 -245 28.5t-232 84.5zM226 -440v141q78 -21 146 -32t116 -11q40 0 60 17t20 51q0 31 -26.5 45t-90.5 14q-7 0 -24.5 -1t-26.5 -1v217h123v-84h18q111 0 170 -49.5t59 -142.5
q0 -100 -66 -154.5t-188 -54.5q-61 0 -133.5 11t-156.5 34z" />
    <glyph glyph-name="Scaron" unicode="&#x160;" horiz-adv-x="1251" 
d="M4 125l168 410q113 -79 201.5 -115.5t165.5 -36.5q54 0 85 20.5t31 55.5q0 61 -155 93q-50 11 -78 17q-164 40 -251 142t-87 254q0 236 169 384t443 148q126 0 248 -33t246 -100l-160 -383q-76 56 -152.5 85.5t-148.5 29.5q-55 0 -85 -18.5t-30 -51.5q0 -62 219 -109
q35 -8 54 -12q151 -34 238 -139t87 -254q0 -243 -175.5 -397t-456.5 -154q-144 0 -288 41t-288 123zM305 1973h154l168 -172l166 172h153l-182 -353h-274z" />
    <glyph glyph-name="scaron" unicode="&#x161;" horiz-adv-x="999" 
d="M0 74l133 319q83 -56 152 -85t118 -29q40 0 61 15.5t21 43.5q0 39 -89 57q-30 6 -47 10q-146 36 -212.5 106.5t-66.5 186.5q0 163 135.5 266t353.5 103q109 0 208.5 -20.5t186.5 -61.5l-123 -311q-70 47 -126 70.5t-97 23.5q-34 0 -55 -14.5t-21 -38.5q0 -39 118 -64
q28 -6 44 -10q151 -36 222 -105.5t71 -181.5q0 -174 -140 -283.5t-370 -109.5q-125 0 -245 28.5t-232 84.5zM178 1522h154l168 -172l166 172h153l-182 -353h-274z" />
    <glyph glyph-name="Ydieresis" unicode="&#x178;" horiz-adv-x="1305" 
d="M375 0v647l-490 817h600l123 -284q17 -37 40 -110q2 -7 3 -11q11 35 38 103q5 12 7 17l121 285h596l-508 -817v-647h-530zM698 1807q0 58 45 102.5t105 44.5q61 0 104 -43t43 -104q0 -66 -41.5 -108t-105.5 -42q-62 0 -106 43.5t-44 106.5zM309 1807q0 58 45 102.5
t104 44.5q62 0 105 -43t43 -104q0 -66 -41.5 -108t-106.5 -42q-62 0 -105.5 43.5t-43.5 106.5z" />
    <glyph glyph-name="Zcaron" unicode="&#x17d;" horiz-adv-x="1380" 
d="M-53 0l655 1028h-512v436h1350l-637 -1013h565v-451h-1421zM368 1973h154l168 -172l166 172h153l-182 -353h-274z" />
    <glyph glyph-name="zcaron" unicode="&#x17e;" horiz-adv-x="1120" 
d="M-2 0l412 647h-344v387h1079l-410 -641h357v-393h-1094zM239 1522h154l168 -172l166 172h153l-182 -353h-274z" />
    <glyph glyph-name="florin" unicode="&#x192;" horiz-adv-x="1403" 
d="M451 594h-191l49 285h197l35 200q20 114 46.5 173t71.5 104q59 58 150 91.5t192 33.5q79 0 145 -7t124 -22l-62 -373q-27 8 -46.5 11.5t-33.5 3.5q-46 0 -71.5 -30.5t-38.5 -102.5l-14 -82h184l-53 -285h-183l-84 -461q-32 -174 -66.5 -269t-84.5 -157q-61 -76 -166 -116
t-246 -40q-45 0 -99.5 6t-119.5 17l64 371q18 -4 36.5 -6t34.5 -2q119 0 182 378q5 34 9 54z" />
    <glyph glyph-name="circumflex" unicode="&#x2c6;" 
d="M190 1171l185 351h274l182 -351h-153l-166 170l-168 -170h-154z" />
    <glyph glyph-name="caron" unicode="&#x2c7;" 
d="M190 1522h154l168 -172l166 172h153l-182 -353h-274z" />
    <glyph glyph-name="breve" unicode="&#x2d8;" 
d="M197 1507h131q6 -71 50.5 -104t133.5 -33q90 0 134.5 33.5t47.5 103.5h131q-12 -159 -87.5 -233t-225.5 -74t-227.5 75.5t-87.5 231.5z" />
    <glyph glyph-name="dotaccent" unicode="&#x2d9;" 
d="M358 1356q0 61 46.5 107t107.5 46q66 0 111 -44t45 -109q0 -67 -44.5 -111.5t-111.5 -44.5q-62 0 -108 46.5t-46 109.5z" />
    <glyph glyph-name="ring" unicode="&#x2da;" 
d="M397 1423q0 -48 33 -81t82 -33q48 0 81.5 33.5t33.5 80.5q0 48 -33.5 81.5t-81.5 33.5t-81.5 -33.5t-33.5 -81.5zM242 1423q0 114 78 192.5t192 78.5t193 -78.5t79 -192.5q0 -113 -79 -192.5t-193 -79.5t-192 78.5t-78 193.5z" />
    <glyph glyph-name="ogonek" unicode="&#x2db;" 
d="M633 0q-63 -58 -91 -104.5t-28 -92.5q0 -41 18.5 -60t57.5 -19h102v-191h-74q-156 0 -221 45.5t-65 151.5q0 76 46.5 141t145.5 129h109z" />
    <glyph glyph-name="tilde" unicode="&#x2dc;" 
d="M844 1497q-30 -133 -83 -194.5t-136 -61.5q-19 0 -37.5 3t-38.5 9l-92 27q-23 6 -40 9t-28 3q-33 0 -54.5 -18.5t-35.5 -59.5h-119q28 126 80.5 186t134.5 60q20 0 42.5 -3.5t47.5 -10.5l95 -27q12 -4 26 -6t31 -2q33 0 55 22t33 64h119z" />
    <glyph glyph-name="hungarumlaut" unicode="&#x2dd;" 
d="M563 1171l148 351h262l-275 -351h-135zM387 1522h252l-238 -351h-125z" />
    <glyph glyph-name="Omega" unicode="&#x3a9;" horiz-adv-x="1706" 
d="M1671 350v-350h-661v403q67 81 101 176.5t34 202.5q0 165 -80 263t-213 98t-212 -98t-79 -263q0 -107 34 -202.5t101 -176.5v-403h-661v350h371q-144 82 -215.5 209.5t-71.5 300.5q0 291 201.5 471t531.5 180t532.5 -180.5t202.5 -470.5q0 -173 -71.5 -300.5
t-215.5 -209.5h371z" />
    <glyph glyph-name="pi" unicode="&#x3c0;" horiz-adv-x="1716" 
d="M1661 846h-180l-119 -846h-418l119 846h-227l-119 -846h-418l119 846h-29q-32 0 -57.5 -37t-32.5 -96h-258q36 216 127.5 295t312.5 79h1221z" />
    <glyph glyph-name="endash" unicode="&#x2013;" 
d="M0 326v379h1024v-379h-1024z" />
    <glyph glyph-name="emdash" unicode="&#x2014;" horiz-adv-x="2048" 
d="M0 326v379h2048v-379h-2048z" />
    <glyph glyph-name="quoteleft" unicode="&#x2018;" horiz-adv-x="702" 
d="M719 1464l-236 -725h-501l346 725h391z" />
    <glyph glyph-name="quoteright" unicode="&#x2019;" horiz-adv-x="702" 
d="M-18 739l237 725h500l-344 -725h-393z" />
    <glyph glyph-name="quotesinglbase" unicode="&#x201a;" horiz-adv-x="702" 
d="M-18 -350l237 725h500l-344 -725h-393z" />
    <glyph glyph-name="quotedblleft" unicode="&#x201c;" horiz-adv-x="1341" 
d="M1360 1464l-238 -725h-499l344 725h393zM719 1464l-236 -725h-501l346 725h391z" />
    <glyph glyph-name="quotedblright" unicode="&#x201d;" horiz-adv-x="1341" 
d="M-18 739l237 725h500l-344 -725h-393zM623 739l235 725h502l-346 -725h-391z" />
    <glyph glyph-name="quotedblbase" unicode="&#x201e;" horiz-adv-x="1341" 
d="M623 -350l235 725h502l-346 -725h-391zM-18 -350l237 725h500l-344 -725h-393z" />
    <glyph glyph-name="dagger" unicode="&#x2020;" horiz-adv-x="1327" 
d="M426 -446v1073h-303v444h303v393h475v-393h303v-444h-303v-1073h-475z" />
    <glyph glyph-name="daggerdbl" unicode="&#x2021;" horiz-adv-x="1327" 
d="M453 -446v350h-332v385h332v459h-332v387h332v329h421v-329h332v-387h-332v-459h332v-385h-332v-350h-421z" />
    <glyph glyph-name="bullet" unicode="&#x2022;" horiz-adv-x="1208" 
d="M307 762q0 123 87 209t210 86q122 0 208.5 -86.5t86.5 -208.5t-87.5 -209.5t-209.5 -87.5q-123 0 -209 87t-86 210z" />
    <glyph glyph-name="ellipsis" unicode="&#x2026;" horiz-adv-x="2048" 
d="M56 209q0 99 82.5 169.5t201.5 70.5t202 -70.5t83 -169.5t-82.5 -169.5t-202.5 -70.5t-202 70.5t-82 169.5zM738 209q0 99 82.5 169.5t201.5 70.5t202 -70.5t83 -169.5t-82.5 -169.5t-202.5 -70.5t-202 70.5t-82 169.5zM1422 209q0 99 82.5 169.5t201.5 70.5t202 -70.5
t83 -169.5t-82.5 -169.5t-202.5 -70.5t-202 70.5t-82 169.5z" />
    <glyph glyph-name="perthousand" unicode="&#x2030;" horiz-adv-x="2707" 
d="M428 879q43 0 61.5 44.5t18.5 151.5q0 108 -18.5 153.5t-61.5 45.5t-62.5 -46.5t-19.5 -152.5q0 -105 19.5 -150.5t62.5 -45.5zM803 1075q0 -184 -102.5 -293.5t-274.5 -109.5q-173 0 -275 109t-102 294t102 294.5t275 109.5t275 -109.5t102 -294.5zM2298 168
q43 0 62.5 46.5t19.5 152.5q0 105 -19.5 150.5t-62.5 45.5t-62.5 -45.5t-19.5 -150.5q0 -106 19.5 -152.5t62.5 -46.5zM2675 367q0 -185 -102.5 -295.5t-274.5 -110.5q-173 0 -275 110t-102 296q0 185 102 294t275 109t275 -109t102 -294zM1444 168q42 0 61 45.5t19 153.5
q0 107 -18.5 151.5t-61.5 44.5t-62.5 -45.5t-19.5 -150.5q0 -106 19.5 -152.5t62.5 -46.5zM1819 367q0 -186 -102 -296t-273 -110q-173 0 -275 110t-102 296q0 185 102 294t275 109q172 0 273.5 -109t101.5 -294zM408 -39l845 1518h211l-850 -1518h-206z" />
    <glyph glyph-name="guilsinglleft" unicode="&#x2039;" horiz-adv-x="621" 
d="M362 80l-296 434l296 434l193 -133l-217 -301l215 -301z" />
    <glyph glyph-name="guilsinglright" unicode="&#x203a;" horiz-adv-x="621" 
d="M258 80l-192 133l217 301l-220 301l195 133l297 -434z" />
    <glyph glyph-name="franc" unicode="&#x20a3;" horiz-adv-x="2159" 
d="M137 0v1464h979v-397h-452v-170h409v-375h-409v-522h-527zM1268 0v1034h487v-145q65 89 145 133.5t177 44.5q15 0 22.5 -0.5t13.5 -1.5v-502q-42 23 -77 34t-64 11q-96 0 -148.5 -52t-52.5 -146v-410h-503z" />
    <glyph glyph-name="trademark" unicode="&#x2122;" horiz-adv-x="1706" 
d="M1044 1468l99 -266l98 266h256v-559h-182v367l-137 -367h-70l-137 367v-367h-183v559h256zM690 1468v-151h-162v-408h-202v408h-162v151h526z" />
    <glyph glyph-name="partialdiff" unicode="&#x2202;" horiz-adv-x="1139" 
d="M770 715q25 127 35 210t10 150q0 105 -26.5 159t-77.5 54q-32 0 -57 -21t-52 -71q-44 -80 -91.5 -119t-100.5 -39q-62 0 -103 37.5t-41 95.5q0 87 102.5 148t249.5 61q224 0 352 -162.5t128 -449.5q0 -348 -167.5 -569.5t-432.5 -221.5q-215 0 -338 115.5t-123 317.5
q0 204 126 340.5t308 136.5q96 0 172 -43.5t127 -128.5zM694 553q0 114 -34 172.5t-99 58.5q-90 0 -150.5 -140.5t-60.5 -354.5q0 -115 34 -172.5t101 -57.5q90 0 149.5 140t59.5 354z" />
    <glyph glyph-name="Delta" unicode="&#x2206;" horiz-adv-x="1505" 
d="M958 309l-206 705l-207 -705h413zM991 1473l518 -1473h-1515l518 1473h479z" />
    <glyph glyph-name="product" unicode="&#x220f;" horiz-adv-x="1688" 
d="M139 1473h1399v-1866h-473v1474h-453v-1474h-473v1866z" />
    <glyph glyph-name="summation" unicode="&#x2211;" horiz-adv-x="1583" 
d="M80 1473h1368v-353h-778l559 -557l-541 -600h846v-356h-1475v200l664 738l-643 629v299z" />
    <glyph glyph-name="minus" unicode="&#x2212;" horiz-adv-x="1706" 
d="M1452 750v-277h-1198v277h1198z" />
    <glyph glyph-name="fraction" unicode="&#x2215;" horiz-adv-x="342" 
d="M-342 -39l813 1518h211l-817 -1518h-207z" />
    <glyph glyph-name="periodcentered" unicode="&#x2219;" horiz-adv-x="702" 
d="M66 721q0 99 82.5 169.5t201.5 70.5t202 -70.5t83 -169.5t-82.5 -169.5t-202.5 -70.5t-202 70.5t-82 169.5z" />
    <glyph glyph-name="radical" unicode="&#x221a;" horiz-adv-x="1395" 
d="M1399 1737v-172h-86l-588 -1606h-143l-301 827l-156 -59l-41 154l395 139l209 -600l483 1317h228z" />
    <glyph glyph-name="infinity" unicode="&#x221e;" horiz-adv-x="1706" 
d="M975 561q40 -57 95 -86t124 -29q84 0 137 43t53 109q0 65 -48 109.5t-117 44.5q-66 0 -122.5 -44t-121.5 -147zM731 653q-41 58 -95 86.5t-124 28.5q-84 0 -136 -43t-52 -111q0 -64 47.5 -107.5t117.5 -43.5q67 0 123 44t119 146zM856 791q69 128 149 190.5t175 62.5
q143 0 244.5 -126t101.5 -312q0 -194 -90.5 -315t-233.5 -121q-88 0 -164 53t-188 201q-67 -129 -146.5 -191.5t-175.5 -62.5q-144 0 -245 126t-101 312q0 195 89.5 315.5t232.5 120.5q85 0 161 -53t191 -200z" />
    <glyph glyph-name="integral" unicode="&#x222b;" horiz-adv-x="1331" 
d="M379 -244q28 0 54 42t42 114q19 92 26 385q4 185 9 293q23 515 144 742t368 227q118 0 190 -58.5t72 -150.5q0 -69 -46 -112.5t-116 -43.5q-67 0 -101 40.5t-34 119.5q0 2 1 10.5t1 15.5q0 26 -8.5 38t-26.5 12q-103 0 -126 -661q-2 -58 -3 -88q-11 -334 -36 -484.5
t-74 -266.5q-65 -150 -166.5 -226.5t-237.5 -76.5q-118 0 -189 57t-71 152q0 72 45 114t121 42q62 0 96.5 -37.5t34.5 -104.5q0 -12 -1 -30t-1 -23q0 -20 8.5 -30.5t24.5 -10.5z" />
    <glyph glyph-name="approxequal" unicode="&#x2248;" horiz-adv-x="1706" 
d="M1530 309q-106 -69 -195.5 -101t-177.5 -32q-87 0 -280 64.5t-316 64.5q-82 0 -172.5 -37t-210.5 -121v299q115 74 213 108t197 34q119 0 308.5 -64.5t268.5 -64.5q83 0 169 34.5t196 114.5v-299zM1530 774q-106 -70 -195 -101.5t-176 -31.5q-88 0 -281 64.5t-317 64.5
q-84 0 -173 -36t-210 -120v299q116 73 214 106.5t196 33.5q119 0 308.5 -63.5t268.5 -63.5q85 0 171.5 35t193.5 114v-301z" />
    <glyph glyph-name="notequal" unicode="&#x2260;" horiz-adv-x="1706" 
d="M1384 1116l-112 -139h180v-260h-358l-172 -211h530v-262h-704l-242 -299l-199 159l113 140h-166v262h340l170 211h-510v260h690l244 301z" />
    <glyph glyph-name="lessequal" unicode="&#x2264;" horiz-adv-x="1706" 
d="M1454 236v-271h-1200v271h1200zM1452 999l-704 -208l704 -209v-281l-1198 371v237l1198 373v-283z" />
    <glyph glyph-name="greaterequal" unicode="&#x2265;" horiz-adv-x="1706" 
d="M1454 236v-271h-1200v271h1200zM1452 909v-237l-1196 -371v281l705 209l-705 208v283z" />
    <glyph glyph-name="lozenge" unicode="&#x25ca;" horiz-adv-x="1012" 
d="M506 1409l-385 -821l385 -821l385 821zM506 1653l500 -1065l-500 -1065l-500 1065z" />
    <glyph glyph-name="apple" unicode="&#xf000;" horiz-adv-x="1618" 
d="M836 1216q-1 6 -1.5 14t-0.5 23q0 124 95 229.5t236 131.5q1 -10 1.5 -23t0.5 -39q0 -131 -103.5 -234.5t-203.5 -103.5h-8q-3 0 -7.5 1t-8.5 1zM1505 403q-114 -247 -205 -342.5t-204 -95.5q-50 0 -131.5 33t-122.5 33q-45 0 -131 -33t-127 -33q-64 0 -128.5 44
t-129.5 132q-102 140 -157.5 295.5t-55.5 300.5q0 219 125 356.5t323 137.5q68 0 155 -34t124 -34q34 0 121.5 34t152.5 34q111 0 199 -39.5t160 -122.5q-102 -65 -151.5 -145.5t-49.5 -182.5q0 -113 60 -200t173 -138z" />
    <glyph glyph-name="fi" unicode="&#xf001;" horiz-adv-x="1612" 
d="M1513 1356q0 -110 -73.5 -176t-198.5 -66q-124 0 -197 65.5t-73 176.5t72.5 175t197.5 64q126 0 199 -64.5t73 -174.5zM991 0v1034h502v-1034h-502zM176 0v653h-135v381h135v117q0 214 115 329t330 115q56 0 112 -6t113 -18v-389q-8 1 -22 3q-37 5 -50 5q-52 0 -74 -28
t-22 -97v-31h168v-381h-168v-653h-502z" />
    <glyph glyph-name="fl" unicode="&#xf002;" horiz-adv-x="1612" 
d="M991 0v1550h502v-1550h-502zM176 0v653h-135v381h135v117q0 214 115 329t330 115q56 0 112 -6t113 -18v-389q-8 1 -22 3q-37 5 -50 5q-52 0 -74 -28t-22 -97v-31h168v-381h-168v-653h-502z" />
    </font>
</defs>
</svg>
