<?xml version="1.0" standalone="no"?>
<!DOCTYPE svg PUBLIC "-//W3C//DTD SVG 1.1//EN" "http://www.w3.org/Graphics/SVG/1.1/DTD/svg11.dtd" >
<svg xmlns="http://www.w3.org/2000/svg" xmlns:xlink="http://www.w3.org/1999/xlink" version="1.1">
<metadata>
Created by FontForge 20161013 at Tue Nov 24 21:23:43 1992
 By ,,,
Copyright 1990-1993 Bitstream Inc.  All rights reserved.
</metadata>
<defs>
<font id="FuturaBT-LightCondensed" horiz-adv-x="1024" >
  <font-face 
    font-family="Futura LtCn BT"
    font-weight="400"
    font-stretch="condensed"
    units-per-em="2048"
    panose-1="2 11 4 8 2 2 4 3 2 4"
    ascent="1638"
    descent="-410"
    x-height="981"
    cap-height="1460"
    bbox="-225 -483 2048 1972"
    underline-thickness="82"
    underline-position="-320"
    unicode-range="U+0020-F002"
  />
<missing-glyph horiz-adv-x="1229" 
d="M102 -362v1806h1024v-1806h-1024zM217 -248h795v1577h-795v-1577z" />
    <glyph glyph-name=".notdef" horiz-adv-x="1229" 
d="M102 -362v1806h1024v-1806h-1024zM217 -248h795v1577h-795v-1577z" />
    <glyph glyph-name=".null" horiz-adv-x="0" 
 />
    <glyph glyph-name="nonmarkingreturn" horiz-adv-x="397" 
 />
    <glyph glyph-name="space" unicode=" " horiz-adv-x="397" 
 />
    <glyph glyph-name="exclam" unicode="!" horiz-adv-x="512" 
d="M193 1460h126v-1108h-126v1108zM256 164q40 0 66 -26t26 -64t-27 -65t-65 -27q-36 0 -64 28t-28 64q0 38 26.5 64t65.5 26z" />
    <glyph glyph-name="quotedbl" unicode="&#x22;" horiz-adv-x="551" 
d="M451 1434v-553h-86v553h86zM186 1434v-553h-86v553h86z" />
    <glyph glyph-name="numbersign" unicode="#" horiz-adv-x="1575" 
d="M979 866h-270l-99 -282h269zM915 1454l-174 -498h271l176 498h110l-174 -498h322l-31 -90h-323l-101 -282h348l-30 -90h-351l-174 -494h-112l176 494h-270l-179 -494h-110l174 494h-334l31 90h336l100 282h-360l28 90h365l176 498h110z" />
    <glyph glyph-name="dollar" unicode="$" horiz-adv-x="797" 
d="M160 227q46 -48 101.5 -73t115.5 -25q102 0 170.5 69.5t68.5 170.5q0 56 -14.5 100t-46.5 80q-46 53 -164 130q-33 22 -49 34q-146 103 -200 186t-54 193q0 119 54.5 207.5t152.5 127.5v183h72v-164h5q36 4 52 4h20v160h72v-166q46 -8 93 -28t96 -54l-66 -100
q-50 37 -99 54t-106 17q-94 0 -157.5 -64.5t-63.5 -160.5q0 -76 39.5 -137t142.5 -137q23 -17 70 -49q121 -81 176 -140q49 -52 75.5 -118t26.5 -136q0 -125 -59.5 -219.5t-167.5 -140.5v-185h-72v166q-24 -4 -42.5 -6t-34.5 -2v-158h-72v166q-58 11 -111.5 40.5
t-109.5 80.5z" />
    <glyph glyph-name="percent" unicode="%" horiz-adv-x="1319" 
d="M1032 782q-61 0 -90 -84.5t-29 -267.5q0 -182 29 -268t90 -86t90 85.5t29 268.5t-28.5 267.5t-90.5 84.5zM811 428q0 230 54 339.5t167 109.5t167 -109.5t54 -339.5q0 -229 -53.5 -337.5t-167.5 -108.5q-113 0 -167 108.5t-54 337.5zM285 1384q-62 0 -90.5 -84.5
t-28.5 -267.5q0 -182 29 -268t90 -86t89.5 85.5t28.5 268.5t-28.5 267.5t-89.5 84.5zM63 1030q0 231 53.5 340t166.5 109t168 -110t55 -339q0 -228 -54.5 -337t-168.5 -109q-113 0 -166.5 107.5t-53.5 338.5zM315 -18l586 1497h100l-585 -1497h-101z" />
    <glyph glyph-name="ampersand" unicode="&#x26;" horiz-adv-x="930" 
d="M410 877q91 88 138.5 167t47.5 144q0 67 -41 110t-104 43q-67 0 -109.5 -48t-42.5 -124q0 -49 27 -120.5t84 -171.5zM377 694q-77 -68 -117.5 -149t-40.5 -168q0 -117 65.5 -196t161.5 -79q49 0 98 25.5t97 75.5zM696 100q-60 -57 -125 -85.5t-135 -28.5
q-142 0 -239 109.5t-97 271.5q0 121 54 227.5t163 202.5q-80 149 -108.5 228t-28.5 142q0 128 78.5 205.5t208.5 77.5q106 0 175 -74t69 -188q0 -97 -62 -198.5t-186 -209.5l266 -489q31 31 57.5 60.5t51.5 62.5l82 -82q-37 -46 -69.5 -81.5t-66.5 -66.5l99 -184h-135z" />
    <glyph glyph-name="quotesingle" unicode="'" horiz-adv-x="285" 
d="M186 1434v-553h-86v553h86z" />
    <glyph glyph-name="parenleft" unicode="(" horiz-adv-x="502" 
d="M362 1587l115 -51q-116 -225 -174.5 -463t-58.5 -485q0 -248 58.5 -484.5t174.5 -461.5l-115 -52q-123 253 -184 500.5t-61 497.5q0 251 61 499.5t184 499.5z" />
    <glyph glyph-name="parenright" unicode=")" horiz-adv-x="502" 
d="M139 -410l-112 52q115 222 173 459.5t58 486.5t-58 487t-173 461l112 51q124 -251 185 -499.5t61 -499.5q0 -250 -61 -497.5t-185 -500.5z" />
    <glyph glyph-name="asterisk" unicode="*" horiz-adv-x="711" 
d="M313 1112l-161 -104l-33 65l168 107l-168 108l35 66l159 -105v211h82v-211l160 105l35 -66l-170 -108l170 -107l-35 -65l-160 104v-211h-82v211z" />
    <glyph glyph-name="plus" unicode="+" horiz-adv-x="1706" 
d="M893 1221v-570h559v-82h-559v-569h-80v569h-559v82h559v570h80z" />
    <glyph glyph-name="comma" unicode="," horiz-adv-x="397" 
d="M-12 -266l184 438l129 -63l-225 -422z" />
    <glyph glyph-name="hyphen" unicode="-" horiz-adv-x="551" 
d="M78 559h393v-110h-393v110z" />
    <glyph glyph-name="period" unicode="." horiz-adv-x="397" 
d="M199 164q39 0 65.5 -26t26.5 -64t-27.5 -65t-64.5 -27t-65 28t-28 64q0 38 27 64t66 26z" />
    <glyph glyph-name="slash" unicode="/" horiz-adv-x="569" 
d="M506 1479h112l-622 -1669h-113z" />
    <glyph glyph-name="zero" unicode="0" horiz-adv-x="797" 
d="M397 1356q-99 0 -144.5 -153t-45.5 -488q0 -313 46.5 -462t143.5 -149q100 0 146.5 150.5t46.5 476.5q0 325 -46.5 475t-146.5 150zM72 729q0 385 79 567.5t246 182.5t246.5 -183.5t79.5 -566.5q0 -382 -79.5 -564.5t-246.5 -182.5t-246 181t-79 566z" />
    <glyph glyph-name="one" unicode="1" horiz-adv-x="797" 
d="M346 1339h-190l30 121h289v-1460h-129v1339z" />
    <glyph glyph-name="two" unicode="2" horiz-adv-x="797" 
d="M215 1067h-127v20q0 189 76.5 290.5t218.5 101.5q129 0 213 -93.5t84 -240.5q0 -129 -83.5 -340t-334.5 -682h404v-123h-607q304 573 397 797t93 344q0 97 -45 156t-119 59q-84 0 -127 -66.5t-43 -195.5v-27z" />
    <glyph glyph-name="three" unicode="3" horiz-adv-x="797" 
d="M223 393v-31q0 -129 39.5 -192.5t120.5 -63.5q87 0 132.5 80t45.5 232q0 179 -56.5 249t-197.5 70q-7 0 -22.5 -1t-24.5 -1l1 123q9 -1 20 -1.5t32 -0.5q127 0 181.5 65t54.5 218q0 104 -40.5 158.5t-117.5 54.5q-71 0 -110 -55.5t-39 -155.5v-15l-131 1q4 172 76.5 262
t207.5 90q133 0 208 -94t75 -261q0 -134 -43.5 -216t-126.5 -105q93 -35 138.5 -130t45.5 -255q0 -206 -83.5 -321t-231.5 -115q-137 0 -212 99t-75 279v33h133z" />
    <glyph glyph-name="four" unicode="4" horiz-adv-x="797" 
d="M199 512h288v240q0 131 7 276.5t20 304.5q-23 -66 -49 -136.5t-55 -145.5zM487 397h-405v121l391 942h137v-948h107v-115h-107v-397h-123v397z" />
    <glyph glyph-name="five" unicode="5" horiz-adv-x="797" 
d="M154 186q53 -38 103 -56.5t97 -18.5q103 0 161 82t58 229q0 162 -59.5 251t-167.5 89q-57 0 -109.5 -17.5t-101.5 -52.5l92 768h441v-119h-334l-53 -462q31 5 52 7.5t38 2.5q147 0 241.5 -122.5t94.5 -320.5q0 -214 -94 -339t-253 -125q-64 0 -125 17t-122 52z" />
    <glyph glyph-name="six" unicode="6" horiz-adv-x="797" 
d="M416 709q-84 0 -130 -75.5t-46 -213.5q0 -155 46.5 -238.5t133.5 -83.5q82 0 127 80t45 225q0 149 -45.5 227.5t-130.5 78.5zM242 944l215 516h137l-305 -704q40 34 80.5 49.5t87.5 15.5q119 0 192.5 -111t73.5 -296q0 -200 -80 -316t-217 -116q-149 0 -232 109.5
t-83 307.5q0 126 31.5 258t99.5 287z" />
    <glyph glyph-name="seven" unicode="7" horiz-adv-x="797" 
d="M567 1341h-440v119h606l-461 -1460h-131z" />
    <glyph glyph-name="eight" unicode="8" horiz-adv-x="797" 
d="M395 1362q-71 0 -113 -64t-42 -174q0 -126 41 -194t118 -68q74 0 116 66.5t42 183.5q0 122 -41.5 186t-120.5 64zM397 98q85 0 133 80t48 223q0 168 -46.5 256t-134.5 88q-87 0 -133.5 -80t-46.5 -233q0 -159 47.5 -246.5t132.5 -87.5zM528 807q93 -36 137 -133t44 -264
q0 -203 -82.5 -315.5t-229.5 -112.5t-228 112t-81 316q0 167 44 264t136 133q-72 28 -112.5 111t-40.5 204q0 169 74.5 263t207.5 94t209 -94.5t76 -262.5q0 -121 -40.5 -204t-113.5 -111z" />
    <glyph glyph-name="nine" unicode="9" horiz-adv-x="797" 
d="M410 752q83 0 129.5 75.5t46.5 212.5q0 155 -47 238.5t-133 83.5q-83 0 -128 -81t-45 -232q0 -143 46 -220t131 -77zM584 516l-215 -516h-138l306 705q-38 -34 -78.5 -50t-85.5 -16q-124 0 -197.5 109.5t-73.5 295.5q0 201 81 318t218 117q149 0 231.5 -109.5
t82.5 -308.5q0 -125 -32 -257.5t-99 -287.5z" />
    <glyph glyph-name="colon" unicode=":" horiz-adv-x="397" 
d="M199 745q39 0 65.5 -26.5t26.5 -65.5q0 -37 -27 -63.5t-65 -26.5q-37 0 -65 27.5t-28 62.5q0 39 27 65.5t66 26.5zM199 164q39 0 65.5 -26t26.5 -64t-27.5 -65t-64.5 -27t-65 28t-28 64q0 38 27 64t66 26z" />
    <glyph glyph-name="semicolon" unicode=";" horiz-adv-x="397" 
d="M205 752q39 0 65.5 -27t26.5 -66q0 -37 -27 -64.5t-65 -27.5q-36 0 -63 28t-27 64q0 39 26 66t64 27zM-12 -266l184 438l129 -63l-225 -422z" />
    <glyph glyph-name="less" unicode="&#x3c;" horiz-adv-x="1706" 
d="M1442 1034l-1045 -424l1045 -424v-88l-1178 482v61l1178 483v-90z" />
    <glyph glyph-name="equal" unicode="=" horiz-adv-x="1706" 
d="M1452 469v-82h-1198v82h1198zM1452 831v-79h-1198v79h1198z" />
    <glyph glyph-name="greater" unicode="&#x3e;" horiz-adv-x="1706" 
d="M1442 641v-61l-1178 -482v88l1045 424l-1045 424v90z" />
    <glyph glyph-name="question" unicode="?" horiz-adv-x="653" 
d="M274 164q40 0 66.5 -26t26.5 -64t-27.5 -65t-65.5 -27q-36 0 -64 28t-28 64q0 38 27 64t65 26zM205 827h78q101 0 136.5 58t35.5 243q0 147 -26 194.5t-93 47.5q-57 0 -86 -41t-29 -123v-112h-123v96q0 154 56 221.5t184 67.5q130 0 188 -79t58 -259q0 -231 -57.5 -326.5
t-192.5 -99.5v-353h-129v465z" />
    <glyph glyph-name="at" unicode="@" horiz-adv-x="2048" 
d="M1303 827l61 129h80l-137 -553q-10 -36 -15.5 -64.5t-5.5 -43.5q0 -44 30.5 -68t86.5 -24q48 0 100 19.5t103 56.5q101 74 162 207t61 282q0 273 -199.5 439.5t-525.5 166.5q-168 0 -310.5 -48t-258.5 -144q-154 -128 -232 -297t-78 -375q0 -327 221.5 -522t591.5 -195
q161 0 324 50.5t299 142.5l29 -45q-146 -110 -308.5 -165t-339.5 -55q-187 0 -343 46.5t-277 138.5q-152 115 -226.5 267.5t-74.5 348.5q0 162 50.5 307t147.5 265q144 175 345.5 265.5t449.5 90.5q160 0 304.5 -44t248.5 -124q128 -98 194 -226.5t66 -277.5
q0 -169 -63 -308t-181 -232q-67 -54 -145.5 -82.5t-159.5 -28.5q-95 0 -143.5 36.5t-48.5 108.5q0 12 3 34q1 3 1 5q-49 -88 -125 -136t-166 -48q-154 0 -233.5 83t-79.5 243q0 228 134.5 386t326.5 158q95 0 160 -43t96 -127zM1219 467l63 254q-22 99 -81.5 151t-151.5 52
q-152 0 -255.5 -138t-103.5 -340q0 -115 57.5 -180t159.5 -65q111 0 196 72.5t116 193.5z" />
    <glyph glyph-name="A" unicode="A" horiz-adv-x="750" 
d="M358 1092l-120 -680h288l-118 681q-7 40 -13 95.5t-10 121.5q-5 -63 -11.5 -117t-15.5 -101zM319 1460h127l297 -1460h-135l-57 295h-334l-51 -295h-137z" />
    <glyph glyph-name="B" unicode="B" horiz-adv-x="825" 
d="M281 1341v-530h81q104 0 149.5 61.5t45.5 204.5q0 144 -43.5 204t-144.5 60h-88zM281 692v-573h61q138 0 191 60t53 218q0 153 -53.5 224t-167.5 71h-84zM147 1460h218q168 0 247.5 -90t79.5 -283q0 -140 -48.5 -226.5t-137.5 -106.5q112 -32 164.5 -120.5t52.5 -244.5
q0 -195 -90.5 -292t-272.5 -97h-213v1460z" />
    <glyph glyph-name="C" unicode="C" horiz-adv-x="674" 
d="M655 39q-42 -24 -90.5 -36.5t-99.5 -12.5q-198 0 -293.5 179.5t-95.5 549.5q0 369 102 559t301 190q50 0 94.5 -10t85.5 -31v-143q-47 31 -86.5 45t-78.5 14q-144 0 -211.5 -147t-67.5 -459q0 -339 62.5 -479.5t207.5 -140.5q30 0 57.5 6t53.5 18q15 7 30 16.5t29 20.5
v-139z" />
    <glyph glyph-name="D" unicode="D" horiz-adv-x="834" 
d="M281 1339v-1216h26q177 0 245.5 121t68.5 463q0 383 -66 507.5t-240 124.5h-34zM147 1460h166q249 0 347 -155.5t98 -579.5q0 -403 -101 -564t-348 -161h-162v1460z" />
    <glyph glyph-name="E" unicode="E" horiz-adv-x="707" 
d="M147 1460h459v-123h-325v-526h321v-119h-321v-569h335v-123h-469v1460z" />
    <glyph glyph-name="F" unicode="F" horiz-adv-x="664" 
d="M147 1460h459v-123h-325v-518h321v-117h-321v-702h-134v1460z" />
    <glyph glyph-name="G" unicode="G" horiz-adv-x="782" 
d="M723 1206l-123 -51q-23 97 -67 147t-107 50q-108 0 -160.5 -153t-52.5 -468q0 -335 49.5 -481t161.5 -146q86 0 127 76.5t41 239.5v221h-203v123h334v-328q0 -228 -76.5 -342t-228.5 -114q-178 0 -260 178.5t-82 570.5q0 383 87.5 566.5t270.5 183.5q102 0 176.5 -70.5
t112.5 -202.5z" />
    <glyph glyph-name="H" unicode="H" horiz-adv-x="909" 
d="M147 1460h134v-588h348v588h133v-1460h-133v756h-348v-756h-134v1460z" />
    <glyph glyph-name="I" unicode="I" horiz-adv-x="426" 
d="M147 0v1460h134v-1460h-134z" />
    <glyph glyph-name="J" unicode="J" horiz-adv-x="526" 
d="M6 156q27 -27 61 -41.5t72 -14.5q61 0 85 43.5t24 165.5v1151h131v-1165q0 -171 -49.5 -243t-163.5 -72q-42 0 -82 8.5t-78 25.5v142z" />
    <glyph glyph-name="K" unicode="K" horiz-adv-x="725" 
d="M147 1460h134v-1460h-134v1460zM590 1460h135l-315 -700l315 -760h-141l-303 754z" />
    <glyph glyph-name="L" unicode="L" horiz-adv-x="588" 
d="M147 1460h134v-1339h313v-121h-447v1460z" />
    <glyph glyph-name="M" unicode="M" horiz-adv-x="1081" 
d="M236 1460h118l148 -946q4 -26 27 -225q8 -80 14 -127q7 80 19 168t28 184l158 946h114l178 -1460h-122l-99 956q0 6 -2 21q-15 163 -24 296q-12 -135 -22 -219t-21 -148l-152 -906h-115l-145 942q-1 7 -4 23q-28 177 -39 308q-6 -67 -14 -171q-12 -153 -15 -173
l-106 -929h-121z" />
    <glyph glyph-name="N" unicode="N" horiz-adv-x="901" 
d="M147 1460h115l330 -999q7 -21 28 -102.5t52 -204.5q-16 131 -23.5 268t-7.5 283v755h115v-1460h-115l-322 983q-22 70 -44 148.5t-46 177.5q17 -155 25 -292t8 -255v-762h-115v1460z" />
    <glyph glyph-name="O" unicode="O" horiz-adv-x="877" 
d="M438 1356q-116 0 -170.5 -150.5t-54.5 -474.5t54.5 -475.5t170.5 -151.5q117 0 171.5 149.5t54.5 477.5q0 327 -54.5 476t-171.5 149zM76 729q0 384 88 567t274 183t274.5 -183t88.5 -567t-88.5 -565.5t-274.5 -181.5t-274 181.5t-88 565.5z" />
    <glyph glyph-name="P" unicode="P" horiz-adv-x="743" 
d="M281 1341v-522h73q112 0 160.5 62t48.5 204q0 133 -53 194.5t-166 61.5h-63zM147 1460h187q190 0 276 -93.5t86 -299.5q0 -190 -83 -278.5t-261 -88.5h-71v-700h-134v1460z" />
    <glyph glyph-name="Q" unicode="Q" horiz-adv-x="877" 
d="M541 143l-133 207l90 60l116 -187q24 71 37 200.5t13 307.5q0 327 -54.5 476t-171.5 149q-116 0 -170.5 -150.5t-54.5 -474.5q0 -331 54.5 -479t174.5 -148q29 0 53 9.5t46 29.5zM604 39q-38 -29 -79 -43t-87 -14q-186 0 -274 181.5t-88 565.5t88 567t274 183t274.5 -183
t88.5 -567q0 -219 -29 -370.5t-88 -237.5l104 -160l-92 -61z" />
    <glyph glyph-name="R" unicode="R" horiz-adv-x="782" 
d="M281 1337v-528h63q111 0 162 62.5t51 199.5q0 141 -50 203.5t-163 62.5h-63zM147 1460h162q210 0 297.5 -87.5t87.5 -295.5q0 -174 -66 -263t-204 -99l317 -715h-139l-321 754v-754h-134v1460z" />
    <glyph glyph-name="S" unicode="S" horiz-adv-x="750" 
d="M90 225q53 -59 111 -89t121 -30q102 0 167.5 74t65.5 191q0 50 -13.5 92t-41.5 78q-43 55 -152 135q-44 32 -65 49q-111 90 -160 177.5t-49 195.5q0 164 97 272.5t243 108.5q58 0 114.5 -20t110.5 -60v-172q-44 62 -100 94.5t-119 32.5q-95 0 -154 -67.5t-59 -176.5
q0 -92 40 -158.5t189 -177.5q154 -113 203 -196.5t49 -198.5q0 -174 -100 -285.5t-254 -111.5q-67 0 -127 17t-117 52v174z" />
    <glyph glyph-name="T" unicode="T" horiz-adv-x="621" 
d="M242 1341h-228v119h588v-119h-227v-1341h-133v1341z" />
    <glyph glyph-name="U" unicode="U" horiz-adv-x="913" 
d="M145 1460h134v-1044q0 -183 39 -249.5t137 -66.5t137 66.5t39 249.5v1044h133v-1044q0 -242 -70.5 -338t-238.5 -96q-169 0 -239.5 96t-70.5 338v1044z" />
    <glyph glyph-name="V" unicode="V" horiz-adv-x="768" 
d="M29 1460h133l190 -1007q8 -39 18.5 -112.5t20.5 -164.5q6 98 35 263l2 12l182 1009h135l-296 -1460h-119z" />
    <glyph glyph-name="W" unicode="W" horiz-adv-x="1157" 
d="M31 1460h133l135 -913q12 -80 20 -176.5t13 -214.5q6 69 16.5 151.5t28.5 196.5l151 956h125l154 -966q11 -67 19.5 -147.5t15.5 -186.5q12 105 23.5 219t13.5 125l133 956h131l-242 -1460h-117l-157 967q-20 117 -28 194t-9 141q-5 -81 -14.5 -163.5t-22.5 -165.5
l-164 -973h-121z" />
    <glyph glyph-name="X" unicode="X" horiz-adv-x="702" 
d="M287 741l-269 719h140l149 -440q8 -20 20 -66t29 -123q12 53 25.5 103t28.5 94l145 432h135l-264 -717l276 -743h-141l-155 458q-14 39 -26.5 83.5t-25.5 99.5q-9 -39 -22 -83t-35 -109l-152 -449h-145z" />
    <glyph glyph-name="Y" unicode="Y" horiz-adv-x="674" 
d="M270 637l-274 823h139l205 -672l201 672h135l-273 -827v-633h-133v637z" />
    <glyph glyph-name="Z" unicode="Z" horiz-adv-x="627" 
d="M442 1339h-366v121h534l-420 -1337h371v-123h-541z" />
    <glyph glyph-name="bracketleft" unicode="[" horiz-adv-x="502" 
d="M150 1565h317v-111h-197v-1728h197v-109h-317v1948z" />
    <glyph glyph-name="backslash" unicode="\" horiz-adv-x="569" 
d="M63 1479l621 -1669h-111l-622 1669h112z" />
    <glyph glyph-name="bracketright" unicode="]" horiz-adv-x="502" 
d="M352 -383h-317v109h196v1730h-196v109h317v-1948z" />
    <glyph glyph-name="asciicircum" unicode="^" horiz-adv-x="2048" 
d="M1081 1458l541 -557h-125l-473 469l-475 -469h-125l539 557h118z" />
    <glyph glyph-name="underscore" unicode="_" 
d="M1024 -403v-80h-1024v80h1024z" />
    <glyph glyph-name="grave" unicode="`" 
d="M444 1464l168 -348h-73l-215 348h120z" />
    <glyph glyph-name="a" unicode="a" horiz-adv-x="721" 
d="M197 485q0 -230 33.5 -316.5t115.5 -86.5q79 0 112.5 89.5t33.5 313.5q0 225 -33.5 315.5t-112.5 90.5q-82 0 -115.5 -88t-33.5 -318zM485 0v90q-22 -52 -67.5 -80t-104.5 -28q-126 0 -182.5 123.5t-56.5 408.5q0 249 57.5 364t181.5 115q56 0 99 -26t73 -78v92h119v-981
h-119z" />
    <glyph glyph-name="b" unicode="b" horiz-adv-x="721" 
d="M375 82q82 0 115.5 87t33.5 316q0 230 -33.5 318t-115.5 88q-79 0 -112.5 -90.5t-33.5 -315.5q0 -224 33.5 -313.5t112.5 -89.5zM117 1550h121v-657q26 49 69.5 74.5t100.5 25.5q125 0 182 -118.5t57 -385.5q0 -262 -58.5 -384.5t-182.5 -122.5q-59 0 -103.5 28t-69.5 80
v-90h-116v1550z" />
    <glyph glyph-name="c" unicode="c" horiz-adv-x="541" 
d="M508 956v-141q-28 34 -57 50t-64 16q-94 0 -137 -99t-43 -315q0 -181 44 -273t132 -92q38 0 69 18.5t54 55.5v-143q-34 -23 -69 -34t-75 -11q-129 0 -203.5 128.5t-74.5 356.5q0 259 76 389.5t227 130.5q33 0 64 -9.5t57 -27.5z" />
    <glyph glyph-name="d" unicode="d" horiz-adv-x="721" 
d="M197 485q0 -230 33.5 -316.5t115.5 -86.5q79 0 112.5 89.5t33.5 313.5q0 225 -33.5 315.5t-112.5 90.5q-82 0 -115.5 -88t-33.5 -318zM483 0v90q-21 -51 -65.5 -79.5t-104.5 -28.5q-126 0 -182.5 123.5t-56.5 408.5q0 249 57.5 364t181.5 115q57 0 100.5 -25.5
t69.5 -74.5v657h121v-1550h-121z" />
    <glyph glyph-name="e" unicode="e" horiz-adv-x="659" 
d="M497 561q-1 156 -39.5 242t-107.5 86q-73 0 -116.5 -85t-49.5 -243h313zM612 461h-428v-33q0 -163 42 -252.5t116 -89.5q61 0 99.5 64.5t41.5 174.5h117q-7 -159 -77 -251t-183 -92q-137 0 -205.5 125.5t-68.5 375.5q0 246 74 381t206 135t199 -127.5t67 -377.5v-33z" />
    <glyph glyph-name="f" unicode="f" horiz-adv-x="393" 
d="M131 881h-113v100h113v309q0 145 43 211t137 66q28 0 55.5 -4t55.5 -13v-139q-24 22 -46 32.5t-44 10.5q-45 0 -62.5 -32t-17.5 -144v-297h170v-100h-170v-881h-121v881z" />
    <glyph glyph-name="g" unicode="g" horiz-adv-x="721" 
d="M197 485q0 -230 33.5 -316.5t115.5 -86.5q79 0 112.5 89.5t33.5 313.5q0 225 -33.5 315.5t-112.5 90.5q-82 0 -115.5 -88t-33.5 -318zM96 -102h111v-15q0 -90 34.5 -135t102.5 -45q73 0 106 49t33 158v174q-24 -47 -66 -71.5t-100 -24.5q-131 0 -187 119t-56 411
q0 245 58 360t181 115q56 0 99 -26.5t71 -77.5v92h121v-981q0 -129 -7.5 -183t-25.5 -87q-34 -64 -91 -96.5t-134 -32.5q-118 0 -184 74t-66 206v17z" />
    <glyph glyph-name="h" unicode="h" horiz-adv-x="729" 
d="M117 1550h121v-659q32 51 80 76.5t108 25.5q104 0 151.5 -73.5t47.5 -239.5v-680h-121v698q0 115 -27 158t-94 43q-71 0 -108 -62.5t-37 -183.5v-653h-121v1550z" />
    <glyph glyph-name="i" unicode="i" horiz-adv-x="356" 
d="M176 1370q39 0 65.5 -26t26.5 -64q0 -36 -27 -63t-65 -27q-36 0 -63 27.5t-27 64.5t26 62.5t64 25.5zM115 981h123v-981h-123v981z" />
    <glyph glyph-name="j" unicode="j" horiz-adv-x="356" 
d="M176 1370q39 0 65.5 -26t26.5 -64q0 -36 -27 -63t-65 -27q-36 0 -63 27.5t-27 64.5t26 62.5t64 25.5zM115 981h123v-1356h-123v1356z" />
    <glyph glyph-name="k" unicode="k" horiz-adv-x="668" 
d="M489 981h136l-263 -426l351 -555h-144l-329 547zM117 1550h121v-1550h-121v1550z" />
    <glyph glyph-name="l" unicode="l" horiz-adv-x="356" 
d="M115 1550h123v-1550h-123v1550z" />
    <glyph glyph-name="m" unicode="m" horiz-adv-x="1116" 
d="M117 981h121v-90q32 51 80 76.5t108 25.5q63 0 108 -31t72 -94q36 62 88.5 93.5t118.5 31.5q105 0 152 -73.5t47 -239.5v-680h-121v698q0 115 -27 158t-94 43q-71 0 -108 -62.5t-37 -183.5v-653h-121v698q0 115 -27 158t-94 43q-71 0 -108 -62.5t-37 -183.5v-653h-121
v981z" />
    <glyph glyph-name="n" unicode="n" horiz-adv-x="729" 
d="M117 981h121v-90q32 51 80 76.5t108 25.5q104 0 151.5 -73.5t47.5 -239.5v-680h-121v698q0 115 -27 158t-94 43q-71 0 -108 -62.5t-37 -183.5v-653h-121v981z" />
    <glyph glyph-name="o" unicode="o" horiz-adv-x="692" 
d="M346 897q-81 0 -118.5 -96t-37.5 -309q0 -214 37.5 -311t118.5 -97q79 0 117.5 99.5t38.5 305.5q0 207 -38.5 307.5t-117.5 100.5zM66 492q0 253 70.5 381t211.5 128q137 0 208 -129.5t71 -379.5q0 -252 -70.5 -381t-208.5 -129q-141 0 -211.5 128t-70.5 382z" />
    <glyph glyph-name="p" unicode="p" horiz-adv-x="721" 
d="M379 82q81 0 114 86t33 317q0 233 -33 319.5t-114 86.5q-79 0 -112.5 -90.5t-33.5 -315.5q0 -224 33.5 -313.5t112.5 -89.5zM121 981h121v-82q33 48 75 71t95 23q126 0 182.5 -117.5t56.5 -386.5q0 -262 -58.5 -384.5t-182.5 -122.5q-50 0 -92.5 21.5t-75.5 64.5v-461
h-121v1374z" />
    <glyph glyph-name="q" unicode="q" horiz-adv-x="721" 
d="M193 485q0 -230 33.5 -316.5t115.5 -86.5q79 0 112 89.5t33 313.5q0 225 -33 315.5t-112 90.5q-82 0 -115.5 -88t-33.5 -318zM479 -393v461q-35 -44 -77 -65t-91 -21q-127 0 -184 124.5t-57 407.5q0 249 57.5 364t181.5 115q52 0 94 -23t76 -71v82h121v-1374h-121z" />
    <glyph glyph-name="r" unicode="r" horiz-adv-x="426" 
d="M117 981h121v-133q27 69 67.5 105t93.5 40v-131q-90 -5 -125.5 -63t-35.5 -213v-586h-121v981z" />
    <glyph glyph-name="s" unicode="s" horiz-adv-x="541" 
d="M66 193q44 -51 91 -77t95 -26q67 0 110.5 43t43.5 111q0 83 -150 211q-10 8 -14 12q-119 101 -154 160.5t-35 130.5q0 104 68 171.5t174 67.5q45 0 88.5 -12.5t85.5 -38.5v-125q-37 36 -79 55t-83 19q-59 0 -99 -38t-40 -95q0 -80 139 -196q5 -4 8 -7
q131 -109 169 -172.5t38 -140.5q0 -117 -74 -193t-188 -76q-53 0 -103.5 19t-90.5 53v144z" />
    <glyph glyph-name="t" unicode="t" horiz-adv-x="412" 
d="M137 881h-102v100h102v274h121v-274h162v-100h-162v-881h-121v881z" />
    <glyph glyph-name="u" unicode="u" horiz-adv-x="727" 
d="M106 981h121v-643q0 -136 31.5 -191t106.5 -55q73 0 104 54t31 192v643h121v-664q0 -175 -61.5 -255t-194.5 -80q-134 0 -196.5 80.5t-62.5 254.5v664z" />
    <glyph glyph-name="v" unicode="v" horiz-adv-x="612" 
d="M25 981h127l124 -629q13 -66 22.5 -128t16.5 -123q10 60 43 220l7 31l129 629h122l-235 -981h-133z" />
    <glyph glyph-name="w" unicode="w" horiz-adv-x="938" 
d="M29 981h123l88 -520q10 -61 20.5 -136.5t26.5 -207.5l5 38q29 209 42 279l94 547h123l102 -632q1 -8 4 -25q20 -130 27 -207q7 71 18 147.5t27 165.5l98 551h119l-203 -981h-125l-98 606q-7 49 -15 113t-16 143q-9 -69 -18.5 -150t-11.5 -91l-105 -621h-131z" />
    <glyph glyph-name="x" unicode="x" horiz-adv-x="563" 
d="M223 508l-205 473h129l103 -270q3 -8 8 -21q28 -73 37 -114q5 29 14 60t25 73l100 272h131l-207 -471l224 -510h-127l-117 297q-11 26 -21.5 60t-21.5 75q-11 -31 -23 -64.5t-26 -70.5l-111 -297h-137z" />
    <glyph glyph-name="y" unicode="y" horiz-adv-x="627" 
d="M260 -12l-244 993h127l119 -565q19 -90 31.5 -160t21.5 -135q21 97 43 204.5t25 120.5l125 535h121l-353 -1356h-118z" />
    <glyph glyph-name="z" unicode="z" horiz-adv-x="573" 
d="M416 881h-353v100h521l-418 -877h352v-104h-522z" />
    <glyph glyph-name="braceleft" unicode="{" 
d="M848 1389h-37q-135 0 -182 -51.5t-47 -213.5v-241q0 -175 -43 -248t-152 -105q109 -32 152 -104t43 -248v-241q0 -162 46.5 -212.5t180.5 -50.5h39v-88h-43q-189 0 -257.5 74.5t-68.5 300.5v240q0 158 -58 222t-200 64q-7 0 -21.5 -1t-23.5 -1v90q10 -1 20.5 -1.5
t28.5 -0.5q139 0 196.5 64.5t57.5 222.5v240q0 227 68.5 302t257.5 75h43v-88z" />
    <glyph glyph-name="bar" unicode="|" 
d="M557 1565v-2048h-90v2048h90z" />
    <glyph glyph-name="braceright" unicode="}" 
d="M545 1100v-240q0 -158 58 -222.5t200 -64.5q7 0 21.5 1t23.5 1v-90q-9 0 -23.5 1t-21.5 1q-142 0 -200 -64t-58 -222v-240q0 -226 -68.5 -300.5t-257.5 -74.5h-43v88h39q134 0 180.5 50.5t46.5 212.5v241q0 174 43.5 247t153.5 105q-110 32 -153.5 105t-43.5 248v241
q0 162 -47 213.5t-182 51.5h-37v88h43q189 0 257.5 -75t68.5 -302z" />
    <glyph glyph-name="asciitilde" unicode="~" horiz-adv-x="1706" 
d="M1530 647q-106 -74 -202 -110.5t-185 -36.5q-99 0 -266 61q-16 6 -22 8q-12 4 -33 12q-167 60 -257 60q-83 0 -175 -37.5t-212 -122.5v92q105 74 201 110t186 36q100 0 271 -61q12 -5 19 -7q8 -3 27 -10q168 -61 261 -61q83 0 175 37.5t212 121.5v-92z" />
    <glyph glyph-name="nonbreakingspace" unicode="&#xa0;" horiz-adv-x="797" 
 />
    <glyph glyph-name="exclamdown" unicode="&#xa1;" horiz-adv-x="512" 
d="M256 1296q-40 0 -66 26t-26 64t27 65.5t65 27.5q36 0 64 -28.5t28 -64.5q0 -38 -26.5 -64t-65.5 -26zM319 0h-126v1108h126v-1108z" />
    <glyph glyph-name="cent" unicode="&#xa2;" horiz-adv-x="797" 
d="M430 66q-113 32 -170 154.5t-57 330.5q0 212 58.5 341t168.5 161v186h88v-180q21 0 48 -7.5t61 -21.5v-143q-26 30 -55.5 44.5t-63.5 14.5q-89 0 -136.5 -105.5t-47.5 -303.5q0 -168 49.5 -265.5t132.5 -97.5q32 0 62.5 18t58.5 54v-150q-22 -15 -49 -24t-60 -13v-174
h-88v181z" />
    <glyph glyph-name="sterling" unicode="&#xa3;" horiz-adv-x="797" 
d="M287 195q19 54 29 101t10 89q0 35 -6.5 78t-18.5 96h-151v80h116q-58 153 -84 262.5t-26 198.5q0 177 81.5 278t223.5 101q126 0 197.5 -81t74.5 -226l-106 -54v8q0 117 -42.5 177.5t-125.5 60.5q-82 0 -128 -65t-46 -181q0 -69 24 -172t92 -307h162v-80h-143
q8 -46 12 -88t4 -78q0 -52 -14.5 -106t-44.5 -113q3 -2 10 -6q115 -66 160 -66q30 0 54.5 28.5t37.5 80.5l94 -37q-28 -99 -72.5 -145.5t-111.5 -46.5q-53 0 -148.5 50t-128.5 50q-24 0 -40 -13.5t-35 -54.5l-88 43q30 75 65 107.5t86 32.5q4 0 12.5 -1t14.5 -1z" />
    <glyph glyph-name="currency" unicode="&#xa4;" horiz-adv-x="1241" 
d="M954 887q0 137 -96.5 233.5t-234.5 96.5t-235 -97t-97 -233q0 -138 97 -235t235 -97q137 0 234 97t97 235zM358 1204q60 48 125 71t138 23q72 0 138 -23.5t126 -70.5l205 207l59 -59l-207 -205q45 -58 68.5 -124.5t23.5 -137.5q0 -73 -23 -138.5t-69 -123.5l207 -205
l-59 -60l-205 207q-58 -45 -125 -68.5t-139 -23.5q-74 0 -139 23t-124 69l-206 -207l-58 60l207 205q-45 57 -68.5 123.5t-23.5 138.5q0 71 23.5 137.5t68.5 124.5l-207 205l58 59z" />
    <glyph glyph-name="yen" unicode="&#xa5;" horiz-adv-x="793" 
d="M340 637h-279v72h256l-57 163h-199v72h177l-172 516h133l209 -678l206 678h127l-170 -516h181v-72h-205l-53 -163h258v-72h-283v-637h-129v637z" />
    <glyph glyph-name="brokenbar" unicode="&#xa6;" 
d="M557 408v-758h-90v758h90zM557 1432v-758h-90v758h90z" />
    <glyph glyph-name="section" unicode="&#xa7;" horiz-adv-x="711" 
d="M623 1100h-119v18q0 122 -37 187t-105 65q-59 0 -95 -48.5t-36 -129.5q0 -71 24.5 -120t80.5 -91q46 -36 116.5 -75.5t86.5 -53.5q83 -76 115 -147t32 -170q0 -135 -61.5 -225t-178.5 -126q81 -49 119.5 -118.5t38.5 -165.5q0 -145 -70.5 -230.5t-189.5 -85.5
q-117 0 -185.5 94.5t-68.5 255.5v31h117v-18q0 -122 36.5 -187t104.5 -65q61 0 96 48.5t35 133.5q0 79 -35 133t-125 111q-15 10 -48 29q-111 65 -158 120q-44 52 -66 117t-22 143q0 135 61.5 225t177.5 126q-81 48 -120.5 119t-39.5 167q0 141 72.5 227.5t190.5 86.5
q117 0 186.5 -94.5t69.5 -256.5v-30zM561 530q0 121 -55.5 192t-149.5 71q-93 0 -148.5 -70t-55.5 -188q0 -122 54.5 -193.5t145.5 -71.5q96 0 152.5 70.5t56.5 189.5z" />
    <glyph glyph-name="dieresis" unicode="&#xa8;" 
d="M639 1339q35 0 59.5 -23.5t24.5 -58.5q0 -31 -25.5 -56t-58.5 -25q-32 0 -57 25t-25 56q0 34 24 58t58 24zM383 1339q35 0 58.5 -23.5t23.5 -58.5q0 -31 -24.5 -56t-57.5 -25q-32 0 -57 25t-25 56q0 34 24 58t58 24z" />
    <glyph glyph-name="copyright" unicode="&#xa9;" horiz-adv-x="1706" 
d="M1081 918q-20 81 -79.5 126.5t-147.5 45.5q-126 0 -196 -97.5t-70 -273.5q0 -169 71.5 -267t194.5 -98q91 0 156 52.5t84 140.5h102q-11 -123 -108 -201t-240 -78q-173 0 -275 123.5t-102 333.5q0 205 107 328t282 123q132 0 222.5 -72t103.5 -186h-105zM1511 721
q0 133 -49 252.5t-141 212.5q-95 95 -215 144.5t-254 49.5q-133 0 -251.5 -49t-209.5 -141q-95 -97 -145.5 -218t-50.5 -251t50 -249.5t144 -213.5t213.5 -144.5t249.5 -50.5t251.5 51t217.5 146q93 92 141.5 209.5t48.5 251.5zM852 1452q149 0 282.5 -55t237.5 -160
q103 -102 157 -235t54 -281q0 -150 -53.5 -280t-157.5 -232q-107 -106 -241.5 -162.5t-278.5 -56.5q-145 0 -277 55.5t-237 161.5q-105 104 -160 236t-55 278q0 145 56 279t161 241q101 103 232 157t280 54z" />
    <glyph glyph-name="ordfeminine" unicode="&#xaa;" horiz-adv-x="541" 
d="M147 1114q0 -160 25.5 -221.5t87.5 -61.5q59 0 84 62.5t25 220.5q0 159 -25 222t-84 63q-61 0 -87 -62.5t-26 -222.5zM365 774v64q-17 -36 -51 -56t-78 -20q-96 0 -138.5 87t-42.5 286q0 173 44 254t137 81q41 0 73.5 -18.5t55.5 -54.5v63h88v-686h-88z" />
    <glyph glyph-name="guillemotleft" unicode="&#xab;" horiz-adv-x="702" 
d="M575 926l89 -52l-207 -385l207 -385l-89 -49l-235 434zM297 926l86 -52l-207 -385l207 -385l-86 -49l-238 434z" />
    <glyph glyph-name="logicalnot" unicode="&#xac;" horiz-adv-x="1706" 
d="M1452 856v-502h-78v420h-1120v82h1198z" />
    <glyph glyph-name="sfthyphen" unicode="&#xad;" horiz-adv-x="551" 
d="M78 559h393v-110h-393v110z" />
    <glyph glyph-name="registered" unicode="&#xae;" horiz-adv-x="1706" 
d="M852 1077h-168v-313h168q145 0 199.5 36t54.5 126q0 78 -61.5 114.5t-192.5 36.5zM874 1155q180 0 264.5 -56.5t84.5 -176.5q0 -89 -55.5 -149t-147.5 -71l190 -393h-131l-182 377h-213v-377h-115v846h305zM1511 721q0 133 -49 252.5t-141 212.5q-95 95 -215 144.5
t-254 49.5q-133 0 -251.5 -49t-209.5 -141q-95 -97 -145.5 -218t-50.5 -251t50 -249.5t144 -213.5t213.5 -144.5t249.5 -50.5t251.5 51t217.5 146q93 92 141.5 209.5t48.5 251.5zM852 1452q149 0 282.5 -55t237.5 -160q103 -102 157 -235t54 -281q0 -150 -53.5 -280
t-157.5 -232q-107 -106 -241.5 -162.5t-278.5 -56.5q-145 0 -277 55.5t-237 161.5q-105 104 -160 236t-55 278q0 145 56 279t161 241q101 103 232 157t280 54z" />
    <glyph glyph-name="macron" unicode="&#xaf;" 
d="M717 1311v-113h-410v113h410z" />
    <glyph glyph-name="degree" unicode="&#xb0;" horiz-adv-x="674" 
d="M551 1176q0 87 -63 150t-150 63q-89 0 -151 -62t-62 -151t62.5 -151t150.5 -62t150.5 62t62.5 151zM338 1450q112 0 192 -80.5t80 -193.5q0 -114 -80 -193.5t-194 -79.5q-115 0 -194 79t-79 194q0 114 80.5 194t194.5 80z" />
    <glyph glyph-name="plusminus" unicode="&#xb1;" horiz-adv-x="1706" 
d="M1452 141v-82h-1198v82h1198zM893 1161v-354h559v-80h-559v-352h-80v352h-559v80h559v354h80z" />
    <glyph glyph-name="twosuperior" unicode="&#xb2;" horiz-adv-x="526" 
d="M141 1225h-84v12q0 112 51 172.5t144 60.5q86 0 141.5 -55.5t55.5 -144.5q0 -79 -57.5 -209t-219.5 -404h268v-73h-401q206 355 264.5 484.5t58.5 199.5q0 58 -29.5 93.5t-78.5 35.5q-56 0 -84.5 -40t-28.5 -118v-14z" />
    <glyph glyph-name="threesuperior" unicode="&#xb3;" horiz-adv-x="526" 
d="M147 819v-18q0 -78 26 -116t79 -38q58 0 88.5 48t30.5 139q0 108 -37.5 150t-130.5 42q-5 0 -15.5 -1t-15.5 -1v74h35q84 0 119.5 39t35.5 131q0 61 -26.5 94t-77.5 33q-47 0 -72.5 -33.5t-25.5 -93.5v-8h-86q3 104 50 157t136 53q87 0 136.5 -56t49.5 -157
q0 -79 -28 -128.5t-82 -63.5q62 -21 91.5 -77.5t29.5 -153.5q0 -123 -55.5 -192t-153.5 -69q-90 0 -139.5 59.5t-49.5 168.5v18h88z" />
    <glyph glyph-name="acute" unicode="&#xb4;" 
d="M700 1464l-215 -348h-73l168 348h120z" />
    <glyph glyph-name="mu" unicode="&#xb5;" horiz-adv-x="1094" 
d="M326 1063l-123 -590q-9 -43 -13 -77t-4 -64q0 -126 60 -192t174 -66q127 0 219.5 109t136.5 313l125 567h121l-166 -786q-2 -9 -5 -24q-20 -92 -20 -112q0 -31 17.5 -47t50.5 -16q9 0 18.5 0.5t20.5 1.5l-18 -96q-3 -1 -8 -2q-49 -11 -68 -11q-68 0 -100.5 31.5
t-32.5 95.5q0 7 0.5 16t3.5 29q-43 -83 -123.5 -127.5t-188.5 -44.5q-97 0 -169.5 45.5t-104.5 126.5l-119 -567h-121l316 1487h121z" />
    <glyph glyph-name="paragraph" unicode="&#xb6;" 
d="M932 1415h-129v-1415h-70v1415h-192v-1415h-70v782q-175 8 -278 102.5t-103 245.5q0 157 108.5 253t286.5 96h447v-64z" />
    <glyph glyph-name="glyph121" unicode="&#xb7;" horiz-adv-x="397" 
d="M199 819q38 0 64 -26t26 -64q0 -36 -26.5 -63t-63.5 -27t-63.5 27.5t-26.5 64.5t26 62.5t64 25.5z" />
    <glyph glyph-name="cedilla" unicode="&#xb8;" 
d="M500 0v-111h16q84 0 130 -44t46 -124q0 -88 -50 -133t-148 -45q-39 0 -84.5 9.5t-102.5 29.5v76q62 -18 108 -26.5t81 -8.5q50 0 78 25t28 69q0 51 -28.5 76t-88.5 25q-15 0 -22.5 -0.5t-13.5 -1.5v184h51z" />
    <glyph glyph-name="onesuperior" unicode="&#xb9;" horiz-adv-x="526" 
d="M229 1386h-125l21 74h190v-876h-86v802z" />
    <glyph glyph-name="ordmasculine" unicode="&#xba;" horiz-adv-x="520" 
d="M260 1403q-61 0 -89 -67.5t-28 -217.5q0 -149 28 -216.5t89 -67.5q60 0 88.5 69t28.5 213q0 145 -29 216t-88 71zM49 1118q0 178 53.5 267.5t159.5 89.5q103 0 156 -90.5t53 -266.5q0 -175 -53.5 -265.5t-155.5 -90.5q-106 0 -159.5 89t-53.5 267z" />
    <glyph glyph-name="guillemotright" unicode="&#xbb;" horiz-adv-x="702" 
d="M406 55l-84 51l202 383l-207 388l89 49l235 -437zM125 55l-88 51l209 383l-209 388l88 49l237 -437z" />
    <glyph glyph-name="onequarter" unicode="&#xbc;" horiz-adv-x="1241" 
d="M864 287h183v135q0 80 4 161t12 165q-16 -45 -56 -138l-10 -23zM1047 223h-256v68l247 526h86v-530h68v-64h-68v-223h-77v223zM276 -18l586 1497h101l-586 -1497h-101zM217 1391h-119l19 67h182v-817h-82v750z" />
    <glyph glyph-name="onehalf" unicode="&#xbd;" horiz-adv-x="1241" 
d="M874 598h-79v10q0 106 48 162.5t138 56.5q81 0 133.5 -52t52.5 -134q0 -73 -53 -192.5t-209 -378.5h254v-70h-383q193 322 251 446.5t58 192.5q0 54 -28.5 87.5t-75.5 33.5q-53 0 -80 -37.5t-27 -110.5v-14zM276 -18l586 1497h101l-586 -1497h-101zM217 1391h-119l19 67
h182v-817h-82v750z" />
    <glyph glyph-name="threequarters" unicode="&#xbe;" horiz-adv-x="1241" 
d="M864 287h183v135q0 80 4 161t12 165q-16 -45 -56 -138l-10 -23zM1047 223h-256v68l247 526h86v-530h68v-64h-68v-223h-77v223zM276 -18l586 1497h101l-586 -1497h-101zM141 862v-18q0 -74 24.5 -109t76.5 -35q54 0 83 45t29 129q0 101 -36 141t-123 40q-6 0 -16 -1
t-15 -1v69q7 -1 13.5 -1.5t19.5 -0.5q80 0 114.5 36.5t34.5 121.5q0 59 -25.5 90t-74.5 31q-44 0 -69 -31.5t-25 -87.5v-8h-82q3 97 48.5 146.5t131.5 49.5q83 0 130.5 -52.5t47.5 -145.5q0 -75 -28 -120.5t-81 -57.5q59 -20 88 -74t29 -144q0 -114 -52.5 -178.5
t-145.5 -64.5q-87 0 -134 55t-47 158v18h84z" />
    <glyph glyph-name="questiondown" unicode="&#xbf;" horiz-adv-x="653" 
d="M406 1296q-40 0 -66.5 26t-26.5 64t27.5 65.5t65.5 27.5q36 0 64 -28.5t28 -64.5q0 -38 -27 -64t-65 -26zM475 633h-78q-101 0 -137.5 -59t-36.5 -244q0 -144 26 -192t95 -48q57 0 86 41.5t29 122.5v111h123v-95q0 -154 -56.5 -221t-183.5 -67q-130 0 -188 78.5
t-58 258.5q0 230 57 325.5t193 100.5v353h129v-465z" />
    <glyph glyph-name="Agrave" unicode="&#xc0;" horiz-adv-x="750" 
d="M358 1092l-120 -680h288l-118 681q-7 40 -13 95.5t-10 121.5q-5 -63 -11.5 -117t-15.5 -101zM319 1460h127l297 -1460h-135l-57 295h-334l-51 -295h-137zM307 1943l168 -348h-73l-215 348h120z" />
    <glyph glyph-name="Aacute" unicode="&#xc1;" horiz-adv-x="750" 
d="M358 1092l-120 -680h288l-118 681q-7 40 -13 95.5t-10 121.5q-5 -63 -11.5 -117t-15.5 -101zM319 1460h127l297 -1460h-135l-57 295h-334l-51 -295h-137zM563 1943l-215 -348h-73l168 348h120z" />
    <glyph glyph-name="Acircumflex" unicode="&#xc2;" horiz-adv-x="750" 
d="M358 1092l-120 -680h288l-118 681q-7 40 -13 95.5t-10 121.5q-5 -63 -11.5 -117t-15.5 -101zM319 1460h127l297 -1460h-135l-57 295h-334l-51 -295h-137zM434 1943l162 -348h-74l-147 262l-147 -262h-74l160 348h120z" />
    <glyph glyph-name="Atilde" unicode="&#xc3;" horiz-adv-x="750" 
d="M358 1092l-120 -680h288l-118 681q-7 40 -13 95.5t-10 121.5q-5 -63 -11.5 -117t-15.5 -101zM319 1460h127l297 -1460h-135l-57 295h-334l-51 -295h-137zM604 1837q-21 -88 -57.5 -130t-89.5 -42q-17 0 -32.5 3t-31.5 9l-69 25q-2 0 -5 1q-24 7 -38 7q-24 0 -41.5 -17
t-30.5 -53h-65q18 83 57 127.5t92 44.5q19 0 32.5 -2t22.5 -6l73 -27q13 -5 23.5 -7.5t18.5 -2.5q26 0 45 17t33 53h63z" />
    <glyph glyph-name="Adieresis" unicode="&#xc4;" horiz-adv-x="750" 
d="M358 1092l-120 -680h288l-118 681q-7 40 -13 95.5t-10 121.5q-5 -63 -11.5 -117t-15.5 -101zM319 1460h127l297 -1460h-135l-57 295h-334l-51 -295h-137zM502 1818q35 0 59.5 -23.5t24.5 -58.5q0 -31 -25.5 -56t-58.5 -25q-32 0 -57 25t-25 56q0 34 24 58t58 24z
M246 1818q35 0 58.5 -23.5t23.5 -58.5q0 -31 -24.5 -56t-57.5 -25q-32 0 -57 25t-25 56q0 34 24 58t58 24z" />
    <glyph glyph-name="Aring" unicode="&#xc5;" horiz-adv-x="750" 
d="M387 1882q-56 0 -94.5 -38.5t-38.5 -94.5q0 -55 39 -94t94 -39t94 39t39 94t-39 94t-94 39zM164 1749q0 94 64.5 158.5t158.5 64.5q93 0 157 -64.5t64 -158.5t-63.5 -157.5t-157.5 -63.5q-95 0 -159 63.5t-64 157.5zM358 1092l-120 -680h288l-118 681q-7 40 -13 95.5
t-10 121.5q-5 -63 -11.5 -117t-15.5 -101zM319 1460h127l297 -1460h-135l-57 295h-334l-51 -295h-137z" />
    <glyph glyph-name="AE" unicode="&#xc6;" horiz-adv-x="1006" 
d="M319 1460h461l25 -123h-334l104 -526h330l25 -119h-332l113 -569h329l23 -123h-455l-57 295h-334l-51 -295h-137zM358 1092l-120 -680h288l-118 681q-7 40 -13 95.5t-10 121.5q-5 -63 -11.5 -117t-15.5 -101z" />
    <glyph glyph-name="Ccedilla" unicode="&#xc7;" horiz-adv-x="674" 
d="M655 39q-42 -24 -90.5 -36.5t-99.5 -12.5q-198 0 -293.5 179.5t-95.5 549.5q0 369 102 559t301 190q50 0 94.5 -10t85.5 -31v-143q-47 31 -86.5 45t-78.5 14q-144 0 -211.5 -147t-67.5 -459q0 -339 62.5 -479.5t207.5 -140.5q30 0 57.5 6t53.5 18q15 7 30 16.5t29 20.5
v-139zM416 0v-111h16q84 0 130 -44t46 -124q0 -88 -50 -133t-148 -45q-39 0 -84.5 9.5t-102.5 29.5v76q62 -18 108 -26.5t81 -8.5q50 0 78 25t28 69q0 51 -28.5 76t-88.5 25q-15 0 -22.5 -0.5t-13.5 -1.5v184h51z" />
    <glyph glyph-name="Egrave" unicode="&#xc8;" horiz-adv-x="707" 
d="M147 1460h459v-123h-325v-526h321v-119h-321v-569h335v-123h-469v1460zM305 1943l168 -348h-73l-215 348h120z" />
    <glyph glyph-name="Eacute" unicode="&#xc9;" horiz-adv-x="707" 
d="M147 1460h459v-123h-325v-526h321v-119h-321v-569h335v-123h-469v1460zM561 1943l-215 -348h-73l168 348h120z" />
    <glyph glyph-name="Ecircumflex" unicode="&#xca;" horiz-adv-x="707" 
d="M147 1460h459v-123h-325v-526h321v-119h-321v-569h335v-123h-469v1460zM432 1943l162 -348h-74l-147 262l-147 -262h-74l160 348h120z" />
    <glyph glyph-name="Edieresis" unicode="&#xcb;" horiz-adv-x="707" 
d="M147 1460h459v-123h-325v-526h321v-119h-321v-569h335v-123h-469v1460zM500 1818q35 0 59.5 -23.5t24.5 -58.5q0 -31 -25.5 -56t-58.5 -25q-32 0 -57 25t-25 56q0 34 24 58t58 24zM244 1818q35 0 58.5 -23.5t23.5 -58.5q0 -31 -24.5 -56t-57.5 -25q-32 0 -57 25t-25 56
q0 34 24 58t58 24z" />
    <glyph glyph-name="Igrave" unicode="&#xcc;" horiz-adv-x="426" 
d="M147 0v1460h134v-1460h-134zM145 1943l168 -348h-73l-215 348h120z" />
    <glyph glyph-name="Iacute" unicode="&#xcd;" horiz-adv-x="426" 
d="M147 0v1460h134v-1460h-134zM401 1943l-215 -348h-73l168 348h120z" />
    <glyph glyph-name="Icircumflex" unicode="&#xce;" horiz-adv-x="426" 
d="M147 0v1460h134v-1460h-134zM272 1943l162 -348h-74l-147 262l-147 -262h-74l160 348h120z" />
    <glyph glyph-name="Idieresis" unicode="&#xcf;" horiz-adv-x="426" 
d="M147 0v1460h134v-1460h-134zM340 1818q35 0 59.5 -23.5t24.5 -58.5q0 -31 -25.5 -56t-58.5 -25q-32 0 -57 25t-25 56q0 34 24 58t58 24zM84 1818q35 0 58.5 -23.5t23.5 -58.5q0 -31 -24.5 -56t-57.5 -25q-32 0 -57 25t-25 56q0 34 24 58t58 24z" />
    <glyph glyph-name="Eth" unicode="&#xd0;" horiz-adv-x="854" 
d="M299 762v-639h27q177 0 246 122t69 462q0 380 -66 506t-241 126h-35v-475h170v-102h-170zM166 762h-148v102h148v596h168q248 0 345 -155t97 -580q0 -403 -101 -564t-347 -161h-162v762z" />
    <glyph glyph-name="Ntilde" unicode="&#xd1;" horiz-adv-x="901" 
d="M147 1460h115l330 -999q7 -21 28 -102.5t52 -204.5q-16 131 -23.5 268t-7.5 283v755h115v-1460h-115l-322 983q-22 70 -44 148.5t-46 177.5q17 -155 25 -292t8 -255v-762h-115v1460zM680 1837q-21 -88 -57.5 -130t-89.5 -42q-17 0 -32.5 3t-31.5 9l-69 25q-2 0 -5 1
q-24 7 -38 7q-24 0 -41.5 -17t-30.5 -53h-65q18 83 57 127.5t92 44.5q19 0 32.5 -2t22.5 -6l73 -27q13 -5 23.5 -7.5t18.5 -2.5q26 0 45 17t33 53h63z" />
    <glyph glyph-name="Ograve" unicode="&#xd2;" horiz-adv-x="877" 
d="M438 1356q-116 0 -170.5 -150.5t-54.5 -474.5t54.5 -475.5t170.5 -151.5q117 0 171.5 149.5t54.5 477.5q0 327 -54.5 476t-171.5 149zM76 729q0 384 88 567t274 183t274.5 -183t88.5 -567t-88.5 -565.5t-274.5 -181.5t-274 181.5t-88 565.5zM370 1943l168 -348h-73
l-215 348h120z" />
    <glyph glyph-name="Oacute" unicode="&#xd3;" horiz-adv-x="877" 
d="M438 1356q-116 0 -170.5 -150.5t-54.5 -474.5t54.5 -475.5t170.5 -151.5q117 0 171.5 149.5t54.5 477.5q0 327 -54.5 476t-171.5 149zM76 729q0 384 88 567t274 183t274.5 -183t88.5 -567t-88.5 -565.5t-274.5 -181.5t-274 181.5t-88 565.5zM626 1943l-215 -348h-73
l168 348h120z" />
    <glyph glyph-name="Ocircumflex" unicode="&#xd4;" horiz-adv-x="877" 
d="M438 1356q-116 0 -170.5 -150.5t-54.5 -474.5t54.5 -475.5t170.5 -151.5q117 0 171.5 149.5t54.5 477.5q0 327 -54.5 476t-171.5 149zM76 729q0 384 88 567t274 183t274.5 -183t88.5 -567t-88.5 -565.5t-274.5 -181.5t-274 181.5t-88 565.5zM497 1943l162 -348h-74
l-147 262l-147 -262h-74l160 348h120z" />
    <glyph glyph-name="Otilde" unicode="&#xd5;" horiz-adv-x="877" 
d="M438 1356q-116 0 -170.5 -150.5t-54.5 -474.5t54.5 -475.5t170.5 -151.5q117 0 171.5 149.5t54.5 477.5q0 327 -54.5 476t-171.5 149zM76 729q0 384 88 567t274 183t274.5 -183t88.5 -567t-88.5 -565.5t-274.5 -181.5t-274 181.5t-88 565.5zM667 1837q-21 -88 -57.5 -130
t-89.5 -42q-17 0 -32.5 3t-31.5 9l-69 25q-2 0 -5 1q-24 7 -38 7q-24 0 -41.5 -17t-30.5 -53h-65q18 83 57 127.5t92 44.5q19 0 32.5 -2t22.5 -6l73 -27q13 -5 23.5 -7.5t18.5 -2.5q26 0 45 17t33 53h63z" />
    <glyph glyph-name="Odieresis" unicode="&#xd6;" horiz-adv-x="877" 
d="M438 1356q-116 0 -170.5 -150.5t-54.5 -474.5t54.5 -475.5t170.5 -151.5q117 0 171.5 149.5t54.5 477.5q0 327 -54.5 476t-171.5 149zM76 729q0 384 88 567t274 183t274.5 -183t88.5 -567t-88.5 -565.5t-274.5 -181.5t-274 181.5t-88 565.5zM565 1818q35 0 59.5 -23.5
t24.5 -58.5q0 -31 -25.5 -56t-58.5 -25q-32 0 -57 25t-25 56q0 34 24 58t58 24zM309 1818q35 0 58.5 -23.5t23.5 -58.5q0 -31 -24.5 -56t-57.5 -25q-32 0 -57 25t-25 56q0 34 24 58t58 24z" />
    <glyph glyph-name="multiply" unicode="&#xd7;" horiz-adv-x="1706" 
d="M854 668l487 487l58 -57l-488 -488l488 -487l-58 -57l-487 487l-487 -487l-58 57l488 487l-488 488l58 57z" />
    <glyph glyph-name="Oslash" unicode="&#xd8;" horiz-adv-x="877" 
d="M270 250q25 -70 68.5 -108t99.5 -38q117 0 171.5 150t54.5 477q0 69 -5.5 157.5t-15.5 192.5zM614 1194q-29 82 -72.5 122t-103.5 40q-114 0 -169.5 -148.5t-55.5 -453.5q0 -87 6 -189.5t19 -218.5zM150 184q-38 108 -56 239.5t-18 305.5q0 384 88 567t274 183
q78 0 139 -33.5t107 -102.5l66 140l67 -25l-88 -188q34 -78 53 -220t19 -321q0 -384 -88.5 -565.5t-274.5 -181.5q-76 0 -138 32.5t-107 96.5l-74 -144l-62 31z" />
    <glyph glyph-name="Ugrave" unicode="&#xd9;" horiz-adv-x="913" 
d="M145 1460h134v-1044q0 -183 39 -249.5t137 -66.5t137 66.5t39 249.5v1044h133v-1044q0 -242 -70.5 -338t-238.5 -96q-169 0 -239.5 96t-70.5 338v1044zM389 1943l168 -348h-73l-215 348h120z" />
    <glyph glyph-name="Uacute" unicode="&#xda;" horiz-adv-x="913" 
d="M145 1460h134v-1044q0 -183 39 -249.5t137 -66.5t137 66.5t39 249.5v1044h133v-1044q0 -242 -70.5 -338t-238.5 -96q-169 0 -239.5 96t-70.5 338v1044zM645 1943l-215 -348h-73l168 348h120z" />
    <glyph glyph-name="Ucircumflex" unicode="&#xdb;" horiz-adv-x="913" 
d="M145 1460h134v-1044q0 -183 39 -249.5t137 -66.5t137 66.5t39 249.5v1044h133v-1044q0 -242 -70.5 -338t-238.5 -96q-169 0 -239.5 96t-70.5 338v1044zM516 1943l162 -348h-74l-147 262l-147 -262h-74l160 348h120z" />
    <glyph glyph-name="Udieresis" unicode="&#xdc;" horiz-adv-x="913" 
d="M145 1460h134v-1044q0 -183 39 -249.5t137 -66.5t137 66.5t39 249.5v1044h133v-1044q0 -242 -70.5 -338t-238.5 -96q-169 0 -239.5 96t-70.5 338v1044zM584 1818q35 0 59.5 -23.5t24.5 -58.5q0 -31 -25.5 -56t-58.5 -25q-32 0 -57 25t-25 56q0 34 24 58t58 24zM328 1818
q35 0 58.5 -23.5t23.5 -58.5q0 -31 -24.5 -56t-57.5 -25q-32 0 -57 25t-25 56q0 34 24 58t58 24z" />
    <glyph glyph-name="Yacute" unicode="&#xdd;" horiz-adv-x="674" 
d="M270 637l-274 823h139l205 -672l201 672h135l-273 -827v-633h-133v637zM526 1943l-215 -348h-73l168 348h120z" />
    <glyph glyph-name="Thorn" unicode="&#xde;" horiz-adv-x="772" 
d="M281 1022v-522h73q112 0 160.5 61.5t48.5 204.5q0 132 -53 194t-166 62h-63zM147 1460h134v-319h53q190 0 276 -93.5t86 -299.5q0 -190 -83 -278.5t-261 -88.5h-71v-381h-134v1460z" />
    <glyph glyph-name="germandbls" unicode="&#xdf;" horiz-adv-x="750" 
d="M117 1145q0 232 58.5 328t195.5 96q130 0 193 -93t63 -284q0 -127 -35.5 -205t-108.5 -110q93 -35 138 -139.5t45 -284.5q0 -236 -65 -349.5t-200 -113.5q-21 0 -32.5 1t-22.5 3v108q11 -2 23 -3t34 -1q72 0 104 88.5t32 286.5q0 168 -45.5 250.5t-141.5 88.5v120
q82 4 116 67.5t34 219.5q0 120 -35 180.5t-105 60.5q-63 0 -93.5 -69.5t-30.5 -214.5v-1176h-121v1145z" />
    <glyph glyph-name="agrave" unicode="&#xe0;" horiz-adv-x="721" 
d="M197 485q0 -230 33.5 -316.5t115.5 -86.5q79 0 112.5 89.5t33.5 313.5q0 225 -33.5 315.5t-112.5 90.5q-82 0 -115.5 -88t-33.5 -318zM485 0v90q-22 -52 -67.5 -80t-104.5 -28q-126 0 -182.5 123.5t-56.5 408.5q0 249 57.5 364t181.5 115q56 0 99 -26t73 -78v92h119v-981
h-119zM292 1464l168 -348h-73l-215 348h120z" />
    <glyph glyph-name="aacute" unicode="&#xe1;" horiz-adv-x="721" 
d="M197 485q0 -230 33.5 -316.5t115.5 -86.5q79 0 112.5 89.5t33.5 313.5q0 225 -33.5 315.5t-112.5 90.5q-82 0 -115.5 -88t-33.5 -318zM485 0v90q-22 -52 -67.5 -80t-104.5 -28q-126 0 -182.5 123.5t-56.5 408.5q0 249 57.5 364t181.5 115q56 0 99 -26t73 -78v92h119v-981
h-119zM548 1464l-215 -348h-73l168 348h120z" />
    <glyph glyph-name="acircumflex" unicode="&#xe2;" horiz-adv-x="721" 
d="M197 485q0 -230 33.5 -316.5t115.5 -86.5q79 0 112.5 89.5t33.5 313.5q0 225 -33.5 315.5t-112.5 90.5q-82 0 -115.5 -88t-33.5 -318zM485 0v90q-22 -52 -67.5 -80t-104.5 -28q-126 0 -182.5 123.5t-56.5 408.5q0 249 57.5 364t181.5 115q56 0 99 -26t73 -78v92h119v-981
h-119zM419 1464l162 -348h-74l-147 262l-147 -262h-74l160 348h120z" />
    <glyph glyph-name="atilde" unicode="&#xe3;" horiz-adv-x="721" 
d="M197 485q0 -230 33.5 -316.5t115.5 -86.5q79 0 112.5 89.5t33.5 313.5q0 225 -33.5 315.5t-112.5 90.5q-82 0 -115.5 -88t-33.5 -318zM485 0v90q-22 -52 -67.5 -80t-104.5 -28q-126 0 -182.5 123.5t-56.5 408.5q0 249 57.5 364t181.5 115q56 0 99 -26t73 -78v92h119v-981
h-119zM589 1358q-21 -88 -57.5 -130t-89.5 -42q-17 0 -32.5 3t-31.5 9l-69 25q-2 0 -5 1q-24 7 -38 7q-24 0 -41.5 -17t-30.5 -53h-65q18 83 57 127.5t92 44.5q19 0 32.5 -2t22.5 -6l73 -27q13 -5 23.5 -7.5t18.5 -2.5q26 0 45 17t33 53h63z" />
    <glyph glyph-name="adieresis" unicode="&#xe4;" horiz-adv-x="721" 
d="M197 485q0 -230 33.5 -316.5t115.5 -86.5q79 0 112.5 89.5t33.5 313.5q0 225 -33.5 315.5t-112.5 90.5q-82 0 -115.5 -88t-33.5 -318zM485 0v90q-22 -52 -67.5 -80t-104.5 -28q-126 0 -182.5 123.5t-56.5 408.5q0 249 57.5 364t181.5 115q56 0 99 -26t73 -78v92h119v-981
h-119zM487 1339q35 0 59.5 -23.5t24.5 -58.5q0 -31 -25.5 -56t-58.5 -25q-32 0 -57 25t-25 56q0 34 24 58t58 24zM231 1339q35 0 58.5 -23.5t23.5 -58.5q0 -31 -24.5 -56t-57.5 -25q-32 0 -57 25t-25 56q0 34 24 58t58 24z" />
    <glyph glyph-name="aring" unicode="&#xe5;" horiz-adv-x="721" 
d="M358 1436q-55 0 -94 -38.5t-39 -94.5t39 -96t94 -40t93 40t38 96q0 55 -38 94t-93 39zM135 1303q0 93 64.5 157t158.5 64t158 -64t64 -157q0 -95 -64 -159.5t-158 -64.5t-158.5 64.5t-64.5 159.5zM197 485q0 -230 33.5 -316.5t115.5 -86.5q79 0 112.5 89.5t33.5 313.5
q0 225 -33.5 315.5t-112.5 90.5q-82 0 -115.5 -88t-33.5 -318zM485 0v90q-22 -52 -67.5 -80t-104.5 -28q-126 0 -182.5 123.5t-56.5 408.5q0 249 57.5 364t181.5 115q56 0 99 -26t73 -78v92h119v-981h-119z" />
    <glyph glyph-name="ae" unicode="&#xe6;" horiz-adv-x="1083" 
d="M338 508q-76 0 -122 -55.5t-46 -145.5q0 -108 43.5 -164.5t126.5 -56.5q76 0 120 58t44 159q0 97 -44 151t-122 54zM921 561q-1 156 -39.5 242t-107.5 86q-73 0 -116.5 -85t-49.5 -243h313zM547 133q-35 -72 -95 -111.5t-135 -39.5q-120 0 -187 88t-67 247
q0 128 69 206.5t179 78.5q53 0 98 -16.5t83 -48.5v165q0 100 -36.5 144.5t-117.5 44.5q-47 0 -95.5 -18.5t-97.5 -55.5v121q61 31 113.5 46t99.5 15q79 0 129.5 -36.5t73.5 -110.5q32 70 87 108.5t124 38.5q132 0 198 -126.5t66 -376.5v-35h-428v-33q0 -163 41.5 -252.5
t116.5 -89.5q61 0 99.5 64.5t41.5 174.5l117 1q-8 -162 -77 -253t-181 -91q-76 0 -131.5 38t-87.5 113z" />
    <glyph glyph-name="ccedilla" unicode="&#xe7;" horiz-adv-x="541" 
d="M508 956v-141q-28 34 -57 50t-64 16q-94 0 -137 -99t-43 -315q0 -181 44 -273t132 -92q38 0 69 18.5t54 55.5v-143q-34 -23 -69 -34t-75 -11q-129 0 -203.5 128.5t-74.5 356.5q0 259 76 389.5t227 130.5q33 0 64 -9.5t57 -27.5zM316 0v-111h16q84 0 130 -44t46 -124
q0 -88 -50 -133t-148 -45q-39 0 -84.5 9.5t-102.5 29.5v76q62 -18 108 -26.5t81 -8.5q50 0 78 25t28 69q0 51 -28.5 76t-88.5 25q-15 0 -22.5 -0.5t-13.5 -1.5v184h51z" />
    <glyph glyph-name="egrave" unicode="&#xe8;" horiz-adv-x="659" 
d="M497 561q-1 156 -39.5 242t-107.5 86q-73 0 -116.5 -85t-49.5 -243h313zM612 461h-428v-33q0 -163 42 -252.5t116 -89.5q61 0 99.5 64.5t41.5 174.5h117q-7 -159 -77 -251t-183 -92q-137 0 -205.5 125.5t-68.5 375.5q0 246 74 381t206 135t199 -127.5t67 -377.5v-33z
M274 1464l168 -348h-73l-215 348h120z" />
    <glyph glyph-name="eacute" unicode="&#xe9;" horiz-adv-x="659" 
d="M497 561q-1 156 -39.5 242t-107.5 86q-73 0 -116.5 -85t-49.5 -243h313zM612 461h-428v-33q0 -163 42 -252.5t116 -89.5q61 0 99.5 64.5t41.5 174.5h117q-7 -159 -77 -251t-183 -92q-137 0 -205.5 125.5t-68.5 375.5q0 246 74 381t206 135t199 -127.5t67 -377.5v-33z
M530 1464l-215 -348h-73l168 348h120z" />
    <glyph glyph-name="ecircumflex" unicode="&#xea;" horiz-adv-x="659" 
d="M497 561q-1 156 -39.5 242t-107.5 86q-73 0 -116.5 -85t-49.5 -243h313zM612 461h-428v-33q0 -163 42 -252.5t116 -89.5q61 0 99.5 64.5t41.5 174.5h117q-7 -159 -77 -251t-183 -92q-137 0 -205.5 125.5t-68.5 375.5q0 246 74 381t206 135t199 -127.5t67 -377.5v-33z
M401 1464l162 -348h-74l-147 262l-147 -262h-74l160 348h120z" />
    <glyph glyph-name="edieresis" unicode="&#xeb;" horiz-adv-x="659" 
d="M497 561q-1 156 -39.5 242t-107.5 86q-73 0 -116.5 -85t-49.5 -243h313zM612 461h-428v-33q0 -163 42 -252.5t116 -89.5q61 0 99.5 64.5t41.5 174.5h117q-7 -159 -77 -251t-183 -92q-137 0 -205.5 125.5t-68.5 375.5q0 246 74 381t206 135t199 -127.5t67 -377.5v-33z
M469 1339q35 0 59.5 -23.5t24.5 -58.5q0 -31 -25.5 -56t-58.5 -25q-32 0 -57 25t-25 56q0 34 24 58t58 24zM213 1339q35 0 58.5 -23.5t23.5 -58.5q0 -31 -24.5 -56t-57.5 -25q-32 0 -57 25t-25 56q0 34 24 58t58 24z" />
    <glyph glyph-name="igrave" unicode="&#xec;" horiz-adv-x="356" 
d="M115 981h123v-981h-123v981zM110 1464l168 -348h-73l-215 348h120z" />
    <glyph glyph-name="iacute" unicode="&#xed;" horiz-adv-x="356" 
d="M115 981h123v-981h-123v981zM366 1464l-215 -348h-73l168 348h120z" />
    <glyph glyph-name="icircumflex" unicode="&#xee;" horiz-adv-x="356" 
d="M115 981h123v-981h-123v981zM237 1464l162 -348h-74l-147 262l-147 -262h-74l160 348h120z" />
    <glyph glyph-name="idieresis" unicode="&#xef;" horiz-adv-x="356" 
d="M115 981h123v-981h-123v981zM305 1339q35 0 59.5 -23.5t24.5 -58.5q0 -31 -25.5 -56t-58.5 -25q-32 0 -57 25t-25 56q0 34 24 58t58 24zM49 1339q35 0 58.5 -23.5t23.5 -58.5q0 -31 -24.5 -56t-57.5 -25q-32 0 -57 25t-25 56q0 34 24 58t58 24z" />
    <glyph glyph-name="eth" unicode="&#xf0;" horiz-adv-x="692" 
d="M430 973q-23 70 -56.5 144t-76.5 153l-197 -94l-34 77l190 93q-27 52 -57 103t-64 101h127q19 -34 41 -72t49 -85l158 73l37 -73l-154 -76q117 -221 175.5 -427.5t58.5 -397.5q0 -252 -70.5 -381t-208.5 -129q-141 0 -211.5 128t-70.5 382q0 253 70.5 381t211.5 128
q26 0 46 -7t36 -21zM346 897q-81 0 -118.5 -96t-37.5 -309q0 -214 37.5 -311t118.5 -97q79 0 117.5 99.5t38.5 305.5q0 207 -38.5 307.5t-117.5 100.5z" />
    <glyph glyph-name="ntilde" unicode="&#xf1;" horiz-adv-x="729" 
d="M117 981h121v-90q32 51 80 76.5t108 25.5q104 0 151.5 -73.5t47.5 -239.5v-680h-121v698q0 115 -27 158t-94 43q-71 0 -108 -62.5t-37 -183.5v-653h-121v981zM604 1358q-21 -88 -57.5 -130t-89.5 -42q-17 0 -32.5 3t-31.5 9l-69 25q-2 0 -5 1q-24 7 -38 7
q-24 0 -41.5 -17t-30.5 -53h-65q18 83 57 127.5t92 44.5q19 0 32.5 -2t22.5 -6l73 -27q13 -5 23.5 -7.5t18.5 -2.5q26 0 45 17t33 53h63z" />
    <glyph glyph-name="ograve" unicode="&#xf2;" horiz-adv-x="692" 
d="M346 897q-81 0 -118.5 -96t-37.5 -309q0 -214 37.5 -311t118.5 -97q79 0 117.5 99.5t38.5 305.5q0 207 -38.5 307.5t-117.5 100.5zM66 492q0 253 70.5 381t211.5 128q137 0 208 -129.5t71 -379.5q0 -252 -70.5 -381t-208.5 -129q-141 0 -211.5 128t-70.5 382zM278 1464
l168 -348h-73l-215 348h120z" />
    <glyph glyph-name="oacute" unicode="&#xf3;" horiz-adv-x="692" 
d="M346 897q-81 0 -118.5 -96t-37.5 -309q0 -214 37.5 -311t118.5 -97q79 0 117.5 99.5t38.5 305.5q0 207 -38.5 307.5t-117.5 100.5zM66 492q0 253 70.5 381t211.5 128q137 0 208 -129.5t71 -379.5q0 -252 -70.5 -381t-208.5 -129q-141 0 -211.5 128t-70.5 382zM534 1464
l-215 -348h-73l168 348h120z" />
    <glyph glyph-name="ocircumflex" unicode="&#xf4;" horiz-adv-x="692" 
d="M346 897q-81 0 -118.5 -96t-37.5 -309q0 -214 37.5 -311t118.5 -97q79 0 117.5 99.5t38.5 305.5q0 207 -38.5 307.5t-117.5 100.5zM66 492q0 253 70.5 381t211.5 128q137 0 208 -129.5t71 -379.5q0 -252 -70.5 -381t-208.5 -129q-141 0 -211.5 128t-70.5 382zM405 1464
l162 -348h-74l-147 262l-147 -262h-74l160 348h120z" />
    <glyph glyph-name="otilde" unicode="&#xf5;" horiz-adv-x="692" 
d="M346 897q-81 0 -118.5 -96t-37.5 -309q0 -214 37.5 -311t118.5 -97q79 0 117.5 99.5t38.5 305.5q0 207 -38.5 307.5t-117.5 100.5zM66 492q0 253 70.5 381t211.5 128q137 0 208 -129.5t71 -379.5q0 -252 -70.5 -381t-208.5 -129q-141 0 -211.5 128t-70.5 382zM575 1358
q-21 -88 -57.5 -130t-89.5 -42q-17 0 -32.5 3t-31.5 9l-69 25q-2 0 -5 1q-24 7 -38 7q-24 0 -41.5 -17t-30.5 -53h-65q18 83 57 127.5t92 44.5q19 0 32.5 -2t22.5 -6l73 -27q13 -5 23.5 -7.5t18.5 -2.5q26 0 45 17t33 53h63z" />
    <glyph glyph-name="odieresis" unicode="&#xf6;" horiz-adv-x="692" 
d="M346 897q-81 0 -118.5 -96t-37.5 -309q0 -214 37.5 -311t118.5 -97q79 0 117.5 99.5t38.5 305.5q0 207 -38.5 307.5t-117.5 100.5zM66 492q0 253 70.5 381t211.5 128q137 0 208 -129.5t71 -379.5q0 -252 -70.5 -381t-208.5 -129q-141 0 -211.5 128t-70.5 382zM473 1339
q35 0 59.5 -23.5t24.5 -58.5q0 -31 -25.5 -56t-58.5 -25q-32 0 -57 25t-25 56q0 34 24 58t58 24zM217 1339q35 0 58.5 -23.5t23.5 -58.5q0 -31 -24.5 -56t-57.5 -25q-32 0 -57 25t-25 56q0 34 24 58t58 24z" />
    <glyph glyph-name="divide" unicode="&#xf7;" horiz-adv-x="1706" 
d="M854 365q41 0 69.5 -29.5t28.5 -71.5q0 -40 -28.5 -69t-69.5 -29t-69.5 28.5t-28.5 69.5t29 71t69 30zM1452 651v-82h-1198v82h1198zM854 1055q41 0 69.5 -28.5t28.5 -70.5q0 -40 -28.5 -70t-69.5 -30t-69.5 29.5t-28.5 70.5t28.5 70t69.5 29z" />
    <glyph glyph-name="oslash" unicode="&#xf8;" horiz-adv-x="692" 
d="M233 162q20 -38 49 -58t64 -20q79 0 117.5 99.5t38.5 305.5q0 71 -4 128t-13 106zM455 819q-17 37 -46 57.5t-63 20.5q-81 0 -118.5 -96t-37.5 -309q0 -82 3 -136t10 -96zM127 119q-30 67 -45.5 161t-15.5 212q0 253 70.5 381t211.5 128q51 0 94 -19.5t78 -59.5l51 100
l58 -27l-66 -133q32 -61 48 -154.5t16 -215.5q0 -252 -70.5 -381t-208.5 -129q-56 0 -99.5 19.5t-78.5 59.5l-57 -108l-56 33z" />
    <glyph glyph-name="ugrave" unicode="&#xf9;" horiz-adv-x="727" 
d="M106 981h121v-643q0 -136 31.5 -191t106.5 -55q73 0 104 54t31 192v643h121v-664q0 -175 -61.5 -255t-194.5 -80q-134 0 -196.5 80.5t-62.5 254.5v664zM297 1464l168 -348h-73l-215 348h120z" />
    <glyph glyph-name="uacute" unicode="&#xfa;" horiz-adv-x="727" 
d="M106 981h121v-643q0 -136 31.5 -191t106.5 -55q73 0 104 54t31 192v643h121v-664q0 -175 -61.5 -255t-194.5 -80q-134 0 -196.5 80.5t-62.5 254.5v664zM553 1464l-215 -348h-73l168 348h120z" />
    <glyph glyph-name="ucircumflex" unicode="&#xfb;" horiz-adv-x="727" 
d="M106 981h121v-643q0 -136 31.5 -191t106.5 -55q73 0 104 54t31 192v643h121v-664q0 -175 -61.5 -255t-194.5 -80q-134 0 -196.5 80.5t-62.5 254.5v664zM424 1464l162 -348h-74l-147 262l-147 -262h-74l160 348h120z" />
    <glyph glyph-name="udieresis" unicode="&#xfc;" horiz-adv-x="727" 
d="M106 981h121v-643q0 -136 31.5 -191t106.5 -55q73 0 104 54t31 192v643h121v-664q0 -175 -61.5 -255t-194.5 -80q-134 0 -196.5 80.5t-62.5 254.5v664zM492 1339q35 0 59.5 -23.5t24.5 -58.5q0 -31 -25.5 -56t-58.5 -25q-32 0 -57 25t-25 56q0 34 24 58t58 24zM236 1339
q35 0 58.5 -23.5t23.5 -58.5q0 -31 -24.5 -56t-57.5 -25q-32 0 -57 25t-25 56q0 34 24 58t58 24z" />
    <glyph glyph-name="yacute" unicode="&#xfd;" horiz-adv-x="627" 
d="M260 -12l-244 993h127l119 -565q19 -90 31.5 -160t21.5 -135q21 97 43 204.5t25 120.5l125 535h121l-353 -1356h-118zM501 1464l-215 -348h-73l168 348h120z" />
    <glyph glyph-name="thorn" unicode="&#xfe;" horiz-adv-x="721" 
d="M379 82q81 0 114 86t33 317q0 233 -33 319.5t-114 86.5q-79 0 -112.5 -90.5t-33.5 -315.5q0 -224 33.5 -313.5t112.5 -89.5zM121 1550h121v-651q33 48 75 71t95 23q126 0 182.5 -117.5t56.5 -386.5q0 -262 -58.5 -384.5t-182.5 -122.5q-50 0 -92.5 21.5t-75.5 64.5v-461
h-121v1943z" />
    <glyph glyph-name="ydieresis" unicode="&#xff;" horiz-adv-x="627" 
d="M260 -12l-244 993h127l119 -565q19 -90 31.5 -160t21.5 -135q21 97 43 204.5t25 120.5l125 535h121l-353 -1356h-118zM440 1339q35 0 59.5 -23.5t24.5 -58.5q0 -31 -25.5 -56t-58.5 -25q-32 0 -57 25t-25 56q0 34 24 58t58 24zM184 1339q35 0 58.5 -23.5t23.5 -58.5
q0 -31 -24.5 -56t-57.5 -25q-32 0 -57 25t-25 56q0 34 24 58t58 24z" />
    <glyph glyph-name="Cacute" unicode="&#x106;" horiz-adv-x="674" 
d="M655 39q-42 -24 -90.5 -36.5t-99.5 -12.5q-198 0 -293.5 179.5t-95.5 549.5q0 369 102 559t301 190q50 0 94.5 -10t85.5 -31v-143q-47 31 -86.5 45t-78.5 14q-144 0 -211.5 -147t-67.5 -459q0 -339 62.5 -479.5t207.5 -140.5q30 0 57.5 6t53.5 18q15 7 30 16.5t29 20.5
v-139zM628 1943l-215 -348h-73l168 348h120z" />
    <glyph glyph-name="cacute" unicode="&#x107;" horiz-adv-x="541" 
d="M508 956v-141q-28 34 -57 50t-64 16q-94 0 -137 -99t-43 -315q0 -181 44 -273t132 -92q38 0 69 18.5t54 55.5v-143q-34 -23 -69 -34t-75 -11q-129 0 -203.5 128.5t-74.5 356.5q0 259 76 389.5t227 130.5q33 0 64 -9.5t57 -27.5zM526 1464l-215 -348h-73l168 348h120z" />
    <glyph glyph-name="Ccaron" unicode="&#x10c;" horiz-adv-x="674" 
d="M655 39q-42 -24 -90.5 -36.5t-99.5 -12.5q-198 0 -293.5 179.5t-95.5 549.5q0 369 102 559t301 190q50 0 94.5 -10t85.5 -31v-143q-47 31 -86.5 45t-78.5 14q-144 0 -211.5 -147t-67.5 -459q0 -339 62.5 -479.5t207.5 -140.5q30 0 57.5 6t53.5 18q15 7 30 16.5t29 20.5
v-139zM293 1927l147 -264l147 264h74l-162 -350h-120l-160 350h74z" />
    <glyph glyph-name="ccaron" unicode="&#x10d;" horiz-adv-x="541" 
d="M508 956v-141q-28 34 -57 50t-64 16q-94 0 -137 -99t-43 -315q0 -181 44 -273t132 -92q38 0 69 18.5t54 55.5v-143q-34 -23 -69 -34t-75 -11q-129 0 -203.5 128.5t-74.5 356.5q0 259 76 389.5t227 130.5q33 0 64 -9.5t57 -27.5zM191 1448l147 -264l147 264h74l-162 -350
h-120l-160 350h74z" />
    <glyph glyph-name="dcroat" unicode="&#x111;" horiz-adv-x="729" 
d="M483 90q-21 -51 -66 -79.5t-104 -28.5q-126 0 -182.5 124t-56.5 408q0 248 58 363.5t181 115.5q57 0 100.5 -25.5t69.5 -74.5v356h-184v86h184v215h121v-215h117v-86h-117v-1249h-121v90zM197 485q0 -232 33 -317.5t116 -85.5q79 0 112.5 88t33.5 315t-33.5 316.5
t-112.5 89.5q-82 0 -115.5 -86.5t-33.5 -319.5z" />
    <glyph glyph-name="Gbreve" unicode="&#x11e;" horiz-adv-x="782" 
d="M723 1206l-123 -51q-23 97 -67 147t-107 50q-108 0 -160.5 -153t-52.5 -468q0 -335 49.5 -481t161.5 -146q86 0 127 76.5t41 239.5v221h-203v123h334v-328q0 -228 -76.5 -342t-228.5 -114q-178 0 -260 178.5t-82 570.5q0 383 87.5 566.5t270.5 183.5q102 0 176.5 -70.5
t112.5 -202.5zM235 1882q5 -76 42.5 -111t113.5 -35q77 0 113 34.5t41 111.5h65q-8 -137 -60.5 -199.5t-158.5 -62.5t-158.5 62.5t-60.5 199.5h63z" />
    <glyph glyph-name="gbreve" unicode="&#x11f;" horiz-adv-x="721" 
d="M197 485q0 -230 33.5 -316.5t115.5 -86.5q79 0 112.5 89.5t33.5 313.5q0 225 -33.5 315.5t-112.5 90.5q-82 0 -115.5 -88t-33.5 -318zM96 -102h111v-15q0 -90 34.5 -135t102.5 -45q73 0 106 49t33 158v174q-24 -47 -66 -71.5t-100 -24.5q-131 0 -187 119t-56 411
q0 245 58 360t181 115q56 0 99 -26.5t71 -77.5v92h121v-981q0 -129 -7.5 -183t-25.5 -87q-34 -64 -91 -96.5t-134 -32.5q-118 0 -184 74t-66 206v17zM204 1403q5 -76 42.5 -111t113.5 -35q77 0 113 34.5t41 111.5h65q-8 -137 -60.5 -199.5t-158.5 -62.5t-158.5 62.5
t-60.5 199.5h63z" />
    <glyph glyph-name="Idotaccent" unicode="&#x130;" horiz-adv-x="426" 
d="M147 0v1460h134v-1460h-134zM213 1818q35 0 58.5 -23.5t23.5 -58.5q0 -31 -24.5 -56t-57.5 -25q-32 0 -58 25t-26 56q0 34 25 58t59 24z" />
    <glyph glyph-name="dotlessi" unicode="&#x131;" horiz-adv-x="356" 
d="M115 981h123v-981h-123v981z" />
    <glyph glyph-name="Lslash" unicode="&#x141;" horiz-adv-x="606" 
d="M166 653l-148 -100v125l148 98v684h133v-622l170 112v-127l-170 -112v-590h315v-121h-448v653z" />
    <glyph glyph-name="lslash" unicode="&#x142;" horiz-adv-x="393" 
d="M135 713l-117 -78v104l117 78v733h121v-684l115 78v-104l-115 -78v-762h-121v713z" />
    <glyph glyph-name="OE" unicode="&#x152;" horiz-adv-x="1223" 
d="M664 141q-34 -76 -93 -117.5t-133 -41.5q-186 0 -274 181.5t-88 565.5t88 567t274 183q75 0 133 -39.5t93 -114.5v135h460v-123h-327v-526h321v-119h-321v-569h336v-123h-469v141zM438 1356q-116 0 -170.5 -150.5t-54.5 -474.5t54.5 -475.5t170.5 -151.5
q117 0 171.5 149.5t54.5 477.5q0 327 -54.5 476t-171.5 149z" />
    <glyph glyph-name="oe" unicode="&#x153;" horiz-adv-x="1096" 
d="M563 127q-30 -69 -87 -107t-128 -38q-141 0 -211.5 128t-70.5 382q0 253 70.5 381t211.5 128q74 0 129 -38.5t90 -116.5q37 75 92.5 115t122.5 40q132 0 199.5 -128.5t67.5 -378.5v-33h-428v-33q0 -163 41.5 -252.5t115.5 -89.5q61 0 100 65t42 175l116 -1
q-7 -159 -77 -251t-183 -92q-74 0 -129 37.5t-84 107.5zM934 562q-2 157 -41 245t-107 88q-72 0 -115.5 -87.5t-49.5 -246.5zM346 895q-82 0 -119 -95.5t-37 -307.5q0 -214 37.5 -310t118.5 -96q79 0 117.5 99t38.5 304q0 207 -38.5 306.5t-117.5 99.5z" />
    <glyph glyph-name="Scedilla" unicode="&#x15e;" horiz-adv-x="750" 
d="M90 225q53 -59 111 -89t121 -30q102 0 167.5 74t65.5 191q0 50 -13.5 92t-41.5 78q-43 55 -152 135q-44 32 -65 49q-111 90 -160 177.5t-49 195.5q0 164 97 272.5t243 108.5q58 0 114.5 -20t110.5 -60v-172q-44 62 -100 94.5t-119 32.5q-95 0 -154 -67.5t-59 -176.5
q0 -92 40 -158.5t189 -177.5q154 -113 203 -196.5t49 -198.5q0 -174 -100 -285.5t-254 -111.5q-67 0 -127 17t-117 52v174zM363 0v-111h16q84 0 130 -44t46 -124q0 -88 -50 -133t-148 -45q-39 0 -84.5 9.5t-102.5 29.5v76q62 -18 108 -26.5t81 -8.5q50 0 78 25t28 69
q0 51 -28.5 76t-88.5 25q-15 0 -22.5 -0.5t-13.5 -1.5v184h51z" />
    <glyph glyph-name="scedilla" unicode="&#x15f;" horiz-adv-x="541" 
d="M66 193q44 -51 91 -77t95 -26q67 0 110.5 43t43.5 111q0 83 -150 211q-10 8 -14 12q-119 101 -154 160.5t-35 130.5q0 104 68 171.5t174 67.5q45 0 88.5 -12.5t85.5 -38.5v-125q-37 36 -79 55t-83 19q-59 0 -99 -38t-40 -95q0 -80 139 -196q5 -4 8 -7
q131 -109 169 -172.5t38 -140.5q0 -117 -74 -193t-188 -76q-53 0 -103.5 19t-90.5 53v144zM258 0v-111h16q84 0 130 -44t46 -124q0 -88 -50 -133t-148 -45q-39 0 -84.5 9.5t-102.5 29.5v76q62 -18 108 -26.5t81 -8.5q50 0 78 25t28 69q0 51 -28.5 76t-88.5 25
q-15 0 -22.5 -0.5t-13.5 -1.5v184h51z" />
    <glyph glyph-name="Scaron" unicode="&#x160;" horiz-adv-x="750" 
d="M90 225q53 -59 111 -89t121 -30q102 0 167.5 74t65.5 191q0 50 -13.5 92t-41.5 78q-43 55 -152 135q-44 32 -65 49q-111 90 -160 177.5t-49 195.5q0 164 97 272.5t243 108.5q58 0 114.5 -20t110.5 -60v-172q-44 62 -100 94.5t-119 32.5q-95 0 -154 -67.5t-59 -176.5
q0 -92 40 -158.5t189 -177.5q154 -113 203 -196.5t49 -198.5q0 -174 -100 -285.5t-254 -111.5q-67 0 -127 17t-117 52v174zM228 1927l147 -264l147 264h74l-162 -350h-120l-160 350h74z" />
    <glyph glyph-name="scaron" unicode="&#x161;" horiz-adv-x="541" 
d="M66 193q44 -51 91 -77t95 -26q67 0 110.5 43t43.5 111q0 83 -150 211q-10 8 -14 12q-119 101 -154 160.5t-35 130.5q0 104 68 171.5t174 67.5q45 0 88.5 -12.5t85.5 -38.5v-125q-37 36 -79 55t-83 19q-59 0 -99 -38t-40 -95q0 -80 139 -196q5 -4 8 -7
q131 -109 169 -172.5t38 -140.5q0 -117 -74 -193t-188 -76q-53 0 -103.5 19t-90.5 53v144zM123 1448l147 -264l147 264h74l-162 -350h-120l-160 350h74z" />
    <glyph glyph-name="Ydieresis" unicode="&#x178;" horiz-adv-x="674" 
d="M270 637l-274 823h139l205 -672l201 672h135l-273 -827v-633h-133v637zM465 1818q35 0 59.5 -23.5t24.5 -58.5q0 -31 -25.5 -56t-58.5 -25q-32 0 -57 25t-25 56q0 34 24 58t58 24zM209 1818q35 0 58.5 -23.5t23.5 -58.5q0 -31 -24.5 -56t-57.5 -25q-32 0 -57 25t-25 56
q0 34 24 58t58 24z" />
    <glyph glyph-name="Zcaron" unicode="&#x17d;" horiz-adv-x="627" 
d="M442 1339h-366v121h534l-420 -1337h371v-123h-541zM166 1927l147 -264l147 264h74l-162 -350h-120l-160 350h74z" />
    <glyph glyph-name="zcaron" unicode="&#x17e;" horiz-adv-x="573" 
d="M416 881h-353v100h521l-418 -877h352v-104h-522zM140 1448l147 -264l147 264h74l-162 -350h-120l-160 350h74z" />
    <glyph glyph-name="florin" unicode="&#x192;" horiz-adv-x="797" 
d="M330 764h-164l20 104h160l70 404q18 105 70.5 157t140.5 52q16 0 36 -3.5t52 -11.5l-21 -98q-11 3 -23 4.5t-22 1.5q-46 0 -72 -33.5t-38 -109.5l-64 -363h174l-16 -104h-176l-152 -928q-17 -103 -70.5 -156t-140.5 -53q-22 0 -44 3.5t-44 11.5l17 102q12 -4 24.5 -6
t26.5 -2q42 0 67.5 33.5t38.5 107.5z" />
    <glyph glyph-name="circumflex" unicode="&#x2c6;" 
d="M571 1464l162 -348h-74l-147 262l-147 -262h-74l160 348h120z" />
    <glyph glyph-name="caron" unicode="&#x2c7;" 
d="M365 1448l147 -264l147 264h74l-162 -350h-120l-160 350h74z" />
    <glyph glyph-name="breve" unicode="&#x2d8;" 
d="M356 1403q5 -76 42.5 -111t113.5 -35q77 0 113 34.5t41 111.5h65q-8 -137 -60.5 -199.5t-158.5 -62.5t-158.5 62.5t-60.5 199.5h63z" />
    <glyph glyph-name="dotaccent" unicode="&#x2d9;" 
d="M512 1339q35 0 58.5 -23.5t23.5 -58.5q0 -31 -24.5 -56t-57.5 -25q-32 0 -58 25t-26 56q0 34 25 58t59 24z" />
    <glyph glyph-name="ring" unicode="&#x2da;" 
d="M514 1436q-56 0 -94.5 -38.5t-38.5 -94.5t39 -96t94 -40t93 40t38 96q0 55 -38 94t-93 39zM289 1303q0 93 64.5 157t158.5 64t158.5 -64t64.5 -157q0 -95 -65 -160.5t-158 -65.5q-94 0 -158.5 65.5t-64.5 160.5z" />
    <glyph glyph-name="ogonek" unicode="&#x2db;" 
d="M567 0q-58 -63 -87 -123.5t-29 -118.5q0 -42 20.5 -61t67.5 -19h61v-104h-59q-84 0 -126 39t-42 117q0 67 36 134.5t109 135.5h49z" />
    <glyph glyph-name="tilde" unicode="&#x2dc;" 
d="M741 1358q-21 -88 -57.5 -130t-89.5 -42q-17 0 -32.5 3t-31.5 9l-69 25q-2 0 -5 1q-24 7 -38 7q-24 0 -41.5 -17t-30.5 -53h-65q18 83 57 127.5t92 44.5q19 0 32.5 -2t22.5 -6l73 -27q13 -5 23.5 -7.5t18.5 -2.5q26 0 45 17t33 53h63z" />
    <glyph glyph-name="hungarumlaut" unicode="&#x2dd;" 
d="M801 1448l-185 -350h-57l135 350h107zM596 1448l-166 -350h-59l121 350h104z" />
    <glyph glyph-name="Omega" unicode="&#x3a9;" horiz-adv-x="1585" 
d="M1452 121v-121h-573v102q218 136 328 307.5t110 376.5q0 269 -146.5 438t-377.5 169t-378 -169t-147 -438q0 -205 110 -376.5t329 -307.5v-102h-572v121h354q-183 132 -271.5 295.5t-88.5 369.5q0 317 188.5 522t475.5 205q286 0 474.5 -205t188.5 -522
q0 -206 -88.5 -369.5t-271.5 -295.5h356z" />
    <glyph glyph-name="pi" unicode="&#x3c0;" horiz-adv-x="1155" 
d="M1102 958h-182l-119 -565q-14 -62 -21.5 -111t-7.5 -77q0 -59 24.5 -83t84.5 -24q27 0 49.5 2.5t42.5 7.5l-25 -108q-29 -9 -52 -12.5t-44 -3.5q-92 0 -145.5 54t-53.5 148q0 47 11.5 122.5t44.5 228.5l88 421h-381l-203 -958h-121l201 958h-39q-55 0 -85.5 -32
t-41.5 -101h-121q25 135 85 186.5t206 51.5h829z" />
    <glyph glyph-name="endash" unicode="&#x2013;" 
d="M1024 463h-1024v82h1024v-82z" />
    <glyph glyph-name="emdash" unicode="&#x2014;" horiz-adv-x="2048" 
d="M0 463v82h2048v-82h-2048z" />
    <glyph glyph-name="quoteleft" unicode="&#x2018;" horiz-adv-x="397" 
d="M360 1432l-184 -439l-129 64l225 422z" />
    <glyph glyph-name="quoteright" unicode="&#x2019;" horiz-adv-x="397" 
d="M47 1040l184 439l129 -64l-225 -422z" />
    <glyph glyph-name="quotesinglbase" unicode="&#x201a;" horiz-adv-x="397" 
d="M-12 -266l184 438l129 -63l-225 -422z" />
    <glyph glyph-name="quotedblleft" unicode="&#x201c;" horiz-adv-x="692" 
d="M653 1432l-184 -439l-129 64l225 422zM360 1432l-184 -439l-129 64l225 422z" />
    <glyph glyph-name="quotedblright" unicode="&#x201d;" horiz-adv-x="692" 
d="M340 1040l184 439l129 -64l-225 -422zM47 1040l184 439l129 -64l-225 -422z" />
    <glyph glyph-name="quotedblbase" unicode="&#x201e;" horiz-adv-x="692" 
d="M281 -266l186 438l129 -63l-225 -422zM-12 -266l184 438l129 -63l-225 -422z" />
    <glyph glyph-name="dagger" unicode="&#x2020;" horiz-adv-x="711" 
d="M287 926h-262v106h262v428h121v-428h278v-106h-278v-1329h-121v1329z" />
    <glyph glyph-name="daggerdbl" unicode="&#x2021;" horiz-adv-x="711" 
d="M287 51h-262v109h262v766h-262v106h262v428h121v-428h278v-106h-278v-766h278v-109h-278v-454h-121v454z" />
    <glyph glyph-name="bullet" unicode="&#x2022;" horiz-adv-x="1208" 
d="M307 762q0 123 87 209t210 86q122 0 208.5 -86.5t86.5 -208.5t-87.5 -209.5t-209.5 -87.5q-123 0 -209 87t-86 210z" />
    <glyph glyph-name="ellipsis" unicode="&#x2026;" horiz-adv-x="2048" 
d="M342 164q39 0 65.5 -26t26.5 -64t-27.5 -65t-64.5 -27t-65 28t-28 64q0 38 27 64t66 26zM1024 164q39 0 65.5 -26t26.5 -64t-27.5 -65t-64.5 -27t-65 28t-28 64q0 38 27 64t66 26zM1708 164q39 0 65.5 -26t26.5 -64t-27.5 -65t-64.5 -27t-65 28t-28 64q0 38 27 64t66 26z
" />
    <glyph glyph-name="perthousand" unicode="&#x2030;" horiz-adv-x="1892" 
d="M1606 782q-62 0 -90.5 -84.5t-28.5 -267.5q0 -182 29 -268t90 -86t90.5 86t29.5 268q0 181 -29 266.5t-91 85.5zM1384 428q0 230 54 339.5t168 109.5q113 0 167 -109.5t54 -339.5q0 -229 -54 -337.5t-167 -108.5q-114 0 -168 108.5t-54 337.5zM1032 782q-61 0 -90 -84.5
t-29 -267.5q0 -182 29 -268t90 -86t90 85.5t29 268.5t-28.5 267.5t-90.5 84.5zM811 428q0 230 54 339.5t167 109.5t167 -109.5t54 -339.5q0 -229 -53.5 -337.5t-167.5 -108.5q-113 0 -167 108.5t-54 337.5zM285 1384q-62 0 -90.5 -84.5t-28.5 -267.5q0 -182 29 -268t90 -86
t89.5 85.5t28.5 268.5t-28.5 267.5t-89.5 84.5zM63 1030q0 231 53.5 340t166.5 109t168 -110t55 -339q0 -228 -54.5 -337t-168.5 -109q-113 0 -166.5 107.5t-53.5 338.5zM315 -18l586 1497h100l-585 -1497h-101z" />
    <glyph glyph-name="guilsinglleft" unicode="&#x2039;" horiz-adv-x="422" 
d="M297 926l86 -52l-207 -382l207 -388l-86 -49l-238 437z" />
    <glyph glyph-name="guilsinglright" unicode="&#x203a;" horiz-adv-x="422" 
d="M125 55l-86 51l207 383l-207 388l86 49l237 -437z" />
    <glyph glyph-name="franc" unicode="&#x20a3;" horiz-adv-x="1090" 
d="M147 1460h459v-123h-325v-518h321v-117h-321v-702h-134v1460zM781 981h121v-133q27 69 67.5 105t93.5 40v-131q-90 -5 -125.5 -63t-35.5 -213v-586h-121v981z" />
    <glyph glyph-name="trademark" unicode="&#x2122;" horiz-adv-x="1706" 
d="M926 1454l174 -440l162 440h102v-530h-59v479l-181 -479h-49l-190 479v-479h-60v530h101zM694 1454v-51h-174v-479h-67v479h-179v51h420z" />
    <glyph glyph-name="partialdiff" unicode="&#x2202;" 
d="M750 578q11 69 16.5 144.5t5.5 160.5q0 179 -38 266.5t-116 87.5q-45 0 -99.5 -73.5t-108.5 -73.5q-29 0 -48.5 18.5t-19.5 46.5q0 59 61 102t148 43q160 0 254 -147t94 -401q0 -335 -131.5 -557t-323.5 -222q-139 0 -224 105t-85 280q0 173 107 296.5t258 123.5
q97 0 158.5 -49t91.5 -151zM713 459q0 125 -47 190.5t-138 65.5q-117 0 -190.5 -125t-73.5 -330q0 -117 47.5 -179.5t137.5 -62.5q114 0 189 125.5t75 315.5z" />
    <glyph glyph-name="Delta" unicode="&#x2206;" horiz-adv-x="1335" 
d="M1155 121l-487 1233l-490 -1233h977zM754 1473l592 -1473h-1358l594 1473h172z" />
    <glyph glyph-name="product" unicode="&#x220f;" horiz-adv-x="1491" 
d="M164 1473h1163v-1866h-135v1743h-893v-1743h-135v1866z" />
    <glyph glyph-name="summation" unicode="&#x2211;" horiz-adv-x="1290" 
d="M45 1473h1208v-123h-1038l721 -787l-760 -835h1077v-121h-1243v127l752 829l-717 787v123z" />
    <glyph glyph-name="minus" unicode="&#x2212;" horiz-adv-x="1706" 
d="M1452 651v-82h-1198v82h1198z" />
    <glyph glyph-name="fraction" unicode="&#x2215;" horiz-adv-x="238" 
d="M-225 -18l585 1497h101l-586 -1497h-100z" />
    <glyph glyph-name="periodcentered" unicode="&#x2219;" horiz-adv-x="397" 
d="M199 819q38 0 64 -26t26 -64q0 -36 -26.5 -63t-63.5 -27t-63.5 27.5t-26.5 64.5t26 62.5t64 25.5z" />
    <glyph glyph-name="radical" unicode="&#x221a;" horiz-adv-x="1264" 
d="M1264 1626v-61h-129l-596 -1606h-31l-330 907l-110 -39l-15 50l230 79l278 -759l531 1429h172z" />
    <glyph glyph-name="infinity" unicode="&#x221e;" horiz-adv-x="1706" 
d="M889 557q54 -103 125 -154t162 -51q107 0 176 78t69 199q0 119 -63.5 196.5t-159.5 77.5q-87 0 -157.5 -77.5t-151.5 -268.5zM819 670q-52 102 -123.5 153t-163.5 51q-108 0 -176.5 -77.5t-68.5 -198.5q0 -118 63.5 -195t159.5 -77q88 0 158 76t151 268zM836 713
q66 139 146 206.5t177 67.5q130 0 219.5 -106t89.5 -265q0 -165 -80 -266.5t-210 -101.5q-94 0 -165.5 60.5t-142.5 201.5q-71 -139 -148.5 -203.5t-172.5 -64.5q-130 0 -220.5 106.5t-90.5 263.5q0 166 80 267.5t210 101.5q98 0 172.5 -64.5t135.5 -203.5z" />
    <glyph glyph-name="integral" unicode="&#x222b;" horiz-adv-x="948" 
d="M401 578q0 498 86.5 733t268.5 235q65 0 106 -35t41 -90q0 -45 -27.5 -71.5t-74.5 -26.5q-77 0 -101.5 64.5t-33.5 64.5q-67 0 -93 -159t-26 -687q0 -509 -85.5 -743t-268.5 -234q-64 0 -106 34.5t-42 84.5q0 48 28.5 77.5t76.5 29.5q33 0 56 -13.5t40 -42.5
q8 -14 12.5 -44.5t24.5 -30.5q66 0 92 165t26 689z" />
    <glyph glyph-name="approxequal" unicode="&#x2248;" horiz-adv-x="1706" 
d="M1530 485q-106 -74 -202 -110.5t-185 -36.5q-106 0 -295.5 70.5t-282.5 70.5q-83 0 -171 -35.5t-216 -124.5v93q105 73 201 109t186 36q106 0 295.5 -69.5t282.5 -69.5q83 0 171 35.5t216 124.5v-93zM1530 809q-105 -73 -200.5 -109t-186.5 -36q-106 0 -295.5 69.5
t-282.5 69.5q-83 0 -171 -35.5t-216 -124.5v92q106 75 202 111.5t185 36.5q106 0 295.5 -71t282.5 -71q81 0 168.5 36t218.5 126v-94z" />
    <glyph glyph-name="notequal" unicode="&#x2260;" horiz-adv-x="1706" 
d="M1280 1108l-217 -277h389v-79h-440l-219 -283h659v-82h-711l-254 -324l-61 48l215 276h-387v82h436l221 283h-657v79h709l254 326z" />
    <glyph glyph-name="lessequal" unicode="&#x2264;" horiz-adv-x="1706" 
d="M1442 129v-80h-1178v80h1178zM1442 1083l-1043 -350l1043 -352v-88l-1178 405v70l1178 403v-88z" />
    <glyph glyph-name="greaterequal" unicode="&#x2265;" horiz-adv-x="1706" 
d="M1442 129v-80h-1178v80h1178zM1442 768v-70l-1178 -405v88l1043 352l-1043 350v88z" />
    <glyph glyph-name="lozenge" unicode="&#x25ca;" horiz-adv-x="1012" 
d="M506 1409l-385 -817l385 -825l385 825zM506 1653l500 -1061l-500 -1069l-500 1069z" />
    <glyph glyph-name="apple" unicode="&#xf000;" horiz-adv-x="1618" 
d="M836 1216q-1 6 -1.5 14t-0.5 23q0 124 95 229.5t236 131.5q1 -10 1.5 -23t0.5 -39q0 -131 -103.5 -234.5t-203.5 -103.5h-8q-3 0 -7.5 1t-8.5 1zM1505 403q-114 -247 -205 -342.5t-204 -95.5q-50 0 -131.5 33t-122.5 33q-45 0 -131 -33t-127 -33q-64 0 -128.5 44
t-129.5 132q-102 140 -157.5 295.5t-55.5 300.5q0 219 125 356.5t323 137.5q68 0 155 -34t124 -34q34 0 121.5 35t152.5 35q110 0 198 -40t161 -124q-102 -65 -151.5 -145.5t-49.5 -182.5q0 -113 60 -200t173 -138z" />
    <glyph glyph-name="fi" unicode="&#xf001;" horiz-adv-x="741" 
d="M563 1370q39 0 64.5 -26t25.5 -64q0 -37 -26.5 -63.5t-63.5 -26.5t-64.5 27.5t-27.5 64.5t27 62.5t65 25.5zM502 981h121v-981h-121v981zM131 881h-113v100h113v309q0 145 43 211t137 66q28 0 55.5 -4t55.5 -13v-139q-24 22 -46 32.5t-44 10.5q-45 0 -62.5 -32
t-17.5 -144v-297h170v-100h-170v-881h-121v881z" />
    <glyph glyph-name="fl" unicode="&#xf002;" horiz-adv-x="741" 
d="M502 1550h121v-1550h-121v1550zM131 881h-113v100h113v309q0 145 43 211t137 66q28 0 55.5 -4t55.5 -13v-139q-24 22 -46 32.5t-44 10.5q-45 0 -62.5 -32t-17.5 -144v-297h170v-100h-170v-881h-121v881z" />
    </font>
</defs>
</svg>
